SplineFontDB: 3.2
FontName: Minecraft
FullName: Minecraft
FamilyName: Minecraft
Weight: Medium
Copyright: Idrees Hassan
Version: 001.000
ItalicAngle: 0
UnderlinePosition: -2
UnderlineWidth: 0
Ascent: 16
Descent: 2
InvalidEm: 0
sfntRevision: 0x00010000
LayerCount: 2
Layer: 0 0 "Back" 1
Layer: 1 0 "Fore" 0
XUID: [1021 827 -1149721991 467]
StyleMap: 0x0040
FSType: 0
OS2Version: 4
OS2_WeightWidthSlopeOnly: 0
OS2_UseTypoMetrics: 0
CreationTime: 1280473793
ModificationTime: 1720615190
PfmFamily: 17
TTFWeight: 500
TTFWidth: 5
LineGap: 2
VLineGap: 0
Panose: 2 0 6 3 0 0 0 0 0 0
OS2TypoAscent: 16
OS2TypoAOffset: 0
OS2TypoDescent: -2
OS2TypoDOffset: 0
OS2TypoLinegap: 2
OS2WinAscent: 16
OS2WinAOffset: 0
OS2WinDescent: 2
OS2WinDOffset: 0
HheadAscent: 16
HheadAOffset: 0
HheadDescent: -2
HheadDOffset: 0
OS2SubXSize: 10
OS2SubYSize: 12
OS2SubXOff: 0
OS2SubYOff: 2
OS2SupXSize: 10
OS2SupYSize: 12
OS2SupXOff: 0
OS2SupYOff: 8
OS2StrikeYSize: 0
OS2StrikeYPos: 4
OS2CapHeight: 14
OS2XHeight: 10
OS2Vendor: '2ttf'
OS2CodePages: 40000001.00000000
OS2UnicodeRanges: 00000003.00014002.00000000.00000000
MarkAttachClasses: 1
DEI: 91125
LangName: 1033 "" "" "" "IdreesHassan:Minecraft" "" "Version 001.000"
Encoding: UnicodeBmp
UnicodeInterp: none
NameList: AGL For New Fonts
DisplaySize: -48
AntiAlias: 1
FitToEm: 0
WinInfo: 190 38 13
BeginPrivate: 2
BlueValues 17 [0 0 10 10 14 14]
BlueShift 1 0
EndPrivate
BeginChars: 65537 238

StartChar: .notdef
Encoding: 65536 -1 0
Width: 10
GlyphClass: 1
Flags: W
LayerCount: 2
Fore
SplineSet
1.0625 0 m 1
 1.0625 21.3125 l 1
 9.5625 21.3125 l 1
 9.5625 0 l 1
 1.0625 0 l 1
2.125 1.0625 m 1
 8.5 1.0625 l 1
 8.5 20.25 l 1
 2.125 20.25 l 1
 2.125 1.0625 l 1
EndSplineSet
Validated: 524289
EndChar

StartChar: exclam
Encoding: 33 33 2
Width: 5
GlyphClass: 2
Flags: W
LayerCount: 2
Fore
SplineSet
1 0 m 1
 1 2 l 1
 3 2 l 1
 3 0 l 1
 1 0 l 1
1 4 m 1
 1 6 l 1
 1 8 l 1
 1 10 l 1
 1 12 l 1
 1 14 l 1
 3 14 l 1
 3 12 l 1
 3 10 l 1
 3 8 l 1
 3 6 l 1
 3 4 l 1
 1 4 l 1
EndSplineSet
Validated: 1
EndChar

StartChar: quotedbl
Encoding: 34 34 3
Width: 9
GlyphClass: 2
Flags: W
LayerCount: 2
Fore
SplineSet
5 10 m 1
 5 12 l 1
 5 14 l 1
 7 14 l 1
 7 12 l 1
 7 10 l 1
 5 10 l 1
1 10 m 1
 1 12 l 1
 1 14 l 1
 3 14 l 1
 3 12 l 1
 3 10 l 1
 1 10 l 1
EndSplineSet
Validated: 1
EndChar

StartChar: numbersign
Encoding: 35 35 4
Width: 13
GlyphClass: 2
Flags: W
LayerCount: 2
Fore
SplineSet
7 0 m 1
 7 2 l 1
 7 4 l 1
 5 4 l 1
 5 2 l 1
 5 0 l 1
 3 0 l 1
 3 2 l 1
 3 4 l 1
 1 4 l 1
 1 6 l 1
 3 6 l 1
 3 8 l 1
 1 8 l 1
 1 10 l 1
 3 10 l 1
 3 12 l 1
 3 14 l 1
 5 14 l 1
 5 12 l 1
 5 10 l 1
 7 10 l 1
 7 12 l 1
 7 14 l 1
 9 14 l 1
 9 12 l 1
 9 10 l 1
 11 10 l 1
 11 8 l 1
 9 8 l 1
 9 6 l 1
 11 6 l 1
 11 4 l 1
 9 4 l 1
 9 2 l 1
 9 0 l 1
 7 0 l 1
7 6 m 1
 7 8 l 1
 5 8 l 1
 5 6 l 1
 7 6 l 1
EndSplineSet
Validated: 1
EndChar

StartChar: dollar
Encoding: 36 36 5
Width: 13
GlyphClass: 2
Flags: W
LayerCount: 2
Fore
SplineSet
5 0 m 1
 5 2 l 1
 3 2 l 1
 1 2 l 1
 1 4 l 1
 3 4 l 1
 5 4 l 1
 7 4 l 1
 9 4 l 1
 9 2 l 1
 7 2 l 1
 7 0 l 1
 5 0 l 1
9 4 m 1
 9 6 l 1
 11 6 l 1
 11 4 l 1
 9 4 l 1
9 6 m 1
 7 6 l 1
 5 6 l 1
 3 6 l 1
 3 8 l 1
 5 8 l 1
 7 8 l 1
 9 8 l 1
 9 6 l 1
3 8 m 1
 1 8 l 1
 1 10 l 1
 3 10 l 1
 3 8 l 1
9 12 m 1
 11 12 l 1
 11 10 l 1
 9 10 l 1
 7 10 l 1
 5 10 l 1
 3 10 l 1
 3 12 l 1
 5 12 l 1
 5 14 l 1
 7 14 l 1
 7 12 l 1
 9 12 l 1
EndSplineSet
Validated: 5
EndChar

StartChar: percent
Encoding: 37 37 6
Width: 13
GlyphClass: 2
Flags: W
LayerCount: 2
Fore
SplineSet
9 0 m 1
 9 2 l 1
 9 4 l 1
 11 4 l 1
 11 2 l 1
 11 0 l 1
 9 0 l 1
1 0 m 1
 1 2 l 1
 3 2 l 1
 3 0 l 1
 1 0 l 1
1 10 m 1
 1 12 l 1
 1 14 l 1
 3 14 l 1
 3 12 l 1
 3 10 l 1
 1 10 l 1
3 2 m 1
 3 4 l 1
 3 6 l 1
 5 6 l 1
 5 4 l 1
 5 2 l 1
 3 2 l 1
5 6 m 1
 5 8 l 1
 7 8 l 1
 7 6 l 1
 5 6 l 1
7 8 m 1
 7 10 l 1
 7 12 l 1
 9 12 l 1
 9 10 l 1
 9 8 l 1
 7 8 l 1
9 12 m 1
 9 14 l 1
 11 14 l 1
 11 12 l 1
 9 12 l 1
EndSplineSet
Validated: 5
EndChar

StartChar: ampersand
Encoding: 38 38 7
Width: 13
GlyphClass: 2
Flags: W
LayerCount: 2
Fore
SplineSet
9 0 m 1
 9 2 l 1
 11 2 l 1
 11 0 l 1
 9 0 l 1
5 2 m 1
 7 2 l 1
 7 0 l 1
 5 0 l 1
 3 0 l 1
 3 2 l 1
 5 2 l 1
9 2 m 1
 7 2 l 1
 7 4 l 1
 5 4 l 1
 5 6 l 1
 3 6 l 1
 3 4 l 1
 3 2 l 1
 1 2 l 1
 1 4 l 1
 1 6 l 1
 3 6 l 1
 3 8 l 1
 5 8 l 1
 5 10 l 1
 7 10 l 1
 7 8 l 1
 7 6 l 1
 9 6 l 1
 9 4 l 1
 9 2 l 1
9 6 m 1
 9 8 l 1
 11 8 l 1
 11 6 l 1
 9 6 l 1
7 10 m 1
 7 12 l 1
 9 12 l 1
 9 10 l 1
 7 10 l 1
5 10 m 1
 3 10 l 1
 3 12 l 1
 5 12 l 1
 5 10 l 1
7 12 m 1
 5 12 l 1
 5 14 l 1
 7 14 l 1
 7 12 l 1
EndSplineSet
Validated: 5
EndChar

StartChar: quotesingle
Encoding: 39 39 8
Width: 5
GlyphClass: 2
Flags: W
LayerCount: 2
Fore
SplineSet
1 10 m 1
 1 12 l 1
 1 14 l 1
 3 14 l 1
 3 12 l 1
 3 10 l 1
 1 10 l 1
EndSplineSet
Validated: 1
EndChar

StartChar: parenleft
Encoding: 40 40 9
Width: 9
GlyphClass: 2
Flags: W
LayerCount: 2
Fore
SplineSet
5 0 m 1
 5 2 l 1
 7 2 l 1
 7 0 l 1
 5 0 l 1
5 2 m 1
 3 2 l 1
 3 4 l 1
 5 4 l 1
 5 2 l 1
3 4 m 1
 1 4 l 1
 1 6 l 1
 1 8 l 1
 1 10 l 1
 3 10 l 1
 3 8 l 1
 3 6 l 1
 3 4 l 1
3 10 m 1
 3 12 l 1
 5 12 l 1
 5 10 l 1
 3 10 l 1
5 12 m 1
 5 14 l 1
 7 14 l 1
 7 12 l 1
 5 12 l 1
EndSplineSet
Validated: 5
EndChar

StartChar: parenright
Encoding: 41 41 10
Width: 9
GlyphClass: 2
Flags: W
LayerCount: 2
Fore
SplineSet
1 0 m 1
 1 2 l 1
 3 2 l 1
 3 0 l 1
 1 0 l 1
3 2 m 1
 3 4 l 1
 5 4 l 1
 5 2 l 1
 3 2 l 1
5 4 m 1
 5 6 l 1
 5 8 l 1
 5 10 l 1
 7 10 l 1
 7 8 l 1
 7 6 l 1
 7 4 l 1
 5 4 l 1
5 10 m 1
 3 10 l 1
 3 12 l 1
 5 12 l 1
 5 10 l 1
3 12 m 1
 1 12 l 1
 1 14 l 1
 3 14 l 1
 3 12 l 1
EndSplineSet
Validated: 5
EndChar

StartChar: asterisk
Encoding: 42 42 11
Width: 9
GlyphClass: 2
Flags: W
LayerCount: 2
Fore
SplineSet
5 8 m 1
 5 10 l 1
 7 10 l 1
 7 8 l 1
 5 8 l 1
1 8 m 1
 1 10 l 1
 3 10 l 1
 3 8 l 1
 1 8 l 1
5 10 m 1
 3 10 l 1
 3 12 l 1
 5 12 l 1
 5 10 l 1
5 12 m 1
 5 14 l 1
 7 14 l 1
 7 12 l 1
 5 12 l 1
3 12 m 1
 1 12 l 1
 1 14 l 1
 3 14 l 1
 3 12 l 1
EndSplineSet
Validated: 5
EndChar

StartChar: plus
Encoding: 43 43 12
Width: 13
GlyphClass: 2
Flags: W
LayerCount: 2
Fore
SplineSet
5 2 m 1
 5 4 l 1
 5 6 l 1
 3 6 l 1
 1 6 l 1
 1 8 l 1
 3 8 l 1
 5 8 l 1
 5 10 l 1
 5 12 l 1
 7 12 l 1
 7 10 l 1
 7 8 l 1
 9 8 l 1
 11 8 l 1
 11 6 l 1
 9 6 l 1
 7 6 l 1
 7 4 l 1
 7 2 l 1
 5 2 l 1
EndSplineSet
Validated: 1
EndChar

StartChar: comma
Encoding: 44 44 13
Width: 5
GlyphClass: 2
Flags: W
LayerCount: 2
Fore
SplineSet
1 -2 m 1
 1 0 l 1
 1 2 l 1
 3 2 l 1
 3 0 l 1
 3 -2 l 1
 1 -2 l 1
EndSplineSet
Validated: 1
EndChar

StartChar: hyphen
Encoding: 45 45 14
Width: 13
GlyphClass: 2
Flags: W
LayerCount: 2
Fore
SplineSet
9 8 m 1
 11 8 l 1
 11 6 l 1
 9 6 l 1
 7 6 l 1
 5 6 l 1
 3 6 l 1
 1 6 l 1
 1 8 l 1
 3 8 l 1
 5 8 l 1
 7 8 l 1
 9 8 l 1
EndSplineSet
Validated: 1
EndChar

StartChar: period
Encoding: 46 46 15
Width: 5
GlyphClass: 2
Flags: W
LayerCount: 2
Fore
SplineSet
1 0 m 1
 1 2 l 1
 3 2 l 1
 3 0 l 1
 1 0 l 1
EndSplineSet
Validated: 1
EndChar

StartChar: slash
Encoding: 47 47 16
Width: 13
GlyphClass: 2
Flags: W
LayerCount: 2
Fore
SplineSet
1 0 m 1
 1 2 l 1
 3 2 l 1
 3 0 l 1
 1 0 l 1
3 2 m 1
 3 4 l 1
 3 6 l 1
 5 6 l 1
 5 4 l 1
 5 2 l 1
 3 2 l 1
5 6 m 1
 5 8 l 1
 7 8 l 1
 7 6 l 1
 5 6 l 1
7 8 m 1
 7 10 l 1
 7 12 l 1
 9 12 l 1
 9 10 l 1
 9 8 l 1
 7 8 l 1
9 12 m 1
 9 14 l 1
 11 14 l 1
 11 12 l 1
 9 12 l 1
EndSplineSet
Validated: 5
EndChar

StartChar: zero
Encoding: 48 48 17
Width: 13
GlyphClass: 2
Flags: W
LayerCount: 2
Fore
SplineSet
7 2 m 1
 9 2 l 1
 9 0 l 1
 7 0 l 1
 5 0 l 1
 3 0 l 1
 3 2 l 1
 5 2 l 1
 7 2 l 1
9 2 m 1
 9 4 l 1
 9 6 l 1
 9 8 l 1
 7 8 l 1
 7 6 l 1
 5 6 l 1
 5 4 l 1
 3 4 l 1
 3 2 l 1
 1 2 l 1
 1 4 l 1
 1 6 l 1
 1 8 l 1
 1 10 l 1
 1 12 l 1
 3 12 l 1
 3 10 l 1
 3 8 l 1
 3 6 l 1
 5 6 l 1
 5 8 l 1
 7 8 l 1
 7 10 l 1
 9 10 l 1
 9 12 l 1
 11 12 l 1
 11 10 l 1
 11 8 l 1
 11 6 l 1
 11 4 l 1
 11 2 l 1
 9 2 l 1
9 12 m 1
 7 12 l 1
 5 12 l 1
 3 12 l 1
 3 14 l 1
 5 14 l 1
 7 14 l 1
 9 14 l 1
 9 12 l 1
EndSplineSet
Validated: 5
EndChar

StartChar: one
Encoding: 49 49 18
Width: 13
GlyphClass: 2
Flags: W
LayerCount: 2
Fore
SplineSet
9 2 m 1
 11 2 l 1
 11 0 l 1
 9 0 l 1
 7 0 l 1
 5 0 l 1
 3 0 l 1
 1 0 l 1
 1 2 l 1
 3 2 l 1
 5 2 l 1
 5 4 l 1
 5 6 l 1
 5 8 l 1
 5 10 l 1
 3 10 l 1
 3 12 l 1
 5 12 l 1
 5 14 l 1
 7 14 l 1
 7 12 l 1
 7 10 l 1
 7 8 l 1
 7 6 l 1
 7 4 l 1
 7 2 l 1
 9 2 l 1
EndSplineSet
Validated: 1
EndChar

StartChar: two
Encoding: 50 50 19
Width: 13
GlyphClass: 2
Flags: W
LayerCount: 2
Fore
SplineSet
1 10 m 1
 1 12 l 1
 3 12 l 1
 3 10 l 1
 1 10 l 1
9 0 m 1
 7 0 l 1
 5 0 l 1
 3 0 l 1
 1 0 l 1
 1 2 l 1
 1 4 l 1
 3 4 l 1
 3 2 l 1
 5 2 l 1
 7 2 l 1
 9 2 l 1
 9 4 l 1
 11 4 l 1
 11 2 l 1
 11 0 l 1
 9 0 l 1
3 4 m 1
 3 6 l 1
 5 6 l 1
 5 4 l 1
 3 4 l 1
7 8 m 1
 9 8 l 1
 9 6 l 1
 7 6 l 1
 5 6 l 1
 5 8 l 1
 7 8 l 1
9 8 m 1
 9 10 l 1
 9 12 l 1
 11 12 l 1
 11 10 l 1
 11 8 l 1
 9 8 l 1
9 12 m 1
 7 12 l 1
 5 12 l 1
 3 12 l 1
 3 14 l 1
 5 14 l 1
 7 14 l 1
 9 14 l 1
 9 12 l 1
EndSplineSet
Validated: 5
EndChar

StartChar: three
Encoding: 51 51 20
Width: 13
GlyphClass: 2
Flags: W
LayerCount: 2
Fore
SplineSet
1 10 m 1
 1 12 l 1
 3 12 l 1
 3 10 l 1
 1 10 l 1
7 2 m 1
 9 2 l 1
 9 0 l 1
 7 0 l 1
 5 0 l 1
 3 0 l 1
 3 2 l 1
 5 2 l 1
 7 2 l 1
9 2 m 1
 9 4 l 1
 9 6 l 1
 11 6 l 1
 11 4 l 1
 11 2 l 1
 9 2 l 1
3 2 m 1
 1 2 l 1
 1 4 l 1
 3 4 l 1
 3 2 l 1
9 6 m 1
 7 6 l 1
 5 6 l 1
 5 8 l 1
 7 8 l 1
 9 8 l 1
 9 6 l 1
9 8 m 1
 9 10 l 1
 9 12 l 1
 11 12 l 1
 11 10 l 1
 11 8 l 1
 9 8 l 1
9 12 m 1
 7 12 l 1
 5 12 l 1
 3 12 l 1
 3 14 l 1
 5 14 l 1
 7 14 l 1
 9 14 l 1
 9 12 l 1
EndSplineSet
Validated: 5
EndChar

StartChar: four
Encoding: 52 52 21
Width: 13
GlyphClass: 2
Flags: W
LayerCount: 2
Fore
SplineSet
9 0 m 1
 9 2 l 1
 9 4 l 1
 7 4 l 1
 5 4 l 1
 3 4 l 1
 1 4 l 1
 1 6 l 1
 1 8 l 1
 3 8 l 1
 3 10 l 1
 5 10 l 1
 5 12 l 1
 7 12 l 1
 7 14 l 1
 9 14 l 1
 11 14 l 1
 11 12 l 1
 11 10 l 1
 11 8 l 1
 11 6 l 1
 11 4 l 1
 11 2 l 1
 11 0 l 1
 9 0 l 1
7 6 m 1
 9 6 l 1
 9 8 l 1
 9 10 l 1
 9 12 l 1
 7 12 l 1
 7 10 l 1
 5 10 l 1
 5 8 l 1
 3 8 l 1
 3 6 l 1
 5 6 l 1
 7 6 l 1
EndSplineSet
Validated: 5
EndChar

StartChar: five
Encoding: 53 53 22
Width: 13
GlyphClass: 2
Flags: W
LayerCount: 2
Fore
SplineSet
7 2 m 1
 9 2 l 1
 9 0 l 1
 7 0 l 1
 5 0 l 1
 3 0 l 1
 3 2 l 1
 5 2 l 1
 7 2 l 1
9 2 m 1
 9 4 l 1
 9 6 l 1
 9 8 l 1
 11 8 l 1
 11 6 l 1
 11 4 l 1
 11 2 l 1
 9 2 l 1
3 2 m 1
 1 2 l 1
 1 4 l 1
 3 4 l 1
 3 2 l 1
9 8 m 1
 7 8 l 1
 5 8 l 1
 3 8 l 1
 1 8 l 1
 1 10 l 1
 1 12 l 1
 1 14 l 1
 3 14 l 1
 5 14 l 1
 7 14 l 1
 9 14 l 1
 11 14 l 1
 11 12 l 1
 9 12 l 1
 7 12 l 1
 5 12 l 1
 3 12 l 1
 3 10 l 1
 5 10 l 1
 7 10 l 1
 9 10 l 1
 9 8 l 1
EndSplineSet
Validated: 5
EndChar

StartChar: six
Encoding: 54 54 23
Width: 13
GlyphClass: 2
Flags: W
LayerCount: 2
Fore
SplineSet
7 2 m 1
 9 2 l 1
 9 0 l 1
 7 0 l 1
 5 0 l 1
 3 0 l 1
 3 2 l 1
 5 2 l 1
 7 2 l 1
9 2 m 1
 9 4 l 1
 9 6 l 1
 11 6 l 1
 11 4 l 1
 11 2 l 1
 9 2 l 1
3 2 m 1
 1 2 l 1
 1 4 l 1
 1 6 l 1
 1 8 l 1
 1 10 l 1
 3 10 l 1
 3 8 l 1
 5 8 l 1
 7 8 l 1
 9 8 l 1
 9 6 l 1
 7 6 l 1
 5 6 l 1
 3 6 l 1
 3 4 l 1
 3 2 l 1
3 10 m 1
 3 12 l 1
 5 12 l 1
 5 10 l 1
 3 10 l 1
7 14 m 1
 9 14 l 1
 9 12 l 1
 7 12 l 1
 5 12 l 1
 5 14 l 1
 7 14 l 1
EndSplineSet
Validated: 5
EndChar

StartChar: seven
Encoding: 55 55 24
Width: 13
GlyphClass: 2
Flags: W
LayerCount: 2
Fore
SplineSet
5 0 m 1
 5 2 l 1
 5 4 l 1
 5 6 l 1
 7 6 l 1
 7 4 l 1
 7 2 l 1
 7 0 l 1
 5 0 l 1
1 10 m 1
 1 12 l 1
 1 14 l 1
 3 14 l 1
 5 14 l 1
 7 14 l 1
 9 14 l 1
 11 14 l 1
 11 12 l 1
 11 10 l 1
 11 8 l 1
 9 8 l 1
 9 6 l 1
 7 6 l 1
 7 8 l 1
 9 8 l 1
 9 10 l 1
 9 12 l 1
 7 12 l 1
 5 12 l 1
 3 12 l 1
 3 10 l 1
 1 10 l 1
EndSplineSet
Validated: 5
EndChar

StartChar: eight
Encoding: 56 56 25
Width: 13
GlyphClass: 2
Flags: W
LayerCount: 2
Fore
SplineSet
7 2 m 1
 9 2 l 1
 9 0 l 1
 7 0 l 1
 5 0 l 1
 3 0 l 1
 3 2 l 1
 5 2 l 1
 7 2 l 1
9 2 m 1
 9 4 l 1
 9 6 l 1
 11 6 l 1
 11 4 l 1
 11 2 l 1
 9 2 l 1
3 2 m 1
 1 2 l 1
 1 4 l 1
 1 6 l 1
 3 6 l 1
 3 4 l 1
 3 2 l 1
9 6 m 1
 7 6 l 1
 5 6 l 1
 3 6 l 1
 3 8 l 1
 5 8 l 1
 7 8 l 1
 9 8 l 1
 9 6 l 1
9 8 m 1
 9 10 l 1
 9 12 l 1
 11 12 l 1
 11 10 l 1
 11 8 l 1
 9 8 l 1
3 8 m 1
 1 8 l 1
 1 10 l 1
 1 12 l 1
 3 12 l 1
 3 10 l 1
 3 8 l 1
9 12 m 1
 7 12 l 1
 5 12 l 1
 3 12 l 1
 3 14 l 1
 5 14 l 1
 7 14 l 1
 9 14 l 1
 9 12 l 1
EndSplineSet
Validated: 5
EndChar

StartChar: nine
Encoding: 57 57 26
Width: 13
GlyphClass: 2
Flags: W
LayerCount: 2
Fore
SplineSet
5 2 m 1
 7 2 l 1
 7 0 l 1
 5 0 l 1
 3 0 l 1
 3 2 l 1
 5 2 l 1
7 2 m 1
 7 4 l 1
 9 4 l 1
 9 2 l 1
 7 2 l 1
9 4 m 1
 9 6 l 1
 7 6 l 1
 5 6 l 1
 3 6 l 1
 3 8 l 1
 5 8 l 1
 7 8 l 1
 9 8 l 1
 9 10 l 1
 9 12 l 1
 11 12 l 1
 11 10 l 1
 11 8 l 1
 11 6 l 1
 11 4 l 1
 9 4 l 1
3 8 m 1
 1 8 l 1
 1 10 l 1
 1 12 l 1
 3 12 l 1
 3 10 l 1
 3 8 l 1
9 12 m 1
 7 12 l 1
 5 12 l 1
 3 12 l 1
 3 14 l 1
 5 14 l 1
 7 14 l 1
 9 14 l 1
 9 12 l 1
EndSplineSet
Validated: 5
EndChar

StartChar: colon
Encoding: 58 58 27
Width: 5
GlyphClass: 2
Flags: W
LayerCount: 2
Fore
SplineSet
1 0 m 1
 1 2 l 1
 3 2 l 1
 3 0 l 1
 1 0 l 1
1 8 m 1
 1 10 l 1
 3 10 l 1
 3 8 l 1
 1 8 l 1
EndSplineSet
Validated: 1
EndChar

StartChar: semicolon
Encoding: 59 59 28
Width: 5
GlyphClass: 2
Flags: W
LayerCount: 2
Fore
SplineSet
1 -2 m 1
 1 0 l 1
 1 2 l 1
 3 2 l 1
 3 0 l 1
 3 -2 l 1
 1 -2 l 1
1 8 m 1
 1 10 l 1
 3 10 l 1
 3 8 l 1
 1 8 l 1
EndSplineSet
Validated: 1
EndChar

StartChar: less
Encoding: 60 60 29
Width: 11
GlyphClass: 2
Flags: W
LayerCount: 2
Fore
SplineSet
7 0 m 1
 7 2 l 1
 9 2 l 1
 9 0 l 1
 7 0 l 1
7 2 m 1
 5 2 l 1
 5 4 l 1
 7 4 l 1
 7 2 l 1
5 4 m 1
 3 4 l 1
 3 6 l 1
 5 6 l 1
 5 4 l 1
3 6 m 1
 1 6 l 1
 1 8 l 1
 3 8 l 1
 3 6 l 1
3 8 m 1
 3 10 l 1
 5 10 l 1
 5 8 l 1
 3 8 l 1
5 10 m 1
 5 12 l 1
 7 12 l 1
 7 10 l 1
 5 10 l 1
7 12 m 1
 7 14 l 1
 9 14 l 1
 9 12 l 1
 7 12 l 1
EndSplineSet
Validated: 5
EndChar

StartChar: equal
Encoding: 61 61 30
Width: 13
GlyphClass: 2
Flags: W
LayerCount: 2
Fore
SplineSet
9 4 m 1
 11 4 l 1
 11 2 l 1
 9 2 l 1
 7 2 l 1
 5 2 l 1
 3 2 l 1
 1 2 l 1
 1 4 l 1
 3 4 l 1
 5 4 l 1
 7 4 l 1
 9 4 l 1
9 10 m 1
 11 10 l 1
 11 8 l 1
 9 8 l 1
 7 8 l 1
 5 8 l 1
 3 8 l 1
 1 8 l 1
 1 10 l 1
 3 10 l 1
 5 10 l 1
 7 10 l 1
 9 10 l 1
EndSplineSet
Validated: 1
EndChar

StartChar: greater
Encoding: 62 62 31
Width: 11
GlyphClass: 2
Flags: W
LayerCount: 2
Fore
SplineSet
1 0 m 1
 1 2 l 1
 3 2 l 1
 3 0 l 1
 1 0 l 1
3 2 m 1
 3 4 l 1
 5 4 l 1
 5 2 l 1
 3 2 l 1
5 4 m 1
 5 6 l 1
 7 6 l 1
 7 4 l 1
 5 4 l 1
7 6 m 1
 7 8 l 1
 9 8 l 1
 9 6 l 1
 7 6 l 1
7 8 m 1
 5 8 l 1
 5 10 l 1
 7 10 l 1
 7 8 l 1
5 10 m 1
 3 10 l 1
 3 12 l 1
 5 12 l 1
 5 10 l 1
3 12 m 1
 1 12 l 1
 1 14 l 1
 3 14 l 1
 3 12 l 1
EndSplineSet
Validated: 5
EndChar

StartChar: question
Encoding: 63 63 32
Width: 13
GlyphClass: 2
Flags: W
LayerCount: 2
Fore
SplineSet
5 0 m 1
 5 2 l 1
 7 2 l 1
 7 0 l 1
 5 0 l 1
5 4 m 1
 5 6 l 1
 7 6 l 1
 7 4 l 1
 5 4 l 1
1 10 m 1
 1 12 l 1
 3 12 l 1
 3 10 l 1
 1 10 l 1
7 6 m 1
 7 8 l 1
 9 8 l 1
 9 6 l 1
 7 6 l 1
9 8 m 1
 9 10 l 1
 9 12 l 1
 11 12 l 1
 11 10 l 1
 11 8 l 1
 9 8 l 1
9 12 m 1
 7 12 l 1
 5 12 l 1
 3 12 l 1
 3 14 l 1
 5 14 l 1
 7 14 l 1
 9 14 l 1
 9 12 l 1
EndSplineSet
Validated: 5
EndChar

StartChar: at
Encoding: 64 64 33
Width: 15
GlyphClass: 2
Flags: W
LayerCount: 2
Fore
SplineSet
9 0 m 1
 11 0 l 1
 11 -2 l 1
 9 -2 l 1
 7 -2 l 1
 5 -2 l 1
 3 -2 l 1
 3 0 l 1
 5 0 l 1
 7 0 l 1
 9 0 l 1
3 0 m 1
 1 0 l 1
 1 2 l 1
 1 4 l 1
 1 6 l 1
 1 8 l 1
 1 10 l 1
 3 10 l 1
 3 8 l 1
 3 6 l 1
 3 4 l 1
 3 2 l 1
 3 0 l 1
11 2 m 1
 9 2 l 1
 7 2 l 1
 5 2 l 1
 5 4 l 1
 5 6 l 1
 5 8 l 1
 7 8 l 1
 9 8 l 1
 9 6 l 1
 7 6 l 1
 7 4 l 1
 9 4 l 1
 11 4 l 1
 11 6 l 1
 11 8 l 1
 11 10 l 1
 13 10 l 1
 13 8 l 1
 13 6 l 1
 13 4 l 1
 13 2 l 1
 11 2 l 1
11 10 m 1
 9 10 l 1
 7 10 l 1
 5 10 l 1
 3 10 l 1
 3 12 l 1
 5 12 l 1
 7 12 l 1
 9 12 l 1
 11 12 l 1
 11 10 l 1
EndSplineSet
Validated: 5
EndChar

StartChar: A
Encoding: 65 65 34
Width: 13
GlyphClass: 2
Flags: W
LayerCount: 2
Fore
SplineSet
9 0 m 1
 9 2 l 1
 9 4 l 1
 9 6 l 1
 9 8 l 1
 7 8 l 1
 5 8 l 1
 3 8 l 1
 3 6 l 1
 3 4 l 1
 3 2 l 1
 3 0 l 1
 1 0 l 1
 1 2 l 1
 1 4 l 1
 1 6 l 1
 1 8 l 1
 1 10 l 1
 1 12 l 1
 3 12 l 1
 3 10 l 1
 5 10 l 1
 7 10 l 1
 9 10 l 1
 9 12 l 1
 11 12 l 1
 11 10 l 1
 11 8 l 1
 11 6 l 1
 11 4 l 1
 11 2 l 1
 11 0 l 1
 9 0 l 1
9 12 m 1
 7 12 l 1
 5 12 l 1
 3 12 l 1
 3 14 l 1
 5 14 l 1
 7 14 l 1
 9 14 l 1
 9 12 l 1
EndSplineSet
Validated: 5
EndChar

StartChar: B
Encoding: 66 66 35
Width: 13
GlyphClass: 2
Flags: W
LayerCount: 2
Fore
SplineSet
7 2 m 1
 9 2 l 1
 9 4 l 1
 9 6 l 1
 9 8 l 1
 7 8 l 1
 5 8 l 1
 3 8 l 1
 3 6 l 1
 3 4 l 1
 3 2 l 1
 5 2 l 1
 7 2 l 1
7 0 m 1
 5 0 l 1
 3 0 l 1
 1 0 l 1
 1 2 l 1
 1 4 l 1
 1 6 l 1
 1 8 l 1
 1 10 l 1
 1 12 l 1
 1 14 l 1
 3 14 l 1
 5 14 l 1
 7 14 l 1
 9 14 l 1
 9 12 l 1
 11 12 l 1
 11 10 l 1
 9 10 l 1
 9 12 l 1
 7 12 l 1
 5 12 l 1
 3 12 l 1
 3 10 l 1
 5 10 l 1
 7 10 l 1
 9 10 l 1
 9 8 l 1
 11 8 l 1
 11 6 l 1
 11 4 l 1
 11 2 l 1
 9 2 l 1
 9 0 l 1
 7 0 l 1
EndSplineSet
Validated: 5
EndChar

StartChar: C
Encoding: 67 67 36
Width: 13
GlyphClass: 2
Flags: W
LayerCount: 2
Fore
SplineSet
9 10 m 1
 9 12 l 1
 11 12 l 1
 11 10 l 1
 9 10 l 1
7 2 m 1
 9 2 l 1
 9 0 l 1
 7 0 l 1
 5 0 l 1
 3 0 l 1
 3 2 l 1
 5 2 l 1
 7 2 l 1
9 2 m 1
 9 4 l 1
 11 4 l 1
 11 2 l 1
 9 2 l 1
3 2 m 1
 1 2 l 1
 1 4 l 1
 1 6 l 1
 1 8 l 1
 1 10 l 1
 1 12 l 1
 3 12 l 1
 3 10 l 1
 3 8 l 1
 3 6 l 1
 3 4 l 1
 3 2 l 1
9 12 m 1
 7 12 l 1
 5 12 l 1
 3 12 l 1
 3 14 l 1
 5 14 l 1
 7 14 l 1
 9 14 l 1
 9 12 l 1
EndSplineSet
Validated: 5
EndChar

StartChar: D
Encoding: 68 68 37
Width: 13
GlyphClass: 2
Flags: W
LayerCount: 2
Fore
SplineSet
7 2 m 5
 9 2 l 5
 9 4 l 5
 9 6 l 5
 9 8 l 5
 9 10 l 5
 9 12 l 5
 7 12 l 5
 5 12 l 5
 3 12 l 5
 3 10 l 5
 3 8 l 5
 3 6 l 5
 3 4 l 5
 3 2 l 5
 5 2 l 5
 7 2 l 5
7 0 m 5
 5 0 l 5
 3 0 l 5
 1 0 l 5
 1 2 l 5
 1 4 l 5
 1 6 l 5
 1 8 l 5
 1 10 l 5
 1 12 l 5
 1 14 l 5
 3 14 l 5
 5 14 l 5
 7 14 l 5
 9 14 l 5
 9 12 l 5
 11 12 l 5
 11 10 l 5
 11 8 l 5
 11 6 l 5
 11 4 l 5
 11 2 l 5
 9 2 l 5
 9 0 l 5
 7 0 l 5
EndSplineSet
Validated: 5
EndChar

StartChar: E
Encoding: 69 69 38
Width: 13
GlyphClass: 2
Flags: W
LayerCount: 2
Fore
SplineSet
9 2 m 1
 11 2 l 1
 11 0 l 1
 9 0 l 1
 7 0 l 1
 5 0 l 1
 3 0 l 1
 1 0 l 1
 1 2 l 1
 1 4 l 1
 1 6 l 1
 1 8 l 1
 1 10 l 1
 1 12 l 1
 1 14 l 1
 3 14 l 1
 5 14 l 1
 7 14 l 1
 9 14 l 1
 11 14 l 1
 11 12 l 1
 9 12 l 1
 7 12 l 1
 5 12 l 1
 3 12 l 1
 3 10 l 1
 5 10 l 1
 7 10 l 1
 7 8 l 1
 5 8 l 1
 3 8 l 1
 3 6 l 1
 3 4 l 1
 3 2 l 1
 5 2 l 1
 7 2 l 1
 9 2 l 1
EndSplineSet
Validated: 1
EndChar

StartChar: F
Encoding: 70 70 39
Width: 13
GlyphClass: 2
Flags: W
LayerCount: 2
Fore
SplineSet
1 0 m 1
 1 2 l 1
 1 4 l 1
 1 6 l 1
 1 8 l 1
 1 10 l 1
 1 12 l 1
 1 14 l 1
 3 14 l 1
 5 14 l 1
 7 14 l 1
 9 14 l 1
 11 14 l 1
 11 12 l 1
 9 12 l 1
 7 12 l 1
 5 12 l 1
 3 12 l 1
 3 10 l 1
 5 10 l 1
 7 10 l 1
 7 8 l 1
 5 8 l 1
 3 8 l 1
 3 6 l 1
 3 4 l 1
 3 2 l 1
 3 0 l 1
 1 0 l 1
EndSplineSet
Validated: 1
EndChar

StartChar: G
Encoding: 71 71 40
Width: 13
GlyphClass: 2
Flags: W
LayerCount: 2
Fore
SplineSet
7 2 m 1
 9 2 l 1
 9 0 l 1
 7 0 l 1
 5 0 l 1
 3 0 l 1
 3 2 l 1
 5 2 l 1
 7 2 l 1
9 2 m 1
 9 4 l 1
 9 6 l 1
 9 8 l 1
 7 8 l 1
 7 10 l 1
 9 10 l 1
 11 10 l 1
 11 8 l 1
 11 6 l 1
 11 4 l 1
 11 2 l 1
 9 2 l 1
3 2 m 1
 1 2 l 1
 1 4 l 1
 1 6 l 1
 1 8 l 1
 1 10 l 1
 1 12 l 1
 3 12 l 1
 3 10 l 1
 3 8 l 1
 3 6 l 1
 3 4 l 1
 3 2 l 1
9 14 m 1
 11 14 l 1
 11 12 l 1
 9 12 l 1
 7 12 l 1
 5 12 l 1
 3 12 l 1
 3 14 l 1
 5 14 l 1
 7 14 l 1
 9 14 l 1
EndSplineSet
Validated: 5
EndChar

StartChar: H
Encoding: 72 72 41
Width: 13
GlyphClass: 2
Flags: W
LayerCount: 2
Fore
SplineSet
9 0 m 1
 9 2 l 1
 9 4 l 1
 9 6 l 1
 9 8 l 1
 7 8 l 1
 5 8 l 1
 3 8 l 1
 3 6 l 1
 3 4 l 1
 3 2 l 1
 3 0 l 1
 1 0 l 1
 1 2 l 1
 1 4 l 1
 1 6 l 1
 1 8 l 1
 1 10 l 1
 1 12 l 1
 1 14 l 1
 3 14 l 1
 3 12 l 1
 3 10 l 1
 5 10 l 1
 7 10 l 1
 9 10 l 1
 9 12 l 1
 9 14 l 1
 11 14 l 1
 11 12 l 1
 11 10 l 1
 11 8 l 1
 11 6 l 1
 11 4 l 1
 11 2 l 1
 11 0 l 1
 9 0 l 1
EndSplineSet
Validated: 1
EndChar

StartChar: I
Encoding: 73 73 42
Width: 9
GlyphClass: 2
Flags: W
LayerCount: 2
Fore
SplineSet
5 0 m 1
 3 0 l 1
 1 0 l 1
 1 2 l 1
 3 2 l 1
 3 4 l 1
 3 6 l 1
 3 8 l 1
 3 10 l 1
 3 12 l 1
 1 12 l 1
 1 14 l 1
 3 14 l 1
 5 14 l 1
 7 14 l 1
 7 12 l 1
 5 12 l 1
 5 10 l 1
 5 8 l 1
 5 6 l 1
 5 4 l 1
 5 2 l 1
 7 2 l 1
 7 0 l 1
 5 0 l 1
EndSplineSet
Validated: 1
EndChar

StartChar: J
Encoding: 74 74 43
Width: 13
GlyphClass: 2
Flags: W
LayerCount: 2
Fore
SplineSet
7 2 m 1
 9 2 l 1
 9 0 l 1
 7 0 l 1
 5 0 l 1
 3 0 l 1
 3 2 l 1
 5 2 l 1
 7 2 l 1
9 2 m 1
 9 4 l 1
 9 6 l 1
 9 8 l 1
 9 10 l 1
 9 12 l 1
 9 14 l 1
 11 14 l 1
 11 12 l 1
 11 10 l 1
 11 8 l 1
 11 6 l 1
 11 4 l 1
 11 2 l 1
 9 2 l 1
3 2 m 1
 1 2 l 1
 1 4 l 1
 3 4 l 1
 3 2 l 1
EndSplineSet
Validated: 5
EndChar

StartChar: K
Encoding: 75 75 44
Width: 13
GlyphClass: 2
Flags: W
LayerCount: 2
Fore
SplineSet
9 0 m 1
 9 2 l 1
 9 4 l 1
 9 6 l 1
 11 6 l 1
 11 4 l 1
 11 2 l 1
 11 0 l 1
 9 0 l 1
1 0 m 1
 1 2 l 1
 1 4 l 1
 1 6 l 1
 1 8 l 1
 1 10 l 1
 1 12 l 1
 1 14 l 1
 3 14 l 1
 3 12 l 1
 3 10 l 1
 5 10 l 1
 7 10 l 1
 7 8 l 1
 9 8 l 1
 9 6 l 1
 7 6 l 1
 7 8 l 1
 5 8 l 1
 3 8 l 1
 3 6 l 1
 3 4 l 1
 3 2 l 1
 3 0 l 1
 1 0 l 1
7 10 m 1
 7 12 l 1
 9 12 l 1
 9 10 l 1
 7 10 l 1
9 12 m 1
 9 14 l 1
 11 14 l 1
 11 12 l 1
 9 12 l 1
EndSplineSet
Validated: 5
EndChar

StartChar: L
Encoding: 76 76 45
Width: 13
GlyphClass: 2
Flags: W
LayerCount: 2
Fore
SplineSet
9 2 m 1
 11 2 l 1
 11 0 l 1
 9 0 l 1
 7 0 l 1
 5 0 l 1
 3 0 l 1
 1 0 l 1
 1 2 l 1
 1 4 l 1
 1 6 l 1
 1 8 l 1
 1 10 l 1
 1 12 l 1
 1 14 l 1
 3 14 l 1
 3 12 l 1
 3 10 l 1
 3 8 l 1
 3 6 l 1
 3 4 l 1
 3 2 l 1
 5 2 l 1
 7 2 l 1
 9 2 l 1
EndSplineSet
Validated: 1
EndChar

StartChar: M
Encoding: 77 77 46
Width: 13
GlyphClass: 2
Flags: W
LayerCount: 2
Fore
SplineSet
9 0 m 1
 9 2 l 1
 9 4 l 1
 9 6 l 1
 9 8 l 1
 9 10 l 1
 7 10 l 1
 7 8 l 1
 5 8 l 1
 5 10 l 1
 7 10 l 1
 7 12 l 1
 9 12 l 1
 9 14 l 1
 11 14 l 1
 11 12 l 1
 11 10 l 1
 11 8 l 1
 11 6 l 1
 11 4 l 1
 11 2 l 1
 11 0 l 1
 9 0 l 1
1 0 m 1
 1 2 l 1
 1 4 l 1
 1 6 l 1
 1 8 l 1
 1 10 l 1
 1 12 l 1
 1 14 l 1
 3 14 l 1
 3 12 l 1
 5 12 l 1
 5 10 l 1
 3 10 l 1
 3 8 l 1
 3 6 l 1
 3 4 l 1
 3 2 l 1
 3 0 l 1
 1 0 l 1
EndSplineSet
Validated: 5
EndChar

StartChar: N
Encoding: 78 78 47
Width: 13
GlyphClass: 2
Flags: W
LayerCount: 2
Fore
SplineSet
9 0 m 1
 9 2 l 1
 9 4 l 1
 9 6 l 1
 7 6 l 1
 7 8 l 1
 9 8 l 1
 9 10 l 1
 9 12 l 1
 9 14 l 1
 11 14 l 1
 11 12 l 1
 11 10 l 1
 11 8 l 1
 11 6 l 1
 11 4 l 1
 11 2 l 1
 11 0 l 1
 9 0 l 1
1 0 m 1
 1 2 l 1
 1 4 l 1
 1 6 l 1
 1 8 l 1
 1 10 l 1
 1 12 l 1
 1 14 l 1
 3 14 l 1
 3 12 l 1
 5 12 l 1
 5 10 l 1
 7 10 l 1
 7 8 l 1
 5 8 l 1
 5 10 l 1
 3 10 l 1
 3 8 l 1
 3 6 l 1
 3 4 l 1
 3 2 l 1
 3 0 l 1
 1 0 l 1
EndSplineSet
Validated: 5
EndChar

StartChar: O
Encoding: 79 79 48
Width: 13
GlyphClass: 2
Flags: W
LayerCount: 2
Fore
SplineSet
7 2 m 5
 9 2 l 5
 9 0 l 5
 7 0 l 5
 5 0 l 5
 3 0 l 5
 3 2 l 5
 5 2 l 5
 7 2 l 5
9 2 m 5
 9 4 l 5
 9 6 l 5
 9 8 l 5
 9 10 l 5
 9 12 l 5
 11 12 l 5
 11 10 l 5
 11 8 l 5
 11 6 l 5
 11 4 l 5
 11 2 l 5
 9 2 l 5
3 2 m 5
 1 2 l 5
 1 4 l 5
 1 6 l 5
 1 8 l 5
 1 10 l 5
 1 12 l 5
 3 12 l 5
 3 10 l 5
 3 8 l 5
 3 6 l 5
 3 4 l 5
 3 2 l 5
9 12 m 5
 7 12 l 5
 5 12 l 5
 3 12 l 5
 3 14 l 5
 5 14 l 5
 7 14 l 5
 9 14 l 5
 9 12 l 5
EndSplineSet
Validated: 5
EndChar

StartChar: P
Encoding: 80 80 49
Width: 13
GlyphClass: 2
Flags: W
LayerCount: 2
Fore
SplineSet
1 0 m 1
 1 2 l 1
 1 4 l 1
 1 6 l 1
 1 8 l 1
 1 10 l 1
 1 12 l 1
 1 14 l 1
 3 14 l 1
 5 14 l 1
 7 14 l 1
 9 14 l 1
 9 12 l 1
 11 12 l 1
 11 10 l 1
 9 10 l 1
 9 12 l 1
 7 12 l 1
 5 12 l 1
 3 12 l 1
 3 10 l 1
 5 10 l 1
 7 10 l 1
 9 10 l 1
 9 8 l 1
 7 8 l 1
 5 8 l 1
 3 8 l 1
 3 6 l 1
 3 4 l 1
 3 2 l 1
 3 0 l 1
 1 0 l 1
EndSplineSet
Validated: 5
EndChar

StartChar: Q
Encoding: 81 81 50
Width: 13
GlyphClass: 2
Flags: W
LayerCount: 2
Fore
SplineSet
9 0 m 1
 9 2 l 1
 11 2 l 1
 11 0 l 1
 9 0 l 1
5 2 m 1
 7 2 l 1
 7 0 l 1
 5 0 l 1
 3 0 l 1
 3 2 l 1
 5 2 l 1
9 2 m 1
 7 2 l 1
 7 4 l 1
 9 4 l 1
 9 2 l 1
3 2 m 1
 1 2 l 1
 1 4 l 1
 1 6 l 1
 1 8 l 1
 1 10 l 1
 1 12 l 1
 3 12 l 1
 3 10 l 1
 3 8 l 1
 3 6 l 1
 3 4 l 1
 3 2 l 1
9 4 m 1
 9 6 l 1
 9 8 l 1
 9 10 l 1
 9 12 l 1
 11 12 l 1
 11 10 l 1
 11 8 l 1
 11 6 l 1
 11 4 l 1
 9 4 l 1
9 12 m 1
 7 12 l 1
 5 12 l 1
 3 12 l 1
 3 14 l 1
 5 14 l 1
 7 14 l 1
 9 14 l 1
 9 12 l 1
EndSplineSet
Validated: 5
EndChar

StartChar: R
Encoding: 82 82 51
Width: 13
GlyphClass: 2
Flags: W
LayerCount: 2
Fore
SplineSet
9 0 m 1
 9 2 l 1
 9 4 l 1
 9 6 l 1
 9 8 l 1
 11 8 l 1
 11 6 l 1
 11 4 l 1
 11 2 l 1
 11 0 l 1
 9 0 l 1
1 0 m 1
 1 2 l 1
 1 4 l 1
 1 6 l 1
 1 8 l 1
 1 10 l 1
 1 12 l 1
 1 14 l 1
 3 14 l 1
 5 14 l 1
 7 14 l 1
 9 14 l 1
 9 12 l 1
 11 12 l 1
 11 10 l 1
 9 10 l 1
 9 12 l 1
 7 12 l 1
 5 12 l 1
 3 12 l 1
 3 10 l 1
 5 10 l 1
 7 10 l 1
 9 10 l 1
 9 8 l 1
 7 8 l 1
 5 8 l 1
 3 8 l 1
 3 6 l 1
 3 4 l 1
 3 2 l 1
 3 0 l 1
 1 0 l 1
EndSplineSet
Validated: 5
EndChar

StartChar: S
Encoding: 83 83 52
Width: 13
GlyphClass: 2
Flags: W
LayerCount: 2
Fore
SplineSet
7 2 m 1
 9 2 l 1
 9 0 l 1
 7 0 l 1
 5 0 l 1
 3 0 l 1
 3 2 l 1
 5 2 l 1
 7 2 l 1
9 2 m 1
 9 4 l 1
 9 6 l 1
 9 8 l 1
 11 8 l 1
 11 6 l 1
 11 4 l 1
 11 2 l 1
 9 2 l 1
3 2 m 1
 1 2 l 1
 1 4 l 1
 3 4 l 1
 3 2 l 1
9 8 m 1
 7 8 l 1
 5 8 l 1
 3 8 l 1
 3 10 l 1
 5 10 l 1
 7 10 l 1
 9 10 l 1
 9 8 l 1
3 10 m 1
 1 10 l 1
 1 12 l 1
 3 12 l 1
 3 10 l 1
9 14 m 1
 11 14 l 1
 11 12 l 1
 9 12 l 1
 7 12 l 1
 5 12 l 1
 3 12 l 1
 3 14 l 1
 5 14 l 1
 7 14 l 1
 9 14 l 1
EndSplineSet
Validated: 5
EndChar

StartChar: T
Encoding: 84 84 53
Width: 13
GlyphClass: 2
Flags: W
LayerCount: 2
Fore
SplineSet
5 0 m 1
 5 2 l 1
 5 4 l 1
 5 6 l 1
 5 8 l 1
 5 10 l 1
 5 12 l 1
 3 12 l 1
 1 12 l 1
 1 14 l 1
 3 14 l 1
 5 14 l 1
 7 14 l 1
 9 14 l 1
 11 14 l 1
 11 12 l 1
 9 12 l 1
 7 12 l 1
 7 10 l 1
 7 8 l 1
 7 6 l 1
 7 4 l 1
 7 2 l 1
 7 0 l 1
 5 0 l 1
EndSplineSet
Validated: 1
EndChar

StartChar: U
Encoding: 85 85 54
Width: 13
GlyphClass: 2
Flags: W
LayerCount: 2
Fore
SplineSet
7 2 m 5
 9 2 l 5
 9 0 l 5
 7 0 l 5
 5 0 l 5
 3 0 l 5
 3 2 l 5
 5 2 l 5
 7 2 l 5
9 2 m 5
 9 4 l 5
 9 6 l 5
 9 8 l 5
 9 10 l 5
 9 12 l 5
 9 14 l 5
 11 14 l 5
 11 12 l 5
 11 10 l 5
 11 8 l 5
 11 6 l 5
 11 4 l 5
 11 2 l 5
 9 2 l 5
3 2 m 5
 1 2 l 5
 1 4 l 5
 1 6 l 5
 1 8 l 5
 1 10 l 5
 1 12 l 5
 1 14 l 5
 3 14 l 5
 3 12 l 5
 3 10 l 5
 3 8 l 5
 3 6 l 5
 3 4 l 5
 3 2 l 5
EndSplineSet
Validated: 5
EndChar

StartChar: V
Encoding: 86 86 55
Width: 13
GlyphClass: 2
Flags: W
LayerCount: 2
Fore
SplineSet
5 0 m 1
 5 2 l 1
 7 2 l 1
 7 0 l 1
 5 0 l 1
7 2 m 1
 7 4 l 1
 7 6 l 1
 9 6 l 1
 9 4 l 1
 9 2 l 1
 7 2 l 1
5 2 m 1
 3 2 l 1
 3 4 l 1
 3 6 l 1
 5 6 l 1
 5 4 l 1
 5 2 l 1
9 6 m 1
 9 8 l 1
 9 10 l 1
 9 12 l 1
 9 14 l 1
 11 14 l 1
 11 12 l 1
 11 10 l 1
 11 8 l 1
 11 6 l 1
 9 6 l 1
3 6 m 1
 1 6 l 1
 1 8 l 1
 1 10 l 1
 1 12 l 1
 1 14 l 1
 3 14 l 1
 3 12 l 1
 3 10 l 1
 3 8 l 1
 3 6 l 1
EndSplineSet
Validated: 5
EndChar

StartChar: W
Encoding: 87 87 56
Width: 13
GlyphClass: 2
Flags: W
LayerCount: 2
Fore
SplineSet
9 0 m 1
 9 2 l 1
 7 2 l 1
 7 4 l 1
 9 4 l 1
 9 6 l 1
 9 8 l 1
 9 10 l 1
 9 12 l 1
 9 14 l 1
 11 14 l 1
 11 12 l 1
 11 10 l 1
 11 8 l 1
 11 6 l 1
 11 4 l 1
 11 2 l 1
 11 0 l 1
 9 0 l 1
1 0 m 1
 1 2 l 1
 1 4 l 1
 1 6 l 1
 1 8 l 1
 1 10 l 1
 1 12 l 1
 1 14 l 1
 3 14 l 1
 3 12 l 1
 3 10 l 1
 3 8 l 1
 3 6 l 1
 3 4 l 1
 5 4 l 1
 5 2 l 1
 3 2 l 1
 3 0 l 1
 1 0 l 1
7 4 m 1
 5 4 l 1
 5 6 l 1
 7 6 l 1
 7 4 l 1
EndSplineSet
Validated: 5
EndChar

StartChar: X
Encoding: 88 88 57
Width: 13
GlyphClass: 2
Flags: W
LayerCount: 2
Fore
SplineSet
9 0 m 1
 9 2 l 1
 9 4 l 1
 9 6 l 1
 11 6 l 1
 11 4 l 1
 11 2 l 1
 11 0 l 1
 9 0 l 1
1 0 m 1
 1 2 l 1
 1 4 l 1
 1 6 l 1
 3 6 l 1
 3 4 l 1
 3 2 l 1
 3 0 l 1
 1 0 l 1
9 6 m 1
 7 6 l 1
 7 8 l 1
 9 8 l 1
 9 6 l 1
3 6 m 1
 3 8 l 1
 5 8 l 1
 5 6 l 1
 3 6 l 1
7 8 m 1
 5 8 l 1
 5 10 l 1
 7 10 l 1
 7 8 l 1
7 10 m 1
 7 12 l 1
 9 12 l 1
 9 10 l 1
 7 10 l 1
5 10 m 1
 3 10 l 1
 3 12 l 1
 5 12 l 1
 5 10 l 1
9 12 m 1
 9 14 l 1
 11 14 l 1
 11 12 l 1
 9 12 l 1
3 12 m 1
 1 12 l 1
 1 14 l 1
 3 14 l 1
 3 12 l 1
EndSplineSet
Validated: 5
EndChar

StartChar: Y
Encoding: 89 89 58
Width: 13
GlyphClass: 2
Flags: W
LayerCount: 2
Fore
SplineSet
5 0 m 1
 5 2 l 1
 5 4 l 1
 5 6 l 1
 5 8 l 1
 5 10 l 1
 7 10 l 1
 7 8 l 1
 7 6 l 1
 7 4 l 1
 7 2 l 1
 7 0 l 1
 5 0 l 1
7 10 m 1
 7 12 l 1
 9 12 l 1
 9 10 l 1
 7 10 l 1
5 10 m 1
 3 10 l 1
 3 12 l 1
 5 12 l 1
 5 10 l 1
9 12 m 1
 9 14 l 1
 11 14 l 1
 11 12 l 1
 9 12 l 1
3 12 m 1
 1 12 l 1
 1 14 l 1
 3 14 l 1
 3 12 l 1
EndSplineSet
Validated: 5
EndChar

StartChar: Z
Encoding: 90 90 59
Width: 13
GlyphClass: 2
Flags: W
LayerCount: 2
Fore
SplineSet
9 2 m 1
 11 2 l 1
 11 0 l 1
 9 0 l 1
 7 0 l 1
 5 0 l 1
 3 0 l 1
 1 0 l 1
 1 2 l 1
 1 4 l 1
 3 4 l 1
 3 2 l 1
 5 2 l 1
 7 2 l 1
 9 2 l 1
3 4 m 1
 3 6 l 1
 5 6 l 1
 5 4 l 1
 3 4 l 1
5 6 m 1
 5 8 l 1
 7 8 l 1
 7 6 l 1
 5 6 l 1
7 8 m 1
 7 10 l 1
 9 10 l 1
 9 8 l 1
 7 8 l 1
9 10 m 1
 9 12 l 1
 7 12 l 1
 5 12 l 1
 3 12 l 1
 1 12 l 1
 1 14 l 1
 3 14 l 1
 5 14 l 1
 7 14 l 1
 9 14 l 1
 11 14 l 1
 11 12 l 1
 11 10 l 1
 9 10 l 1
EndSplineSet
Validated: 5
EndChar

StartChar: bracketleft
Encoding: 91 91 60
Width: 9
GlyphClass: 2
Flags: W
LayerCount: 2
Fore
SplineSet
5 2 m 1
 7 2 l 1
 7 0 l 1
 5 0 l 1
 3 0 l 1
 1 0 l 1
 1 2 l 1
 1 4 l 1
 1 6 l 1
 1 8 l 1
 1 10 l 1
 1 12 l 1
 1 14 l 1
 3 14 l 1
 5 14 l 1
 7 14 l 1
 7 12 l 1
 5 12 l 1
 3 12 l 1
 3 10 l 1
 3 8 l 1
 3 6 l 1
 3 4 l 1
 3 2 l 1
 5 2 l 1
EndSplineSet
Validated: 1
EndChar

StartChar: backslash
Encoding: 92 92 61
Width: 13
GlyphClass: 2
Flags: W
LayerCount: 2
Fore
SplineSet
9 0 m 1
 9 2 l 1
 11 2 l 1
 11 0 l 1
 9 0 l 1
9 2 m 1
 7 2 l 1
 7 4 l 1
 7 6 l 1
 9 6 l 1
 9 4 l 1
 9 2 l 1
7 6 m 1
 5 6 l 1
 5 8 l 1
 7 8 l 1
 7 6 l 1
5 8 m 1
 3 8 l 1
 3 10 l 1
 3 12 l 1
 5 12 l 1
 5 10 l 1
 5 8 l 1
3 12 m 1
 1 12 l 1
 1 14 l 1
 3 14 l 1
 3 12 l 1
EndSplineSet
Validated: 5
EndChar

StartChar: bracketright
Encoding: 93 93 62
Width: 9
GlyphClass: 2
Flags: W
LayerCount: 2
Fore
SplineSet
5 0 m 1
 3 0 l 1
 1 0 l 1
 1 2 l 1
 3 2 l 1
 5 2 l 1
 5 4 l 1
 5 6 l 1
 5 8 l 1
 5 10 l 1
 5 12 l 1
 3 12 l 1
 1 12 l 1
 1 14 l 1
 3 14 l 1
 5 14 l 1
 7 14 l 1
 7 12 l 1
 7 10 l 1
 7 8 l 1
 7 6 l 1
 7 4 l 1
 7 2 l 1
 7 0 l 1
 5 0 l 1
EndSplineSet
Validated: 1
EndChar

StartChar: asciicircum
Encoding: 94 94 63
Width: 13
GlyphClass: 2
Flags: W
LayerCount: 2
Fore
SplineSet
9 8 m 1
 9 10 l 1
 11 10 l 1
 11 8 l 1
 9 8 l 1
1 8 m 1
 1 10 l 1
 3 10 l 1
 3 8 l 1
 1 8 l 1
9 10 m 1
 7 10 l 1
 7 12 l 1
 9 12 l 1
 9 10 l 1
3 10 m 1
 3 12 l 1
 5 12 l 1
 5 10 l 1
 3 10 l 1
7 12 m 1
 5 12 l 1
 5 14 l 1
 7 14 l 1
 7 12 l 1
EndSplineSet
Validated: 5
EndChar

StartChar: underscore
Encoding: 95 95 64
Width: 13
GlyphClass: 2
Flags: W
LayerCount: 2
Fore
SplineSet
9 0 m 1
 11 0 l 1
 11 -2 l 1
 9 -2 l 1
 7 -2 l 1
 5 -2 l 1
 3 -2 l 1
 1 -2 l 1
 1 0 l 1
 3 0 l 1
 5 0 l 1
 7 0 l 1
 9 0 l 1
EndSplineSet
Validated: 1
EndChar

StartChar: grave
Encoding: 96 96 65
Width: 7
GlyphClass: 2
Flags: W
HStem: 10 2<3 5> 12 2<1 3>
VStem: 1 2<12 14> 3 2<10 12>
LayerCount: 2
Fore
SplineSet
3 10 m 1x90
 3 12 l 1xa0
 5 12 l 1
 5 10 l 1
 3 10 l 1x90
3 12 m 1
 1 12 l 1
 1 14 l 1
 3 14 l 1x60
 3 12 l 1
EndSplineSet
Validated: 5
EndChar

StartChar: a
Encoding: 97 97 66
Width: 13
GlyphClass: 2
Flags: W
LayerCount: 2
Fore
SplineSet
9 0 m 5
 7 0 l 5
 5 0 l 5
 3 0 l 5
 3 2 l 5
 1 2 l 5
 1 4 l 5
 3 4 l 5
 3 6 l 5
 5 6 l 5
 7 6 l 5
 9 6 l 5
 9 8 l 5
 11 8 l 5
 11 6 l 5
 11 4 l 5
 11 2 l 5
 11 0 l 5
 9 0 l 5
7 2 m 5
 9 2 l 5
 9 4 l 5
 7 4 l 5
 5 4 l 5
 3 4 l 5
 3 2 l 5
 5 2 l 5
 7 2 l 5
9 8 m 5
 7 8 l 5
 5 8 l 5
 3 8 l 5
 3 10 l 5
 5 10 l 5
 7 10 l 5
 9 10 l 5
 9 8 l 5
EndSplineSet
Validated: 5
EndChar

StartChar: b
Encoding: 98 98 67
Width: 13
GlyphClass: 2
Flags: W
LayerCount: 2
Fore
SplineSet
7 2 m 1
 9 2 l 1
 9 0 l 1
 7 0 l 1
 5 0 l 1
 3 0 l 1
 1 0 l 1
 1 2 l 1
 1 4 l 1
 1 6 l 1
 1 8 l 1
 1 10 l 1
 1 12 l 1
 1 14 l 1
 3 14 l 1
 3 12 l 1
 3 10 l 1
 3 8 l 1
 5 8 l 1
 5 6 l 1
 3 6 l 1
 3 4 l 1
 3 2 l 1
 5 2 l 1
 7 2 l 1
9 2 m 1
 9 4 l 1
 9 6 l 1
 9 8 l 1
 11 8 l 1
 11 6 l 1
 11 4 l 1
 11 2 l 1
 9 2 l 1
9 8 m 1
 7 8 l 1
 5 8 l 1
 5 10 l 1
 7 10 l 1
 9 10 l 1
 9 8 l 1
EndSplineSet
Validated: 5
EndChar

StartChar: c
Encoding: 99 99 68
Width: 13
GlyphClass: 2
Flags: W
LayerCount: 2
Fore
SplineSet
9 6 m 1
 9 8 l 1
 11 8 l 1
 11 6 l 1
 9 6 l 1
7 2 m 1
 9 2 l 1
 9 0 l 1
 7 0 l 1
 5 0 l 1
 3 0 l 1
 3 2 l 1
 5 2 l 1
 7 2 l 1
9 2 m 1
 9 4 l 1
 11 4 l 1
 11 2 l 1
 9 2 l 1
3 2 m 1
 1 2 l 1
 1 4 l 1
 1 6 l 1
 1 8 l 1
 3 8 l 1
 3 6 l 1
 3 4 l 1
 3 2 l 1
9 8 m 1
 7 8 l 1
 5 8 l 1
 3 8 l 1
 3 10 l 1
 5 10 l 1
 7 10 l 1
 9 10 l 1
 9 8 l 1
EndSplineSet
Validated: 5
EndChar

StartChar: d
Encoding: 100 100 69
Width: 13
GlyphClass: 2
Flags: W
LayerCount: 2
Fore
SplineSet
9 0 m 5
 7 0 l 5
 5 0 l 5
 3 0 l 5
 3 2 l 5
 5 2 l 5
 7 2 l 5
 9 2 l 5
 9 4 l 5
 9 6 l 5
 7 6 l 5
 7 8 l 5
 9 8 l 5
 9 10 l 5
 9 12 l 5
 9 14 l 5
 11 14 l 5
 11 12 l 5
 11 10 l 5
 11 8 l 5
 11 6 l 5
 11 4 l 5
 11 2 l 5
 11 0 l 5
 9 0 l 5
3 2 m 5
 1 2 l 5
 1 4 l 5
 1 6 l 5
 1 8 l 5
 3 8 l 5
 3 6 l 5
 3 4 l 5
 3 2 l 5
7 8 m 5
 5 8 l 5
 3 8 l 5
 3 10 l 5
 5 10 l 5
 7 10 l 5
 7 8 l 5
EndSplineSet
Validated: 5
EndChar

StartChar: e
Encoding: 101 101 70
Width: 13
GlyphClass: 2
Flags: W
LayerCount: 2
Fore
SplineSet
9 2 m 5
 11 2 l 5
 11 0 l 5
 9 0 l 5
 7 0 l 5
 5 0 l 5
 3 0 l 5
 3 2 l 5
 5 2 l 5
 7 2 l 5
 9 2 l 5
3 2 m 5
 1 2 l 5
 1 4 l 5
 1 6 l 5
 1 8 l 5
 3 8 l 5
 3 6 l 5
 5 6 l 5
 7 6 l 5
 9 6 l 5
 9 8 l 5
 11 8 l 5
 11 6 l 5
 11 4 l 5
 9 4 l 5
 7 4 l 5
 5 4 l 5
 3 4 l 5
 3 2 l 5
9 8 m 5
 7 8 l 5
 5 8 l 5
 3 8 l 5
 3 10 l 5
 5 10 l 5
 7 10 l 5
 9 10 l 5
 9 8 l 5
EndSplineSet
Validated: 5
EndChar

StartChar: f
Encoding: 102 102 71
Width: 11
GlyphClass: 2
Flags: W
LayerCount: 2
Fore
SplineSet
3 0 m 1
 3 2 l 1
 3 4 l 1
 3 6 l 1
 3 8 l 1
 1 8 l 1
 1 10 l 1
 3 10 l 1
 3 12 l 1
 5 12 l 1
 5 10 l 1
 7 10 l 1
 9 10 l 1
 9 8 l 1
 7 8 l 1
 5 8 l 1
 5 6 l 1
 5 4 l 1
 5 2 l 1
 5 0 l 1
 3 0 l 1
7 14 m 1
 9 14 l 1
 9 12 l 1
 7 12 l 1
 5 12 l 1
 5 14 l 1
 7 14 l 1
EndSplineSet
Validated: 5
EndChar

StartChar: g
Encoding: 103 103 72
Width: 13
GlyphClass: 2
Flags: W
LayerCount: 2
Fore
SplineSet
7 0 m 1
 9 0 l 1
 9 -2 l 1
 7 -2 l 1
 5 -2 l 1
 3 -2 l 1
 1 -2 l 1
 1 0 l 1
 3 0 l 1
 5 0 l 1
 7 0 l 1
9 0 m 1
 9 2 l 1
 7 2 l 1
 5 2 l 1
 3 2 l 1
 3 4 l 1
 1 4 l 1
 1 6 l 1
 1 8 l 1
 3 8 l 1
 3 10 l 1
 5 10 l 1
 7 10 l 1
 9 10 l 1
 11 10 l 1
 11 8 l 1
 11 6 l 1
 11 4 l 1
 11 2 l 1
 11 0 l 1
 9 0 l 1
7 4 m 1
 9 4 l 1
 9 6 l 1
 9 8 l 1
 7 8 l 1
 5 8 l 1
 3 8 l 1
 3 6 l 1
 3 4 l 1
 5 4 l 1
 7 4 l 1
EndSplineSet
Validated: 5
EndChar

StartChar: h
Encoding: 104 104 73
Width: 13
GlyphClass: 2
Flags: W
LayerCount: 2
Fore
SplineSet
9 0 m 1
 9 2 l 1
 9 4 l 1
 9 6 l 1
 9 8 l 1
 11 8 l 1
 11 6 l 1
 11 4 l 1
 11 2 l 1
 11 0 l 1
 9 0 l 1
1 0 m 1
 1 2 l 1
 1 4 l 1
 1 6 l 1
 1 8 l 1
 1 10 l 1
 1 12 l 1
 1 14 l 1
 3 14 l 1
 3 12 l 1
 3 10 l 1
 3 8 l 1
 5 8 l 1
 5 6 l 1
 3 6 l 1
 3 4 l 1
 3 2 l 1
 3 0 l 1
 1 0 l 1
9 8 m 1
 7 8 l 1
 5 8 l 1
 5 10 l 1
 7 10 l 1
 9 10 l 1
 9 8 l 1
EndSplineSet
Validated: 5
EndChar

StartChar: i
Encoding: 105 105 74
Width: 5
GlyphClass: 2
Flags: W
LayerCount: 2
Fore
SplineSet
1 0 m 5
 1 2 l 5
 1 4 l 5
 1 6 l 5
 1 8 l 5
 1 10 l 5
 3 10 l 5
 3 8 l 5
 3 6 l 5
 3 4 l 5
 3 2 l 5
 3 0 l 5
 1 0 l 5
1 12 m 5
 1 14 l 5
 3 14 l 5
 3 12 l 5
 1 12 l 5
EndSplineSet
Validated: 1
EndChar

StartChar: j
Encoding: 106 106 75
Width: 13
GlyphClass: 2
Flags: W
LayerCount: 2
Fore
SplineSet
9 12 m 1
 9 14 l 1
 11 14 l 1
 11 12 l 1
 9 12 l 1
7 0 m 1
 9 0 l 1
 9 -2 l 1
 7 -2 l 1
 5 -2 l 1
 3 -2 l 1
 3 0 l 1
 5 0 l 1
 7 0 l 1
9 0 m 1
 9 2 l 1
 9 4 l 1
 9 6 l 1
 9 8 l 1
 9 10 l 1
 11 10 l 1
 11 8 l 1
 11 6 l 1
 11 4 l 1
 11 2 l 1
 11 0 l 1
 9 0 l 1
3 0 m 1
 1 0 l 1
 1 2 l 1
 1 4 l 1
 3 4 l 1
 3 2 l 1
 3 0 l 1
EndSplineSet
Validated: 5
EndChar

StartChar: k
Encoding: 107 107 76
Width: 11
GlyphClass: 2
Flags: W
LayerCount: 2
Fore
SplineSet
7 0 m 1
 7 2 l 1
 9 2 l 1
 9 0 l 1
 7 0 l 1
1 0 m 1
 1 2 l 1
 1 4 l 1
 1 6 l 1
 1 8 l 1
 1 10 l 1
 1 12 l 1
 1 14 l 1
 3 14 l 1
 3 12 l 1
 3 10 l 1
 3 8 l 1
 3 6 l 1
 5 6 l 1
 5 4 l 1
 7 4 l 1
 7 2 l 1
 5 2 l 1
 5 4 l 1
 3 4 l 1
 3 2 l 1
 3 0 l 1
 1 0 l 1
5 6 m 1
 5 8 l 1
 7 8 l 1
 7 6 l 1
 5 6 l 1
7 8 m 1
 7 10 l 1
 9 10 l 1
 9 8 l 1
 7 8 l 1
EndSplineSet
Validated: 5
EndChar

StartChar: l
Encoding: 108 108 77
Width: 7
GlyphClass: 2
Flags: W
LayerCount: 2
Fore
SplineSet
3 0 m 1
 3 2 l 1
 5 2 l 1
 5 0 l 1
 3 0 l 1
3 2 m 1
 1 2 l 1
 1 4 l 1
 1 6 l 1
 1 8 l 1
 1 10 l 1
 1 12 l 1
 1 14 l 1
 3 14 l 1
 3 12 l 1
 3 10 l 1
 3 8 l 1
 3 6 l 1
 3 4 l 1
 3 2 l 1
EndSplineSet
Validated: 5
EndChar

StartChar: m
Encoding: 109 109 78
Width: 13
GlyphClass: 2
Flags: W
LayerCount: 2
Fore
SplineSet
9 0 m 1
 9 2 l 1
 9 4 l 1
 9 6 l 1
 9 8 l 1
 11 8 l 1
 11 6 l 1
 11 4 l 1
 11 2 l 1
 11 0 l 1
 9 0 l 1
1 0 m 1
 1 2 l 1
 1 4 l 1
 1 6 l 1
 1 8 l 1
 1 10 l 1
 3 10 l 1
 5 10 l 1
 5 8 l 1
 7 8 l 1
 7 6 l 1
 7 4 l 1
 5 4 l 1
 5 6 l 1
 5 8 l 1
 3 8 l 1
 3 6 l 1
 3 4 l 1
 3 2 l 1
 3 0 l 1
 1 0 l 1
9 8 m 1
 7 8 l 1
 7 10 l 1
 9 10 l 1
 9 8 l 1
EndSplineSet
Validated: 5
EndChar

StartChar: n
Encoding: 110 110 79
Width: 13
GlyphClass: 2
Flags: W
LayerCount: 2
Fore
SplineSet
9 0 m 1
 9 2 l 1
 9 4 l 1
 9 6 l 1
 9 8 l 1
 11 8 l 1
 11 6 l 1
 11 4 l 1
 11 2 l 1
 11 0 l 1
 9 0 l 1
1 0 m 1
 1 2 l 1
 1 4 l 1
 1 6 l 1
 1 8 l 1
 1 10 l 1
 3 10 l 1
 5 10 l 1
 7 10 l 1
 9 10 l 1
 9 8 l 1
 7 8 l 1
 5 8 l 1
 3 8 l 1
 3 6 l 1
 3 4 l 1
 3 2 l 1
 3 0 l 1
 1 0 l 1
EndSplineSet
Validated: 5
EndChar

StartChar: o
Encoding: 111 111 80
Width: 13
GlyphClass: 2
Flags: W
LayerCount: 2
Fore
SplineSet
7 2 m 5
 9 2 l 5
 9 0 l 5
 7 0 l 5
 5 0 l 5
 3 0 l 5
 3 2 l 5
 5 2 l 5
 7 2 l 5
9 2 m 5
 9 4 l 5
 9 6 l 5
 9 8 l 5
 11 8 l 5
 11 6 l 5
 11 4 l 5
 11 2 l 5
 9 2 l 5
3 2 m 5
 1 2 l 5
 1 4 l 5
 1 6 l 5
 1 8 l 5
 3 8 l 5
 3 6 l 5
 3 4 l 5
 3 2 l 5
9 8 m 5
 7 8 l 5
 5 8 l 5
 3 8 l 5
 3 10 l 5
 5 10 l 5
 7 10 l 5
 9 10 l 5
 9 8 l 5
EndSplineSet
Validated: 5
EndChar

StartChar: p
Encoding: 112 112 81
Width: 13
GlyphClass: 2
Flags: W
LayerCount: 2
Fore
SplineSet
1 -2 m 1
 1 0 l 1
 1 2 l 1
 1 4 l 1
 1 6 l 1
 1 8 l 1
 1 10 l 1
 3 10 l 1
 3 8 l 1
 5 8 l 1
 5 6 l 1
 3 6 l 1
 3 4 l 1
 5 4 l 1
 7 4 l 1
 9 4 l 1
 9 2 l 1
 7 2 l 1
 5 2 l 1
 3 2 l 1
 3 0 l 1
 3 -2 l 1
 1 -2 l 1
9 4 m 1
 9 6 l 1
 9 8 l 1
 11 8 l 1
 11 6 l 1
 11 4 l 1
 9 4 l 1
9 8 m 1
 7 8 l 1
 5 8 l 1
 5 10 l 1
 7 10 l 1
 9 10 l 1
 9 8 l 1
EndSplineSet
Validated: 5
EndChar

StartChar: q
Encoding: 113 113 82
Width: 13
GlyphClass: 2
Flags: W
LayerCount: 2
Fore
SplineSet
9 -2 m 1
 9 0 l 1
 9 2 l 1
 7 2 l 1
 5 2 l 1
 3 2 l 1
 3 4 l 1
 5 4 l 1
 7 4 l 1
 9 4 l 1
 9 6 l 1
 7 6 l 1
 7 8 l 1
 9 8 l 1
 9 10 l 1
 11 10 l 1
 11 8 l 1
 11 6 l 1
 11 4 l 1
 11 2 l 1
 11 0 l 1
 11 -2 l 1
 9 -2 l 1
3 4 m 1
 1 4 l 1
 1 6 l 1
 1 8 l 1
 3 8 l 1
 3 6 l 1
 3 4 l 1
7 8 m 1
 5 8 l 1
 3 8 l 1
 3 10 l 1
 5 10 l 1
 7 10 l 1
 7 8 l 1
EndSplineSet
Validated: 5
EndChar

StartChar: r
Encoding: 114 114 83
Width: 13
GlyphClass: 2
Flags: W
LayerCount: 2
Fore
SplineSet
1 0 m 1
 1 2 l 1
 1 4 l 1
 1 6 l 1
 1 8 l 1
 1 10 l 1
 3 10 l 1
 3 8 l 1
 5 8 l 1
 5 6 l 1
 3 6 l 1
 3 4 l 1
 3 2 l 1
 3 0 l 1
 1 0 l 1
9 6 m 1
 9 8 l 1
 11 8 l 1
 11 6 l 1
 9 6 l 1
9 8 m 1
 7 8 l 1
 5 8 l 1
 5 10 l 1
 7 10 l 1
 9 10 l 1
 9 8 l 1
EndSplineSet
Validated: 5
EndChar

StartChar: s
Encoding: 115 115 84
Width: 13
GlyphClass: 2
Flags: W
LayerCount: 2
Fore
SplineSet
7 2 m 1
 9 2 l 1
 9 0 l 1
 7 0 l 1
 5 0 l 1
 3 0 l 1
 1 0 l 1
 1 2 l 1
 3 2 l 1
 5 2 l 1
 7 2 l 1
9 2 m 1
 9 4 l 1
 11 4 l 1
 11 2 l 1
 9 2 l 1
9 4 m 1
 7 4 l 1
 5 4 l 1
 3 4 l 1
 3 6 l 1
 5 6 l 1
 7 6 l 1
 9 6 l 1
 9 4 l 1
3 6 m 1
 1 6 l 1
 1 8 l 1
 3 8 l 1
 3 6 l 1
9 10 m 1
 11 10 l 1
 11 8 l 1
 9 8 l 1
 7 8 l 1
 5 8 l 1
 3 8 l 1
 3 10 l 1
 5 10 l 1
 7 10 l 1
 9 10 l 1
EndSplineSet
Validated: 5
EndChar

StartChar: t
Encoding: 116 116 85
Width: 9
GlyphClass: 2
Flags: W
LayerCount: 2
Fore
SplineSet
5 0 m 1
 5 2 l 1
 7 2 l 1
 7 0 l 1
 5 0 l 1
5 2 m 1
 3 2 l 1
 3 4 l 1
 3 6 l 1
 3 8 l 1
 1 8 l 1
 1 10 l 1
 3 10 l 1
 3 12 l 1
 3 14 l 1
 5 14 l 1
 5 12 l 1
 5 10 l 1
 7 10 l 1
 7 8 l 1
 5 8 l 1
 5 6 l 1
 5 4 l 1
 5 2 l 1
EndSplineSet
Validated: 5
EndChar

StartChar: u
Encoding: 117 117 86
Width: 13
GlyphClass: 2
Flags: W
LayerCount: 2
Fore
SplineSet
9 0 m 5
 7 0 l 5
 5 0 l 5
 3 0 l 5
 3 2 l 5
 5 2 l 5
 7 2 l 5
 9 2 l 5
 9 4 l 5
 9 6 l 5
 9 8 l 5
 9 10 l 5
 11 10 l 5
 11 8 l 5
 11 6 l 5
 11 4 l 5
 11 2 l 5
 11 0 l 5
 9 0 l 5
3 2 m 5
 1 2 l 5
 1 4 l 5
 1 6 l 5
 1 8 l 5
 1 10 l 5
 3 10 l 5
 3 8 l 5
 3 6 l 5
 3 4 l 5
 3 2 l 5
EndSplineSet
Validated: 5
EndChar

StartChar: v
Encoding: 118 118 87
Width: 13
GlyphClass: 2
Flags: W
LayerCount: 2
Fore
SplineSet
5 0 m 1
 5 2 l 1
 7 2 l 1
 7 0 l 1
 5 0 l 1
7 2 m 1
 7 4 l 1
 9 4 l 1
 9 2 l 1
 7 2 l 1
5 2 m 1
 3 2 l 1
 3 4 l 1
 5 4 l 1
 5 2 l 1
9 4 m 1
 9 6 l 1
 9 8 l 1
 9 10 l 1
 11 10 l 1
 11 8 l 1
 11 6 l 1
 11 4 l 1
 9 4 l 1
3 4 m 1
 1 4 l 1
 1 6 l 1
 1 8 l 1
 1 10 l 1
 3 10 l 1
 3 8 l 1
 3 6 l 1
 3 4 l 1
EndSplineSet
Validated: 5
EndChar

StartChar: w
Encoding: 119 119 88
Width: 13
GlyphClass: 2
Flags: W
LayerCount: 2
Fore
SplineSet
9 0 m 1
 7 0 l 1
 5 0 l 1
 3 0 l 1
 3 2 l 1
 5 2 l 1
 5 4 l 1
 5 6 l 1
 7 6 l 1
 7 4 l 1
 7 2 l 1
 9 2 l 1
 9 4 l 1
 9 6 l 1
 9 8 l 1
 9 10 l 1
 11 10 l 1
 11 8 l 1
 11 6 l 1
 11 4 l 1
 11 2 l 1
 11 0 l 1
 9 0 l 1
3 2 m 1
 1 2 l 1
 1 4 l 1
 1 6 l 1
 1 8 l 1
 1 10 l 1
 3 10 l 1
 3 8 l 1
 3 6 l 1
 3 4 l 1
 3 2 l 1
EndSplineSet
Validated: 5
EndChar

StartChar: x
Encoding: 120 120 89
Width: 13
GlyphClass: 2
Flags: W
LayerCount: 2
Fore
SplineSet
9 0 m 1
 9 2 l 1
 11 2 l 1
 11 0 l 1
 9 0 l 1
1 0 m 1
 1 2 l 1
 3 2 l 1
 3 0 l 1
 1 0 l 1
9 2 m 1
 7 2 l 1
 7 4 l 1
 9 4 l 1
 9 2 l 1
3 2 m 1
 3 4 l 1
 5 4 l 1
 5 2 l 1
 3 2 l 1
7 4 m 1
 5 4 l 1
 5 6 l 1
 7 6 l 1
 7 4 l 1
7 6 m 1
 7 8 l 1
 9 8 l 1
 9 6 l 1
 7 6 l 1
5 6 m 1
 3 6 l 1
 3 8 l 1
 5 8 l 1
 5 6 l 1
9 8 m 1
 9 10 l 1
 11 10 l 1
 11 8 l 1
 9 8 l 1
3 8 m 1
 1 8 l 1
 1 10 l 1
 3 10 l 1
 3 8 l 1
EndSplineSet
Validated: 5
EndChar

StartChar: y
Encoding: 121 121 90
Width: 13
GlyphClass: 2
Flags: W
LayerCount: 2
Fore
SplineSet
7 0 m 5
 9 0 l 5
 9 -2 l 5
 7 -2 l 5
 5 -2 l 5
 3 -2 l 5
 1 -2 l 5
 1 0 l 5
 3 0 l 5
 5 0 l 5
 7 0 l 5
9 0 m 5
 9 2 l 5
 7 2 l 5
 5 2 l 5
 3 2 l 5
 3 4 l 5
 5 4 l 5
 7 4 l 5
 9 4 l 5
 9 6 l 5
 9 8 l 5
 9 10 l 5
 11 10 l 5
 11 8 l 5
 11 6 l 5
 11 4 l 5
 11 2 l 5
 11 0 l 5
 9 0 l 5
3 4 m 5
 1 4 l 5
 1 6 l 5
 1 8 l 5
 1 10 l 5
 3 10 l 5
 3 8 l 5
 3 6 l 5
 3 4 l 5
EndSplineSet
Validated: 5
EndChar

StartChar: z
Encoding: 122 122 91
Width: 13
GlyphClass: 2
Flags: W
LayerCount: 2
Fore
SplineSet
9 2 m 1
 11 2 l 1
 11 0 l 1
 9 0 l 1
 7 0 l 1
 5 0 l 1
 3 0 l 1
 1 0 l 1
 1 2 l 1
 3 2 l 1
 3 4 l 1
 5 4 l 1
 5 2 l 1
 7 2 l 1
 9 2 l 1
5 4 m 1
 5 6 l 1
 7 6 l 1
 7 4 l 1
 5 4 l 1
7 6 m 1
 7 8 l 1
 5 8 l 1
 3 8 l 1
 1 8 l 1
 1 10 l 1
 3 10 l 1
 5 10 l 1
 7 10 l 1
 9 10 l 1
 11 10 l 1
 11 8 l 1
 9 8 l 1
 9 6 l 1
 7 6 l 1
EndSplineSet
Validated: 5
EndChar

StartChar: braceleft
Encoding: 123 123 92
Width: 9
GlyphClass: 2
Flags: W
LayerCount: 2
Fore
SplineSet
5 0 m 1
 5 2 l 1
 7 2 l 1
 7 0 l 1
 5 0 l 1
5 2 m 1
 3 2 l 1
 3 4 l 1
 3 6 l 1
 5 6 l 1
 5 4 l 1
 5 2 l 1
3 6 m 1
 1 6 l 1
 1 8 l 1
 3 8 l 1
 3 6 l 1
3 8 m 1
 3 10 l 1
 3 12 l 1
 5 12 l 1
 5 10 l 1
 5 8 l 1
 3 8 l 1
5 12 m 1
 5 14 l 1
 7 14 l 1
 7 12 l 1
 5 12 l 1
EndSplineSet
Validated: 5
EndChar

StartChar: bar
Encoding: 124 124 93
Width: 5
GlyphClass: 2
Flags: W
LayerCount: 2
Fore
SplineSet
1 0 m 1
 1 2 l 1
 1 4 l 1
 1 6 l 1
 1 8 l 1
 1 10 l 1
 1 12 l 1
 1 14 l 1
 3 14 l 1
 3 12 l 1
 3 10 l 1
 3 8 l 1
 3 6 l 1
 3 4 l 1
 3 2 l 1
 3 0 l 1
 1 0 l 1
EndSplineSet
Validated: 1
EndChar

StartChar: braceright
Encoding: 125 125 94
Width: 9
GlyphClass: 2
Flags: W
LayerCount: 2
Fore
SplineSet
1 0 m 1
 1 2 l 1
 3 2 l 1
 3 0 l 1
 1 0 l 1
3 2 m 1
 3 4 l 1
 3 6 l 1
 5 6 l 1
 5 4 l 1
 5 2 l 1
 3 2 l 1
5 6 m 1
 5 8 l 1
 7 8 l 1
 7 6 l 1
 5 6 l 1
5 8 m 1
 3 8 l 1
 3 10 l 1
 3 12 l 1
 5 12 l 1
 5 10 l 1
 5 8 l 1
3 12 m 1
 1 12 l 1
 1 14 l 1
 3 14 l 1
 3 12 l 1
EndSplineSet
Validated: 5
EndChar

StartChar: asciitilde
Encoding: 126 126 95
Width: 15
GlyphClass: 2
Flags: W
LayerCount: 2
Fore
SplineSet
1 10 m 1
 1 12 l 1
 3 12 l 1
 3 10 l 1
 1 10 l 1
9 12 m 1
 11 12 l 1
 11 10 l 1
 9 10 l 1
 7 10 l 1
 7 12 l 1
 9 12 l 1
11 12 m 1
 11 14 l 1
 13 14 l 1
 13 12 l 1
 11 12 l 1
7 12 m 1
 5 12 l 1
 3 12 l 1
 3 14 l 1
 5 14 l 1
 7 14 l 1
 7 12 l 1
EndSplineSet
Validated: 5
EndChar

StartChar: exclamdown
Encoding: 161 161 97
Width: 5
GlyphClass: 2
Flags: W
LayerCount: 2
Fore
SplineSet
1 -2 m 1
 1 0 l 1
 1 2 l 1
 1 4 l 1
 1 6 l 1
 1 8 l 1
 3 8 l 1
 3 6 l 1
 3 4 l 1
 3 2 l 1
 3 0 l 1
 3 -2 l 1
 1 -2 l 1
1 10 m 1
 1 12 l 1
 3 12 l 1
 3 10 l 1
 1 10 l 1
EndSplineSet
Validated: 1
EndChar

StartChar: cent
Encoding: 162 162 98
Width: 13
GlyphClass: 2
Flags: W
LayerCount: 2
Fore
SplineSet
5 -2 m 1
 5 0 l 1
 3 0 l 1
 3 2 l 1
 5 2 l 1
 7 2 l 1
 9 2 l 1
 9 0 l 1
 7 0 l 1
 7 -2 l 1
 5 -2 l 1
9 6 m 1
 9 8 l 1
 11 8 l 1
 11 6 l 1
 9 6 l 1
9 2 m 1
 9 4 l 1
 11 4 l 1
 11 2 l 1
 9 2 l 1
3 2 m 1
 1 2 l 1
 1 4 l 1
 1 6 l 1
 1 8 l 1
 3 8 l 1
 3 6 l 1
 3 4 l 1
 3 2 l 1
9 8 m 1
 7 8 l 1
 5 8 l 1
 3 8 l 1
 3 10 l 1
 5 10 l 1
 5 12 l 1
 7 12 l 1
 7 10 l 1
 9 10 l 1
 9 8 l 1
EndSplineSet
Validated: 5
EndChar

StartChar: sterling
Encoding: 163 163 99
Width: 13
GlyphClass: 2
Flags: W
LayerCount: 2
Fore
SplineSet
9 10 m 1
 9 12 l 1
 11 12 l 1
 11 10 l 1
 9 10 l 1
9 2 m 1
 11 2 l 1
 11 0 l 1
 9 0 l 1
 7 0 l 1
 5 0 l 1
 3 0 l 1
 1 0 l 1
 1 2 l 1
 3 2 l 1
 3 4 l 1
 3 6 l 1
 1 6 l 1
 1 8 l 1
 3 8 l 1
 3 10 l 1
 3 12 l 1
 5 12 l 1
 5 10 l 1
 5 8 l 1
 7 8 l 1
 9 8 l 1
 9 6 l 1
 7 6 l 1
 5 6 l 1
 5 4 l 1
 5 2 l 1
 7 2 l 1
 9 2 l 1
9 12 m 1
 7 12 l 1
 5 12 l 1
 5 14 l 1
 7 14 l 1
 9 14 l 1
 9 12 l 1
EndSplineSet
Validated: 5
EndChar

StartChar: currency
Encoding: 164 164 100
Width: 17
GlyphClass: 2
Flags: W
LayerCount: 2
Fore
SplineSet
13 0 m 1
 13 2 l 1
 15 2 l 1
 15 0 l 1
 13 0 l 1
1 0 m 1
 1 2 l 1
 3 2 l 1
 3 0 l 1
 1 0 l 1
9 2 m 1
 11 2 l 1
 11 0 l 1
 9 0 l 1
 7 0 l 1
 5 0 l 1
 5 2 l 1
 7 2 l 1
 9 2 l 1
13 2 m 1
 11 2 l 1
 11 4 l 1
 11 6 l 1
 11 8 l 1
 13 8 l 1
 13 6 l 1
 13 4 l 1
 13 2 l 1
5 2 m 1
 3 2 l 1
 3 4 l 1
 3 6 l 1
 3 8 l 1
 5 8 l 1
 5 6 l 1
 5 4 l 1
 5 2 l 1
13 8 m 1
 13 10 l 1
 15 10 l 1
 15 8 l 1
 13 8 l 1
11 8 m 1
 9 8 l 1
 7 8 l 1
 5 8 l 1
 5 10 l 1
 7 10 l 1
 9 10 l 1
 11 10 l 1
 11 8 l 1
3 8 m 1
 1 8 l 1
 1 10 l 1
 3 10 l 1
 3 8 l 1
EndSplineSet
Validated: 5
EndChar

StartChar: yen
Encoding: 165 165 101
Width: 13
GlyphClass: 2
Flags: W
LayerCount: 2
Fore
SplineSet
5 0 m 1
 5 2 l 1
 3 2 l 1
 1 2 l 1
 1 4 l 1
 3 4 l 1
 5 4 l 1
 5 6 l 1
 3 6 l 1
 1 6 l 1
 1 8 l 1
 3 8 l 1
 5 8 l 1
 5 10 l 1
 7 10 l 1
 7 8 l 1
 9 8 l 1
 11 8 l 1
 11 6 l 1
 9 6 l 1
 7 6 l 1
 7 4 l 1
 9 4 l 1
 11 4 l 1
 11 2 l 1
 9 2 l 1
 7 2 l 1
 7 0 l 1
 5 0 l 1
7 10 m 1
 7 12 l 1
 9 12 l 1
 9 10 l 1
 7 10 l 1
5 10 m 1
 3 10 l 1
 3 12 l 1
 5 12 l 1
 5 10 l 1
9 12 m 1
 9 14 l 1
 11 14 l 1
 11 12 l 1
 9 12 l 1
3 12 m 1
 1 12 l 1
 1 14 l 1
 3 14 l 1
 3 12 l 1
EndSplineSet
Validated: 5
EndChar

StartChar: brokenbar
Encoding: 166 166 102
Width: 5
GlyphClass: 2
Flags: W
LayerCount: 2
Fore
SplineSet
1 0 m 1
 1 2 l 1
 1 4 l 1
 1 6 l 1
 3 6 l 1
 3 4 l 1
 3 2 l 1
 3 0 l 1
 1 0 l 1
1 8 m 1
 1 10 l 1
 1 12 l 1
 1 14 l 1
 3 14 l 1
 3 12 l 1
 3 10 l 1
 3 8 l 1
 1 8 l 1
EndSplineSet
Validated: 1
EndChar

StartChar: section
Encoding: 167 167 103
Width: 13
GlyphClass: 2
Flags: W
LayerCount: 2
Fore
SplineSet
7 2 m 1
 9 2 l 1
 9 0 l 1
 7 0 l 1
 5 0 l 1
 3 0 l 1
 1 0 l 1
 1 2 l 1
 3 2 l 1
 5 2 l 1
 7 2 l 1
9 2 m 1
 9 4 l 1
 11 4 l 1
 11 2 l 1
 9 2 l 1
9 4 m 1
 7 4 l 1
 5 4 l 1
 3 4 l 1
 3 6 l 1
 5 6 l 1
 7 6 l 1
 9 6 l 1
 9 4 l 1
9 6 m 1
 9 8 l 1
 11 8 l 1
 11 6 l 1
 9 6 l 1
3 6 m 1
 1 6 l 1
 1 8 l 1
 3 8 l 1
 3 6 l 1
9 8 m 1
 7 8 l 1
 5 8 l 1
 3 8 l 1
 3 10 l 1
 5 10 l 1
 7 10 l 1
 9 10 l 1
 9 8 l 1
3 10 m 1
 1 10 l 1
 1 12 l 1
 3 12 l 1
 3 10 l 1
9 14 m 1
 11 14 l 1
 11 12 l 1
 9 12 l 1
 7 12 l 1
 5 12 l 1
 3 12 l 1
 3 14 l 1
 5 14 l 1
 7 14 l 1
 9 14 l 1
EndSplineSet
Validated: 5
EndChar

StartChar: dieresis
Encoding: 168 168 104
Width: 9
GlyphClass: 2
Flags: W
LayerCount: 2
Fore
SplineSet
5 12 m 1
 5 14 l 1
 7 14 l 1
 7 12 l 1
 5 12 l 1
1 12 m 1
 1 14 l 1
 3 14 l 1
 3 12 l 1
 1 12 l 1
EndSplineSet
Validated: 1
EndChar

StartChar: copyright
Encoding: 169 169 105
Width: 17
GlyphClass: 2
Flags: W
LayerCount: 2
Fore
SplineSet
9 2 m 1
 11 2 l 1
 11 0 l 1
 9 0 l 1
 7 0 l 1
 5 0 l 1
 5 2 l 1
 7 2 l 1
 9 2 l 1
11 2 m 1
 11 4 l 1
 13 4 l 1
 13 2 l 1
 11 2 l 1
5 2 m 1
 3 2 l 1
 3 4 l 1
 5 4 l 1
 5 2 l 1
13 4 m 1
 13 6 l 1
 13 8 l 1
 13 10 l 1
 15 10 l 1
 15 8 l 1
 15 6 l 1
 15 4 l 1
 13 4 l 1
11 4 m 1
 9 4 l 1
 7 4 l 1
 5 4 l 1
 5 6 l 1
 5 8 l 1
 5 10 l 1
 7 10 l 1
 9 10 l 1
 11 10 l 1
 11 8 l 1
 9 8 l 1
 7 8 l 1
 7 6 l 1
 9 6 l 1
 11 6 l 1
 11 4 l 1
3 4 m 1
 1 4 l 1
 1 6 l 1
 1 8 l 1
 1 10 l 1
 3 10 l 1
 3 8 l 1
 3 6 l 1
 3 4 l 1
13 10 m 1
 11 10 l 1
 11 12 l 1
 13 12 l 1
 13 10 l 1
5 10 m 1
 3 10 l 1
 3 12 l 1
 5 12 l 1
 5 10 l 1
11 12 m 1
 9 12 l 1
 7 12 l 1
 5 12 l 1
 5 14 l 1
 7 14 l 1
 9 14 l 1
 11 14 l 1
 11 12 l 1
EndSplineSet
Validated: 5
EndChar

StartChar: ordfeminine
Encoding: 170 170 106
Width: 11
GlyphClass: 2
Flags: W
LayerCount: 2
Fore
SplineSet
7 4 m 1
 9 4 l 1
 9 2 l 1
 7 2 l 1
 5 2 l 1
 3 2 l 1
 1 2 l 1
 1 4 l 1
 3 4 l 1
 5 4 l 1
 7 4 l 1
7 6 m 1
 5 6 l 1
 3 6 l 1
 3 8 l 1
 1 8 l 1
 1 10 l 1
 3 10 l 1
 5 10 l 1
 7 10 l 1
 7 12 l 1
 9 12 l 1
 9 10 l 1
 9 8 l 1
 9 6 l 1
 7 6 l 1
7 12 m 1
 5 12 l 1
 3 12 l 1
 3 14 l 1
 5 14 l 1
 7 14 l 1
 7 12 l 1
EndSplineSet
Validated: 5
EndChar

StartChar: guillemotleft
Encoding: 171 171 107
Width: 15
GlyphClass: 2
Flags: W
LayerCount: 2
Fore
SplineSet
11 2 m 1
 11 4 l 1
 13 4 l 1
 13 2 l 1
 11 2 l 1
5 2 m 1
 5 4 l 1
 7 4 l 1
 7 2 l 1
 5 2 l 1
11 4 m 1
 9 4 l 1
 9 6 l 1
 11 6 l 1
 11 4 l 1
5 4 m 1
 3 4 l 1
 3 6 l 1
 5 6 l 1
 5 4 l 1
9 6 m 1
 7 6 l 1
 7 8 l 1
 9 8 l 1
 9 6 l 1
3 6 m 1
 1 6 l 1
 1 8 l 1
 3 8 l 1
 3 6 l 1
9 8 m 1
 9 10 l 1
 11 10 l 1
 11 8 l 1
 9 8 l 1
3 8 m 1
 3 10 l 1
 5 10 l 1
 5 8 l 1
 3 8 l 1
11 10 m 1
 11 12 l 1
 13 12 l 1
 13 10 l 1
 11 10 l 1
5 10 m 1
 5 12 l 1
 7 12 l 1
 7 10 l 1
 5 10 l 1
EndSplineSet
Validated: 5
EndChar

StartChar: logicalnot
Encoding: 172 172 108
Width: 13
GlyphClass: 2
Flags: W
LayerCount: 2
Fore
SplineSet
9 2 m 1
 9 4 l 1
 9 6 l 1
 7 6 l 1
 5 6 l 1
 3 6 l 1
 1 6 l 1
 1 8 l 1
 3 8 l 1
 5 8 l 1
 7 8 l 1
 9 8 l 1
 11 8 l 1
 11 6 l 1
 11 4 l 1
 11 2 l 1
 9 2 l 1
EndSplineSet
Validated: 1
EndChar

StartChar: registered
Encoding: 174 174 109
Width: 17
GlyphClass: 2
Flags: W
LayerCount: 2
Fore
SplineSet
9 2 m 1
 11 2 l 1
 11 0 l 1
 9 0 l 1
 7 0 l 1
 5 0 l 1
 5 2 l 1
 7 2 l 1
 9 2 l 1
11 2 m 1
 11 4 l 1
 13 4 l 1
 13 2 l 1
 11 2 l 1
5 2 m 1
 3 2 l 1
 3 4 l 1
 5 4 l 1
 5 2 l 1
13 4 m 1
 13 6 l 1
 13 8 l 1
 13 10 l 1
 15 10 l 1
 15 8 l 1
 15 6 l 1
 15 4 l 1
 13 4 l 1
11 4 m 1
 9 4 l 1
 9 6 l 1
 11 6 l 1
 11 4 l 1
5 4 m 1
 5 6 l 1
 5 8 l 1
 5 10 l 1
 7 10 l 1
 7 8 l 1
 9 8 l 1
 9 6 l 1
 7 6 l 1
 7 4 l 1
 5 4 l 1
3 4 m 1
 1 4 l 1
 1 6 l 1
 1 8 l 1
 1 10 l 1
 3 10 l 1
 3 8 l 1
 3 6 l 1
 3 4 l 1
9 8 m 1
 9 10 l 1
 11 10 l 1
 11 8 l 1
 9 8 l 1
13 10 m 1
 11 10 l 1
 11 12 l 1
 13 12 l 1
 13 10 l 1
9 10 m 1
 7 10 l 1
 7 12 l 1
 5 12 l 1
 5 10 l 1
 3 10 l 1
 3 12 l 1
 5 12 l 1
 5 14 l 1
 7 14 l 1
 9 14 l 1
 11 14 l 1
 11 12 l 1
 9 12 l 1
 9 10 l 1
EndSplineSet
Validated: 5
EndChar

StartChar: macron
Encoding: 175 175 110
Width: 13
GlyphClass: 2
Flags: W
LayerCount: 2
Fore
SplineSet
9 14 m 1
 11 14 l 1
 11 12 l 1
 9 12 l 1
 7 12 l 1
 5 12 l 1
 3 12 l 1
 1 12 l 1
 1 14 l 1
 3 14 l 1
 5 14 l 1
 7 14 l 1
 9 14 l 1
EndSplineSet
Validated: 1
EndChar

StartChar: degree
Encoding: 176 176 111
Width: 11
GlyphClass: 2
Flags: W
LayerCount: 2
Fore
SplineSet
5 8 m 1
 7 8 l 1
 7 6 l 1
 5 6 l 1
 3 6 l 1
 3 8 l 1
 5 8 l 1
7 8 m 1
 7 10 l 1
 7 12 l 1
 9 12 l 1
 9 10 l 1
 9 8 l 1
 7 8 l 1
3 8 m 1
 1 8 l 1
 1 10 l 1
 1 12 l 1
 3 12 l 1
 3 10 l 1
 3 8 l 1
7 12 m 1
 5 12 l 1
 3 12 l 1
 3 14 l 1
 5 14 l 1
 7 14 l 1
 7 12 l 1
EndSplineSet
Validated: 5
EndChar

StartChar: plusminus
Encoding: 177 177 112
Width: 13
GlyphClass: 2
Flags: W
LayerCount: 2
Fore
SplineSet
5 4 m 1
 5 6 l 1
 5 8 l 1
 3 8 l 1
 1 8 l 1
 1 10 l 1
 3 10 l 1
 5 10 l 1
 5 12 l 1
 5 14 l 1
 7 14 l 1
 7 12 l 1
 7 10 l 1
 9 10 l 1
 11 10 l 1
 11 8 l 1
 9 8 l 1
 7 8 l 1
 7 6 l 1
 7 4 l 1
 5 4 l 1
9 2 m 1
 11 2 l 1
 11 0 l 1
 9 0 l 1
 7 0 l 1
 5 0 l 1
 3 0 l 1
 1 0 l 1
 1 2 l 1
 3 2 l 1
 5 2 l 1
 7 2 l 1
 9 2 l 1
EndSplineSet
Validated: 1
EndChar

StartChar: uni00B2
Encoding: 178 178 113
Width: 11
GlyphClass: 2
Flags: W
LayerCount: 2
Fore
SplineSet
1 10 m 1
 1 12 l 1
 3 12 l 1
 3 10 l 1
 1 10 l 1
7 6 m 1
 9 6 l 1
 9 4 l 1
 7 4 l 1
 5 4 l 1
 3 4 l 1
 1 4 l 1
 1 6 l 1
 3 6 l 1
 3 8 l 1
 5 8 l 1
 5 6 l 1
 7 6 l 1
5 8 m 1
 5 10 l 1
 7 10 l 1
 7 8 l 1
 5 8 l 1
7 10 m 1
 7 12 l 1
 9 12 l 1
 9 10 l 1
 7 10 l 1
7 12 m 1
 5 12 l 1
 3 12 l 1
 3 14 l 1
 5 14 l 1
 7 14 l 1
 7 12 l 1
EndSplineSet
Validated: 5
EndChar

StartChar: uni00B3
Encoding: 179 179 114
Width: 11
GlyphClass: 2
Flags: W
LayerCount: 2
Fore
SplineSet
1 10 m 1
 1 12 l 1
 3 12 l 1
 3 10 l 1
 1 10 l 1
5 6 m 1
 7 6 l 1
 7 4 l 1
 5 4 l 1
 3 4 l 1
 3 6 l 1
 5 6 l 1
7 6 m 1
 7 8 l 1
 9 8 l 1
 9 6 l 1
 7 6 l 1
3 6 m 1
 1 6 l 1
 1 8 l 1
 3 8 l 1
 3 6 l 1
7 8 m 1
 5 8 l 1
 5 10 l 1
 7 10 l 1
 7 8 l 1
7 10 m 1
 7 12 l 1
 9 12 l 1
 9 10 l 1
 7 10 l 1
7 12 m 1
 5 12 l 1
 3 12 l 1
 3 14 l 1
 5 14 l 1
 7 14 l 1
 7 12 l 1
EndSplineSet
Validated: 5
EndChar

StartChar: acute
Encoding: 180 180 115
Width: 7
GlyphClass: 2
Flags: W
LayerCount: 2
Fore
SplineSet
1 10 m 1
 1 12 l 1
 3 12 l 1
 3 10 l 1
 1 10 l 1
3 12 m 1
 3 14 l 1
 5 14 l 1
 5 12 l 1
 3 12 l 1
EndSplineSet
Validated: 5
EndChar

StartChar: uni00B5
Encoding: 181 181 116
Width: 13
GlyphClass: 2
Flags: W
LayerCount: 2
Fore
SplineSet
1 -2 m 1
 1 0 l 1
 1 2 l 1
 1 4 l 1
 1 6 l 1
 1 8 l 1
 1 10 l 1
 3 10 l 1
 3 8 l 1
 3 6 l 1
 3 4 l 1
 3 2 l 1
 5 2 l 1
 7 2 l 1
 9 2 l 1
 9 0 l 1
 7 0 l 1
 5 0 l 1
 3 0 l 1
 3 -2 l 1
 1 -2 l 1
9 2 m 1
 9 4 l 1
 9 6 l 1
 9 8 l 1
 9 10 l 1
 11 10 l 1
 11 8 l 1
 11 6 l 1
 11 4 l 1
 11 2 l 1
 9 2 l 1
EndSplineSet
Validated: 5
EndChar

StartChar: paragraph
Encoding: 182 182 117
Width: 15
GlyphClass: 2
Flags: W
LayerCount: 2
Fore
SplineSet
9 0 m 1
 9 2 l 1
 9 4 l 1
 9 6 l 1
 9 8 l 1
 9 10 l 1
 9 12 l 1
 7 12 l 1
 7 10 l 1
 7 8 l 1
 7 6 l 1
 7 4 l 1
 7 2 l 1
 7 0 l 1
 5 0 l 1
 5 2 l 1
 5 4 l 1
 5 6 l 1
 3 6 l 1
 3 8 l 1
 1 8 l 1
 1 10 l 1
 3 10 l 1
 3 12 l 1
 5 12 l 1
 5 14 l 1
 7 14 l 1
 9 14 l 1
 11 14 l 1
 13 14 l 1
 13 12 l 1
 11 12 l 1
 11 10 l 1
 11 8 l 1
 11 6 l 1
 11 4 l 1
 11 2 l 1
 11 0 l 1
 9 0 l 1
EndSplineSet
Validated: 1
EndChar

StartChar: periodcentered
Encoding: 183 183 118
Width: 5
GlyphClass: 2
Flags: W
LayerCount: 2
Fore
SplineSet
1 6 m 1
 1 8 l 1
 3 8 l 1
 3 6 l 1
 1 6 l 1
EndSplineSet
Validated: 1
EndChar

StartChar: cedilla
Encoding: 184 184 119
Width: 9
GlyphClass: 2
Flags: W
LayerCount: 2
Fore
SplineSet
3 0 m 1
 5 0 l 1
 5 -2 l 1
 3 -2 l 1
 1 -2 l 1
 1 0 l 1
 3 0 l 1
5 0 m 1
 5 2 l 1
 7 2 l 1
 7 0 l 1
 5 0 l 1
5 2 m 1
 3 2 l 1
 3 4 l 1
 5 4 l 1
 5 2 l 1
EndSplineSet
Validated: 5
EndChar

StartChar: uni00B9
Encoding: 185 185 120
Width: 9
GlyphClass: 2
Flags: W
LayerCount: 2
Fore
SplineSet
5 4 m 1
 3 4 l 1
 1 4 l 1
 1 6 l 1
 3 6 l 1
 3 8 l 1
 3 10 l 1
 1 10 l 1
 1 12 l 1
 3 12 l 1
 3 14 l 1
 5 14 l 1
 5 12 l 1
 5 10 l 1
 5 8 l 1
 5 6 l 1
 7 6 l 1
 7 4 l 1
 5 4 l 1
EndSplineSet
Validated: 1
EndChar

StartChar: ordmasculine
Encoding: 186 186 121
Width: 11
GlyphClass: 2
Flags: W
LayerCount: 2
Fore
SplineSet
7 4 m 1
 9 4 l 1
 9 2 l 1
 7 2 l 1
 5 2 l 1
 3 2 l 1
 1 2 l 1
 1 4 l 1
 3 4 l 1
 5 4 l 1
 7 4 l 1
5 8 m 1
 7 8 l 1
 7 6 l 1
 5 6 l 1
 3 6 l 1
 3 8 l 1
 5 8 l 1
7 8 m 1
 7 10 l 1
 7 12 l 1
 9 12 l 1
 9 10 l 1
 9 8 l 1
 7 8 l 1
3 8 m 1
 1 8 l 1
 1 10 l 1
 1 12 l 1
 3 12 l 1
 3 10 l 1
 3 8 l 1
7 12 m 1
 5 12 l 1
 3 12 l 1
 3 14 l 1
 5 14 l 1
 7 14 l 1
 7 12 l 1
EndSplineSet
Validated: 5
EndChar

StartChar: guillemotright
Encoding: 187 187 122
Width: 15
GlyphClass: 2
Flags: W
LayerCount: 2
Fore
SplineSet
7 2 m 1
 7 4 l 1
 9 4 l 1
 9 2 l 1
 7 2 l 1
1 2 m 1
 1 4 l 1
 3 4 l 1
 3 2 l 1
 1 2 l 1
9 4 m 1
 9 6 l 1
 11 6 l 1
 11 4 l 1
 9 4 l 1
3 4 m 1
 3 6 l 1
 5 6 l 1
 5 4 l 1
 3 4 l 1
11 6 m 1
 11 8 l 1
 13 8 l 1
 13 6 l 1
 11 6 l 1
5 6 m 1
 5 8 l 1
 7 8 l 1
 7 6 l 1
 5 6 l 1
11 8 m 1
 9 8 l 1
 9 10 l 1
 11 10 l 1
 11 8 l 1
5 8 m 1
 3 8 l 1
 3 10 l 1
 5 10 l 1
 5 8 l 1
9 10 m 1
 7 10 l 1
 7 12 l 1
 9 12 l 1
 9 10 l 1
3 10 m 1
 1 10 l 1
 1 12 l 1
 3 12 l 1
 3 10 l 1
EndSplineSet
Validated: 5
EndChar

StartChar: onequarter
Encoding: 188 188 123
Width: 17
GlyphClass: 2
Flags: W
LayerCount: 2
Fore
SplineSet
13 0 m 1
 13 2 l 1
 11 2 l 1
 9 2 l 1
 9 4 l 1
 9 6 l 1
 11 6 l 1
 11 8 l 1
 13 8 l 1
 15 8 l 1
 15 6 l 1
 15 4 l 1
 15 2 l 1
 15 0 l 1
 13 0 l 1
3 0 m 1
 3 2 l 1
 5 2 l 1
 5 0 l 1
 3 0 l 1
5 2 m 1
 5 4 l 1
 5 6 l 1
 7 6 l 1
 7 4 l 1
 7 2 l 1
 5 2 l 1
13 4 m 1
 13 6 l 1
 11 6 l 1
 11 4 l 1
 13 4 l 1
9 6 m 1
 7 6 l 1
 7 8 l 1
 9 8 l 1
 9 6 l 1
5 6 m 1
 3 6 l 1
 3 8 l 1
 3 10 l 1
 1 10 l 1
 1 12 l 1
 3 12 l 1
 3 14 l 1
 5 14 l 1
 5 12 l 1
 5 10 l 1
 5 8 l 1
 5 6 l 1
11 8 m 1
 9 8 l 1
 9 10 l 1
 9 12 l 1
 11 12 l 1
 11 10 l 1
 11 8 l 1
11 12 m 1
 11 14 l 1
 13 14 l 1
 13 12 l 1
 11 12 l 1
EndSplineSet
Validated: 5
EndChar

StartChar: onehalf
Encoding: 189 189 124
Width: 17
GlyphClass: 2
Flags: W
LayerCount: 2
Fore
SplineSet
3 0 m 1
 3 2 l 1
 5 2 l 1
 5 0 l 1
 3 0 l 1
13 0 m 1
 11 0 l 1
 11 2 l 1
 11 4 l 1
 13 4 l 1
 13 2 l 1
 15 2 l 1
 15 0 l 1
 13 0 l 1
5 2 m 1
 5 4 l 1
 5 6 l 1
 7 6 l 1
 7 4 l 1
 7 2 l 1
 5 2 l 1
13 4 m 1
 13 6 l 1
 11 6 l 1
 11 8 l 1
 13 8 l 1
 15 8 l 1
 15 6 l 1
 15 4 l 1
 13 4 l 1
7 6 m 1
 7 8 l 1
 9 8 l 1
 9 6 l 1
 7 6 l 1
5 6 m 1
 3 6 l 1
 3 8 l 1
 3 10 l 1
 1 10 l 1
 1 12 l 1
 3 12 l 1
 3 14 l 1
 5 14 l 1
 5 12 l 1
 5 10 l 1
 5 8 l 1
 5 6 l 1
11 8 m 1
 9 8 l 1
 9 10 l 1
 9 12 l 1
 11 12 l 1
 11 10 l 1
 11 8 l 1
11 12 m 1
 11 14 l 1
 13 14 l 1
 13 12 l 1
 11 12 l 1
EndSplineSet
Validated: 5
EndChar

StartChar: threequarters
Encoding: 190 190 125
Width: 17
GlyphClass: 2
Flags: W
LayerCount: 2
Fore
SplineSet
13 0 m 1
 13 2 l 1
 11 2 l 1
 9 2 l 1
 9 4 l 1
 9 6 l 1
 11 6 l 1
 11 8 l 1
 13 8 l 1
 15 8 l 1
 15 6 l 1
 15 4 l 1
 15 2 l 1
 15 0 l 1
 13 0 l 1
3 0 m 1
 3 2 l 1
 5 2 l 1
 5 0 l 1
 3 0 l 1
5 2 m 1
 5 4 l 1
 5 6 l 1
 7 6 l 1
 7 4 l 1
 7 2 l 1
 5 2 l 1
13 4 m 1
 13 6 l 1
 11 6 l 1
 11 4 l 1
 13 4 l 1
9 6 m 1
 7 6 l 1
 7 8 l 1
 9 8 l 1
 9 6 l 1
5 6 m 1
 3 6 l 1
 1 6 l 1
 1 8 l 1
 3 8 l 1
 5 8 l 1
 5 6 l 1
11 8 m 1
 9 8 l 1
 9 10 l 1
 9 12 l 1
 11 12 l 1
 11 10 l 1
 11 8 l 1
7 8 m 1
 5 8 l 1
 5 10 l 1
 7 10 l 1
 7 8 l 1
5 10 m 1
 3 10 l 1
 3 12 l 1
 1 12 l 1
 1 14 l 1
 3 14 l 1
 5 14 l 1
 7 14 l 1
 7 12 l 1
 5 12 l 1
 5 10 l 1
11 12 m 1
 11 14 l 1
 13 14 l 1
 13 12 l 1
 11 12 l 1
EndSplineSet
Validated: 5
EndChar

StartChar: questiondown
Encoding: 191 191 126
Width: 13
GlyphClass: 2
Flags: W
LayerCount: 2
Fore
SplineSet
5 10 m 1
 5 12 l 1
 7 12 l 1
 7 10 l 1
 5 10 l 1
7 0 m 1
 9 0 l 1
 9 -2 l 1
 7 -2 l 1
 5 -2 l 1
 3 -2 l 1
 3 0 l 1
 5 0 l 1
 7 0 l 1
9 0 m 1
 9 2 l 1
 11 2 l 1
 11 0 l 1
 9 0 l 1
3 0 m 1
 1 0 l 1
 1 2 l 1
 1 4 l 1
 3 4 l 1
 3 2 l 1
 3 0 l 1
3 4 m 1
 3 6 l 1
 5 6 l 1
 5 4 l 1
 3 4 l 1
5 6 m 1
 5 8 l 1
 7 8 l 1
 7 6 l 1
 5 6 l 1
EndSplineSet
Validated: 5
EndChar

StartChar: Agrave
Encoding: 192 192 127
Width: 13
GlyphClass: 2
Flags: W
LayerCount: 2
Fore
SplineSet
9 0 m 1
 9 2 l 1
 9 4 l 1
 9 6 l 1
 9 8 l 1
 7 8 l 1
 5 8 l 1
 3 8 l 1
 3 6 l 1
 3 4 l 1
 3 2 l 1
 3 0 l 1
 1 0 l 1
 1 2 l 1
 1 4 l 1
 1 6 l 1
 1 8 l 1
 1 10 l 1
 1 12 l 1
 3 12 l 1
 3 10 l 1
 5 10 l 1
 7 10 l 1
 9 10 l 1
 9 12 l 1
 11 12 l 1
 11 10 l 1
 11 8 l 1
 11 6 l 1
 11 4 l 1
 11 2 l 1
 11 0 l 1
 9 0 l 1
5 16 m 1
 5 18 l 1
 7 18 l 1
 7 16 l 1
 5 16 l 1
9 12 m 1
 7 12 l 1
 5 12 l 1
 3 12 l 1
 3 14 l 1
 5 14 l 1
 7 14 l 1
 9 14 l 1
 9 12 l 1
5 18 m 1
 3 18 l 1
 3 20 l 1
 5 20 l 1
 5 18 l 1
EndSplineSet
Validated: 5
EndChar

StartChar: Aacute
Encoding: 193 193 128
Width: 13
GlyphClass: 2
Flags: W
LayerCount: 2
Fore
SplineSet
9 0 m 1
 9 2 l 1
 9 4 l 1
 9 6 l 1
 9 8 l 1
 7 8 l 1
 5 8 l 1
 3 8 l 1
 3 6 l 1
 3 4 l 1
 3 2 l 1
 3 0 l 1
 1 0 l 1
 1 2 l 1
 1 4 l 1
 1 6 l 1
 1 8 l 1
 1 10 l 1
 1 12 l 1
 3 12 l 1
 3 10 l 1
 5 10 l 1
 7 10 l 1
 9 10 l 1
 9 12 l 1
 11 12 l 1
 11 10 l 1
 11 8 l 1
 11 6 l 1
 11 4 l 1
 11 2 l 1
 11 0 l 1
 9 0 l 1
5 16 m 1
 5 18 l 1
 7 18 l 1
 7 16 l 1
 5 16 l 1
9 12 m 1
 7 12 l 1
 5 12 l 1
 3 12 l 1
 3 14 l 1
 5 14 l 1
 7 14 l 1
 9 14 l 1
 9 12 l 1
7 18 m 1
 7 20 l 1
 9 20 l 1
 9 18 l 1
 7 18 l 1
EndSplineSet
Validated: 5
EndChar

StartChar: Acircumflex
Encoding: 194 194 129
Width: 13
GlyphClass: 2
Flags: W
LayerCount: 2
Fore
SplineSet
9 0 m 1
 9 2 l 1
 9 4 l 1
 9 6 l 1
 9 8 l 1
 7 8 l 1
 5 8 l 1
 3 8 l 1
 3 6 l 1
 3 4 l 1
 3 2 l 1
 3 0 l 1
 1 0 l 1
 1 2 l 1
 1 4 l 1
 1 6 l 1
 1 8 l 1
 1 10 l 1
 1 12 l 1
 3 12 l 1
 3 10 l 1
 5 10 l 1
 7 10 l 1
 9 10 l 1
 9 12 l 1
 11 12 l 1
 11 10 l 1
 11 8 l 1
 11 6 l 1
 11 4 l 1
 11 2 l 1
 11 0 l 1
 9 0 l 1
7 16 m 1
 7 18 l 1
 9 18 l 1
 9 16 l 1
 7 16 l 1
3 16 m 1
 3 18 l 1
 5 18 l 1
 5 16 l 1
 3 16 l 1
9 12 m 1
 7 12 l 1
 5 12 l 1
 3 12 l 1
 3 14 l 1
 5 14 l 1
 7 14 l 1
 9 14 l 1
 9 12 l 1
7 18 m 1
 5 18 l 1
 5 20 l 1
 7 20 l 1
 7 18 l 1
EndSplineSet
Validated: 5
EndChar

StartChar: Atilde
Encoding: 195 195 130
Width: 13
GlyphClass: 2
Flags: W
LayerCount: 2
Fore
SplineSet
9 0 m 1
 9 2 l 1
 9 4 l 1
 9 6 l 1
 9 8 l 1
 7 8 l 1
 5 8 l 1
 3 8 l 1
 3 6 l 1
 3 4 l 1
 3 2 l 1
 3 0 l 1
 1 0 l 1
 1 2 l 1
 1 4 l 1
 1 6 l 1
 1 8 l 1
 1 10 l 1
 1 12 l 1
 3 12 l 1
 3 10 l 1
 5 10 l 1
 7 10 l 1
 9 10 l 1
 9 12 l 1
 11 12 l 1
 11 10 l 1
 11 8 l 1
 11 6 l 1
 11 4 l 1
 11 2 l 1
 11 0 l 1
 9 0 l 1
7 16 m 1
 7 18 l 1
 9 18 l 1
 9 16 l 1
 7 16 l 1
3 16 m 1
 3 18 l 1
 5 18 l 1
 5 16 l 1
 3 16 l 1
9 12 m 1
 7 12 l 1
 5 12 l 1
 3 12 l 1
 3 14 l 1
 5 14 l 1
 7 14 l 1
 9 14 l 1
 9 12 l 1
9 18 m 1
 9 20 l 1
 11 20 l 1
 11 18 l 1
 9 18 l 1
7 18 m 1
 5 18 l 1
 5 20 l 1
 7 20 l 1
 7 18 l 1
EndSplineSet
Validated: 5
EndChar

StartChar: Adieresis
Encoding: 196 196 131
Width: 13
GlyphClass: 2
Flags: W
LayerCount: 2
Fore
SplineSet
9 0 m 1
 9 2 l 1
 9 4 l 1
 9 6 l 1
 9 8 l 1
 7 8 l 1
 5 8 l 1
 3 8 l 1
 3 6 l 1
 3 4 l 1
 3 2 l 1
 3 0 l 1
 1 0 l 1
 1 2 l 1
 1 4 l 1
 1 6 l 1
 1 8 l 1
 1 10 l 1
 1 12 l 1
 3 12 l 1
 3 10 l 1
 5 10 l 1
 7 10 l 1
 9 10 l 1
 9 12 l 1
 11 12 l 1
 11 10 l 1
 11 8 l 1
 11 6 l 1
 11 4 l 1
 11 2 l 1
 11 0 l 1
 9 0 l 1
7 16 m 1
 7 18 l 1
 9 18 l 1
 9 16 l 1
 7 16 l 1
3 16 m 1
 3 18 l 1
 5 18 l 1
 5 16 l 1
 3 16 l 1
9 12 m 1
 7 12 l 1
 5 12 l 1
 3 12 l 1
 3 14 l 1
 5 14 l 1
 7 14 l 1
 9 14 l 1
 9 12 l 1
EndSplineSet
Validated: 5
EndChar

StartChar: Aring
Encoding: 197 197 132
Width: 13
GlyphClass: 2
Flags: W
LayerCount: 2
Fore
SplineSet
9 0 m 1
 9 2 l 1
 9 4 l 1
 9 6 l 1
 9 8 l 1
 7 8 l 1
 5 8 l 1
 3 8 l 1
 3 6 l 1
 3 4 l 1
 3 2 l 1
 3 0 l 1
 1 0 l 1
 1 2 l 1
 1 4 l 1
 1 6 l 1
 1 8 l 1
 1 10 l 1
 1 12 l 1
 3 12 l 1
 3 10 l 1
 5 10 l 1
 7 10 l 1
 9 10 l 1
 9 12 l 1
 11 12 l 1
 11 10 l 1
 11 8 l 1
 11 6 l 1
 11 4 l 1
 11 2 l 1
 11 0 l 1
 9 0 l 1
9 12 m 1
 7 12 l 1
 5 12 l 1
 3 12 l 1
 3 14 l 1
 5 14 l 1
 5 16 l 1
 7 16 l 1
 7 14 l 1
 9 14 l 1
 9 12 l 1
7 16 m 1
 7 18 l 1
 9 18 l 1
 9 16 l 1
 7 16 l 1
5 16 m 1
 3 16 l 1
 3 18 l 1
 5 18 l 1
 5 16 l 1
7 18 m 1
 5 18 l 1
 5 20 l 1
 7 20 l 1
 7 18 l 1
EndSplineSet
Validated: 5
EndChar

StartChar: AE
Encoding: 198 198 133
Width: 21
GlyphClass: 2
Flags: W
LayerCount: 2
Fore
SplineSet
1 0 m 1
 1 2 l 1
 1 4 l 1
 1 6 l 1
 1 8 l 1
 1 10 l 1
 1 12 l 1
 3 12 l 1
 3 14 l 1
 5 14 l 1
 7 14 l 1
 9 14 l 1
 11 14 l 1
 13 14 l 1
 15 14 l 1
 17 14 l 1
 19 14 l 1
 19 12 l 1
 17 12 l 1
 15 12 l 1
 13 12 l 1
 11 12 l 1
 11 10 l 1
 13 10 l 1
 15 10 l 1
 15 8 l 1
 13 8 l 1
 11 8 l 1
 11 6 l 1
 11 4 l 1
 11 2 l 1
 13 2 l 1
 15 2 l 1
 17 2 l 1
 19 2 l 1
 19 0 l 1
 17 0 l 1
 15 0 l 1
 13 0 l 1
 11 0 l 1
 9 0 l 1
 9 2 l 1
 9 4 l 1
 9 6 l 1
 9 8 l 1
 7 8 l 1
 5 8 l 1
 3 8 l 1
 3 6 l 1
 3 4 l 1
 3 2 l 1
 3 0 l 1
 1 0 l 1
7 10 m 1
 9 10 l 1
 9 12 l 1
 7 12 l 1
 5 12 l 1
 3 12 l 1
 3 10 l 1
 5 10 l 1
 7 10 l 1
EndSplineSet
Validated: 5
EndChar

StartChar: Ccedilla
Encoding: 199 199 134
Width: 13
GlyphClass: 2
Flags: W
LayerCount: 2
Fore
SplineSet
5 -4 m 1
 5 -2 l 1
 7 -2 l 1
 7 -4 l 1
 5 -4 l 1
9 10 m 1
 9 12 l 1
 11 12 l 1
 11 10 l 1
 9 10 l 1
7 -2 m 1
 7 0 l 1
 5 0 l 1
 3 0 l 1
 3 2 l 1
 5 2 l 1
 7 2 l 1
 9 2 l 1
 9 0 l 1
 9 -2 l 1
 7 -2 l 1
9 2 m 1
 9 4 l 1
 11 4 l 1
 11 2 l 1
 9 2 l 1
3 2 m 1
 1 2 l 1
 1 4 l 1
 1 6 l 1
 1 8 l 1
 1 10 l 1
 1 12 l 1
 3 12 l 1
 3 10 l 1
 3 8 l 1
 3 6 l 1
 3 4 l 1
 3 2 l 1
9 12 m 1
 7 12 l 1
 5 12 l 1
 3 12 l 1
 3 14 l 1
 5 14 l 1
 7 14 l 1
 9 14 l 1
 9 12 l 1
EndSplineSet
Validated: 5
EndChar

StartChar: Egrave
Encoding: 200 200 135
Width: 13
GlyphClass: 2
Flags: W
LayerCount: 2
Fore
SplineSet
5 16 m 1
 5 18 l 1
 7 18 l 1
 7 16 l 1
 5 16 l 1
9 2 m 1
 11 2 l 1
 11 0 l 1
 9 0 l 1
 7 0 l 1
 5 0 l 1
 3 0 l 1
 1 0 l 1
 1 2 l 1
 1 4 l 1
 1 6 l 1
 1 8 l 1
 1 10 l 1
 1 12 l 1
 1 14 l 1
 3 14 l 1
 5 14 l 1
 7 14 l 1
 9 14 l 1
 11 14 l 1
 11 12 l 1
 9 12 l 1
 7 12 l 1
 5 12 l 1
 3 12 l 1
 3 10 l 1
 5 10 l 1
 7 10 l 1
 7 8 l 1
 5 8 l 1
 3 8 l 1
 3 6 l 1
 3 4 l 1
 3 2 l 1
 5 2 l 1
 7 2 l 1
 9 2 l 1
5 18 m 1
 3 18 l 1
 3 20 l 1
 5 20 l 1
 5 18 l 1
EndSplineSet
Validated: 5
EndChar

StartChar: Eacute
Encoding: 201 201 136
Width: 13
GlyphClass: 2
Flags: W
LayerCount: 2
Fore
SplineSet
5 16 m 1
 5 18 l 1
 7 18 l 1
 7 16 l 1
 5 16 l 1
9 2 m 1
 11 2 l 1
 11 0 l 1
 9 0 l 1
 7 0 l 1
 5 0 l 1
 3 0 l 1
 1 0 l 1
 1 2 l 1
 1 4 l 1
 1 6 l 1
 1 8 l 1
 1 10 l 1
 1 12 l 1
 1 14 l 1
 3 14 l 1
 5 14 l 1
 7 14 l 1
 9 14 l 1
 11 14 l 1
 11 12 l 1
 9 12 l 1
 7 12 l 1
 5 12 l 1
 3 12 l 1
 3 10 l 1
 5 10 l 1
 7 10 l 1
 7 8 l 1
 5 8 l 1
 3 8 l 1
 3 6 l 1
 3 4 l 1
 3 2 l 1
 5 2 l 1
 7 2 l 1
 9 2 l 1
7 18 m 1
 7 20 l 1
 9 20 l 1
 9 18 l 1
 7 18 l 1
EndSplineSet
Validated: 5
EndChar

StartChar: Ecircumflex
Encoding: 202 202 137
Width: 13
GlyphClass: 2
Flags: W
LayerCount: 2
Fore
SplineSet
7 16 m 1
 7 18 l 1
 9 18 l 1
 9 16 l 1
 7 16 l 1
3 16 m 1
 3 18 l 1
 5 18 l 1
 5 16 l 1
 3 16 l 1
9 2 m 1
 11 2 l 1
 11 0 l 1
 9 0 l 1
 7 0 l 1
 5 0 l 1
 3 0 l 1
 1 0 l 1
 1 2 l 1
 1 4 l 1
 1 6 l 1
 1 8 l 1
 1 10 l 1
 1 12 l 1
 1 14 l 1
 3 14 l 1
 5 14 l 1
 7 14 l 1
 9 14 l 1
 11 14 l 1
 11 12 l 1
 9 12 l 1
 7 12 l 1
 5 12 l 1
 3 12 l 1
 3 10 l 1
 5 10 l 1
 7 10 l 1
 7 8 l 1
 5 8 l 1
 3 8 l 1
 3 6 l 1
 3 4 l 1
 3 2 l 1
 5 2 l 1
 7 2 l 1
 9 2 l 1
7 18 m 1
 5 18 l 1
 5 20 l 1
 7 20 l 1
 7 18 l 1
EndSplineSet
Validated: 5
EndChar

StartChar: Edieresis
Encoding: 203 203 138
Width: 13
GlyphClass: 2
Flags: W
LayerCount: 2
Fore
SplineSet
7 16 m 1
 7 18 l 1
 9 18 l 1
 9 16 l 1
 7 16 l 1
3 16 m 1
 3 18 l 1
 5 18 l 1
 5 16 l 1
 3 16 l 1
9 2 m 1
 11 2 l 1
 11 0 l 1
 9 0 l 1
 7 0 l 1
 5 0 l 1
 3 0 l 1
 1 0 l 1
 1 2 l 1
 1 4 l 1
 1 6 l 1
 1 8 l 1
 1 10 l 1
 1 12 l 1
 1 14 l 1
 3 14 l 1
 5 14 l 1
 7 14 l 1
 9 14 l 1
 11 14 l 1
 11 12 l 1
 9 12 l 1
 7 12 l 1
 5 12 l 1
 3 12 l 1
 3 10 l 1
 5 10 l 1
 7 10 l 1
 7 8 l 1
 5 8 l 1
 3 8 l 1
 3 6 l 1
 3 4 l 1
 3 2 l 1
 5 2 l 1
 7 2 l 1
 9 2 l 1
EndSplineSet
Validated: 1
EndChar

StartChar: Igrave
Encoding: 204 204 139
Width: 9
GlyphClass: 2
Flags: W
LayerCount: 2
Fore
SplineSet
3 16 m 1
 3 18 l 1
 5 18 l 1
 5 16 l 1
 3 16 l 1
5 0 m 1
 3 0 l 1
 1 0 l 1
 1 2 l 1
 3 2 l 1
 3 4 l 1
 3 6 l 1
 3 8 l 1
 3 10 l 1
 3 12 l 1
 1 12 l 1
 1 14 l 1
 3 14 l 1
 5 14 l 1
 7 14 l 1
 7 12 l 1
 5 12 l 1
 5 10 l 1
 5 8 l 1
 5 6 l 1
 5 4 l 1
 5 2 l 1
 7 2 l 1
 7 0 l 1
 5 0 l 1
3 18 m 1
 1 18 l 1
 1 20 l 1
 3 20 l 1
 3 18 l 1
EndSplineSet
Validated: 5
EndChar

StartChar: Iacute
Encoding: 205 205 140
Width: 9
GlyphClass: 2
Flags: W
LayerCount: 2
Fore
SplineSet
3 16 m 1
 3 18 l 1
 5 18 l 1
 5 16 l 1
 3 16 l 1
5 0 m 1
 3 0 l 1
 1 0 l 1
 1 2 l 1
 3 2 l 1
 3 4 l 1
 3 6 l 1
 3 8 l 1
 3 10 l 1
 3 12 l 1
 1 12 l 1
 1 14 l 1
 3 14 l 1
 5 14 l 1
 7 14 l 1
 7 12 l 1
 5 12 l 1
 5 10 l 1
 5 8 l 1
 5 6 l 1
 5 4 l 1
 5 2 l 1
 7 2 l 1
 7 0 l 1
 5 0 l 1
5 18 m 1
 5 20 l 1
 7 20 l 1
 7 18 l 1
 5 18 l 1
EndSplineSet
Validated: 5
EndChar

StartChar: Icircumflex
Encoding: 206 206 141
Width: 9
GlyphClass: 2
Flags: W
LayerCount: 2
Fore
SplineSet
5 16 m 1
 5 18 l 1
 7 18 l 1
 7 16 l 1
 5 16 l 1
1 16 m 1
 1 18 l 1
 3 18 l 1
 3 16 l 1
 1 16 l 1
5 0 m 1
 3 0 l 1
 1 0 l 1
 1 2 l 1
 3 2 l 1
 3 4 l 1
 3 6 l 1
 3 8 l 1
 3 10 l 1
 3 12 l 1
 1 12 l 1
 1 14 l 1
 3 14 l 1
 5 14 l 1
 7 14 l 1
 7 12 l 1
 5 12 l 1
 5 10 l 1
 5 8 l 1
 5 6 l 1
 5 4 l 1
 5 2 l 1
 7 2 l 1
 7 0 l 1
 5 0 l 1
5 18 m 1
 3 18 l 1
 3 20 l 1
 5 20 l 1
 5 18 l 1
EndSplineSet
Validated: 5
EndChar

StartChar: Idieresis
Encoding: 207 207 142
Width: 9
GlyphClass: 2
Flags: W
LayerCount: 2
Fore
SplineSet
5 16 m 1
 5 18 l 1
 7 18 l 1
 7 16 l 1
 5 16 l 1
1 16 m 1
 1 18 l 1
 3 18 l 1
 3 16 l 1
 1 16 l 1
5 0 m 1
 3 0 l 1
 1 0 l 1
 1 2 l 1
 3 2 l 1
 3 4 l 1
 3 6 l 1
 3 8 l 1
 3 10 l 1
 3 12 l 1
 1 12 l 1
 1 14 l 1
 3 14 l 1
 5 14 l 1
 7 14 l 1
 7 12 l 1
 5 12 l 1
 5 10 l 1
 5 8 l 1
 5 6 l 1
 5 4 l 1
 5 2 l 1
 7 2 l 1
 7 0 l 1
 5 0 l 1
EndSplineSet
Validated: 1
EndChar

StartChar: Eth
Encoding: 208 208 143
Width: 15
GlyphClass: 2
Flags: W
LayerCount: 2
Fore
SplineSet
9 2 m 1
 11 2 l 1
 11 4 l 1
 11 6 l 1
 11 8 l 1
 11 10 l 1
 11 12 l 1
 9 12 l 1
 7 12 l 1
 5 12 l 1
 5 10 l 1
 7 10 l 1
 7 8 l 1
 5 8 l 1
 5 6 l 1
 5 4 l 1
 5 2 l 1
 7 2 l 1
 9 2 l 1
9 0 m 1
 7 0 l 1
 5 0 l 1
 3 0 l 1
 3 2 l 1
 3 4 l 1
 3 6 l 1
 3 8 l 1
 1 8 l 1
 1 10 l 1
 3 10 l 1
 3 12 l 1
 3 14 l 1
 5 14 l 1
 7 14 l 1
 9 14 l 1
 11 14 l 1
 11 12 l 1
 13 12 l 1
 13 10 l 1
 13 8 l 1
 13 6 l 1
 13 4 l 1
 13 2 l 1
 11 2 l 1
 11 0 l 1
 9 0 l 1
EndSplineSet
Validated: 5
EndChar

StartChar: Ntilde
Encoding: 209 209 144
Width: 13
GlyphClass: 2
Flags: W
LayerCount: 2
Fore
SplineSet
9 0 m 1
 9 2 l 1
 9 4 l 1
 9 6 l 1
 7 6 l 1
 7 8 l 1
 9 8 l 1
 9 10 l 1
 9 12 l 1
 9 14 l 1
 11 14 l 1
 11 12 l 1
 11 10 l 1
 11 8 l 1
 11 6 l 1
 11 4 l 1
 11 2 l 1
 11 0 l 1
 9 0 l 1
1 0 m 1
 1 2 l 1
 1 4 l 1
 1 6 l 1
 1 8 l 1
 1 10 l 1
 1 12 l 1
 1 14 l 1
 3 14 l 1
 3 12 l 1
 5 12 l 1
 5 10 l 1
 7 10 l 1
 7 8 l 1
 5 8 l 1
 5 10 l 1
 3 10 l 1
 3 8 l 1
 3 6 l 1
 3 4 l 1
 3 2 l 1
 3 0 l 1
 1 0 l 1
7 16 m 1
 7 18 l 1
 9 18 l 1
 9 16 l 1
 7 16 l 1
3 16 m 1
 3 18 l 1
 5 18 l 1
 5 16 l 1
 3 16 l 1
9 18 m 1
 9 20 l 1
 11 20 l 1
 11 18 l 1
 9 18 l 1
7 18 m 1
 5 18 l 1
 5 20 l 1
 7 20 l 1
 7 18 l 1
EndSplineSet
Validated: 5
EndChar

StartChar: Ograve
Encoding: 210 210 145
Width: 13
GlyphClass: 2
Flags: W
LayerCount: 2
Fore
SplineSet
5 16 m 1
 5 18 l 1
 7 18 l 1
 7 16 l 1
 5 16 l 1
7 2 m 1
 9 2 l 1
 9 0 l 1
 7 0 l 1
 5 0 l 1
 3 0 l 1
 3 2 l 1
 5 2 l 1
 7 2 l 1
9 2 m 1
 9 4 l 1
 9 6 l 1
 9 8 l 1
 9 10 l 1
 9 12 l 1
 11 12 l 1
 11 10 l 1
 11 8 l 1
 11 6 l 1
 11 4 l 1
 11 2 l 1
 9 2 l 1
3 2 m 1
 1 2 l 1
 1 4 l 1
 1 6 l 1
 1 8 l 1
 1 10 l 1
 1 12 l 1
 3 12 l 1
 3 10 l 1
 3 8 l 1
 3 6 l 1
 3 4 l 1
 3 2 l 1
9 12 m 1
 7 12 l 1
 5 12 l 1
 3 12 l 1
 3 14 l 1
 5 14 l 1
 7 14 l 1
 9 14 l 1
 9 12 l 1
5 18 m 1
 3 18 l 1
 3 20 l 1
 5 20 l 1
 5 18 l 1
EndSplineSet
Validated: 5
EndChar

StartChar: Oacute
Encoding: 211 211 146
Width: 13
GlyphClass: 2
Flags: W
LayerCount: 2
Fore
SplineSet
5 16 m 1
 5 18 l 1
 7 18 l 1
 7 16 l 1
 5 16 l 1
7 2 m 1
 9 2 l 1
 9 0 l 1
 7 0 l 1
 5 0 l 1
 3 0 l 1
 3 2 l 1
 5 2 l 1
 7 2 l 1
9 2 m 1
 9 4 l 1
 9 6 l 1
 9 8 l 1
 9 10 l 1
 9 12 l 1
 11 12 l 1
 11 10 l 1
 11 8 l 1
 11 6 l 1
 11 4 l 1
 11 2 l 1
 9 2 l 1
3 2 m 1
 1 2 l 1
 1 4 l 1
 1 6 l 1
 1 8 l 1
 1 10 l 1
 1 12 l 1
 3 12 l 1
 3 10 l 1
 3 8 l 1
 3 6 l 1
 3 4 l 1
 3 2 l 1
9 12 m 1
 7 12 l 1
 5 12 l 1
 3 12 l 1
 3 14 l 1
 5 14 l 1
 7 14 l 1
 9 14 l 1
 9 12 l 1
7 18 m 1
 7 20 l 1
 9 20 l 1
 9 18 l 1
 7 18 l 1
EndSplineSet
Validated: 5
EndChar

StartChar: Ocircumflex
Encoding: 212 212 147
Width: 13
GlyphClass: 2
Flags: W
LayerCount: 2
Fore
SplineSet
7 16 m 1
 7 18 l 1
 9 18 l 1
 9 16 l 1
 7 16 l 1
3 16 m 1
 3 18 l 1
 5 18 l 1
 5 16 l 1
 3 16 l 1
7 2 m 1
 9 2 l 1
 9 0 l 1
 7 0 l 1
 5 0 l 1
 3 0 l 1
 3 2 l 1
 5 2 l 1
 7 2 l 1
9 2 m 1
 9 4 l 1
 9 6 l 1
 9 8 l 1
 9 10 l 1
 9 12 l 1
 11 12 l 1
 11 10 l 1
 11 8 l 1
 11 6 l 1
 11 4 l 1
 11 2 l 1
 9 2 l 1
3 2 m 1
 1 2 l 1
 1 4 l 1
 1 6 l 1
 1 8 l 1
 1 10 l 1
 1 12 l 1
 3 12 l 1
 3 10 l 1
 3 8 l 1
 3 6 l 1
 3 4 l 1
 3 2 l 1
9 12 m 1
 7 12 l 1
 5 12 l 1
 3 12 l 1
 3 14 l 1
 5 14 l 1
 7 14 l 1
 9 14 l 1
 9 12 l 1
7 18 m 1
 5 18 l 1
 5 20 l 1
 7 20 l 1
 7 18 l 1
EndSplineSet
Validated: 5
EndChar

StartChar: Otilde
Encoding: 213 213 148
Width: 13
GlyphClass: 2
Flags: W
LayerCount: 2
Fore
SplineSet
7 16 m 1
 7 18 l 1
 9 18 l 1
 9 16 l 1
 7 16 l 1
3 16 m 1
 3 18 l 1
 5 18 l 1
 5 16 l 1
 3 16 l 1
7 2 m 1
 9 2 l 1
 9 0 l 1
 7 0 l 1
 5 0 l 1
 3 0 l 1
 3 2 l 1
 5 2 l 1
 7 2 l 1
9 2 m 1
 9 4 l 1
 9 6 l 1
 9 8 l 1
 9 10 l 1
 9 12 l 1
 11 12 l 1
 11 10 l 1
 11 8 l 1
 11 6 l 1
 11 4 l 1
 11 2 l 1
 9 2 l 1
3 2 m 1
 1 2 l 1
 1 4 l 1
 1 6 l 1
 1 8 l 1
 1 10 l 1
 1 12 l 1
 3 12 l 1
 3 10 l 1
 3 8 l 1
 3 6 l 1
 3 4 l 1
 3 2 l 1
9 12 m 1
 7 12 l 1
 5 12 l 1
 3 12 l 1
 3 14 l 1
 5 14 l 1
 7 14 l 1
 9 14 l 1
 9 12 l 1
9 18 m 1
 9 20 l 1
 11 20 l 1
 11 18 l 1
 9 18 l 1
7 18 m 1
 5 18 l 1
 5 20 l 1
 7 20 l 1
 7 18 l 1
EndSplineSet
Validated: 5
EndChar

StartChar: Odieresis
Encoding: 214 214 149
Width: 13
GlyphClass: 2
Flags: W
LayerCount: 2
Fore
SplineSet
7 16 m 1
 7 18 l 1
 9 18 l 1
 9 16 l 1
 7 16 l 1
3 16 m 1
 3 18 l 1
 5 18 l 1
 5 16 l 1
 3 16 l 1
7 2 m 1
 9 2 l 1
 9 0 l 1
 7 0 l 1
 5 0 l 1
 3 0 l 1
 3 2 l 1
 5 2 l 1
 7 2 l 1
9 2 m 1
 9 4 l 1
 9 6 l 1
 9 8 l 1
 9 10 l 1
 9 12 l 1
 11 12 l 1
 11 10 l 1
 11 8 l 1
 11 6 l 1
 11 4 l 1
 11 2 l 1
 9 2 l 1
3 2 m 1
 1 2 l 1
 1 4 l 1
 1 6 l 1
 1 8 l 1
 1 10 l 1
 1 12 l 1
 3 12 l 1
 3 10 l 1
 3 8 l 1
 3 6 l 1
 3 4 l 1
 3 2 l 1
9 12 m 1
 7 12 l 1
 5 12 l 1
 3 12 l 1
 3 14 l 1
 5 14 l 1
 7 14 l 1
 9 14 l 1
 9 12 l 1
EndSplineSet
Validated: 5
EndChar

StartChar: multiply
Encoding: 215 215 150
Width: 13
GlyphClass: 2
Flags: W
LayerCount: 2
Fore
SplineSet
9 2 m 1
 9 4 l 1
 11 4 l 1
 11 2 l 1
 9 2 l 1
1 2 m 1
 1 4 l 1
 3 4 l 1
 3 2 l 1
 1 2 l 1
9 4 m 1
 7 4 l 1
 7 6 l 1
 9 6 l 1
 9 4 l 1
3 4 m 1
 3 6 l 1
 5 6 l 1
 5 4 l 1
 3 4 l 1
7 6 m 1
 5 6 l 1
 5 8 l 1
 7 8 l 1
 7 6 l 1
7 8 m 1
 7 10 l 1
 9 10 l 1
 9 8 l 1
 7 8 l 1
5 8 m 1
 3 8 l 1
 3 10 l 1
 5 10 l 1
 5 8 l 1
9 10 m 1
 9 12 l 1
 11 12 l 1
 11 10 l 1
 9 10 l 1
3 10 m 1
 1 10 l 1
 1 12 l 1
 3 12 l 1
 3 10 l 1
EndSplineSet
Validated: 5
EndChar

StartChar: Oslash
Encoding: 216 216 151
Width: 13
GlyphClass: 2
Flags: W
LayerCount: 2
Fore
SplineSet
7 2 m 1
 9 2 l 1
 9 0 l 1
 7 0 l 1
 5 0 l 1
 3 0 l 1
 3 2 l 1
 1 2 l 1
 1 4 l 1
 1 6 l 1
 1 8 l 1
 1 10 l 1
 1 12 l 1
 3 12 l 1
 3 10 l 1
 3 8 l 1
 3 6 l 1
 5 6 l 1
 5 4 l 1
 5 2 l 1
 7 2 l 1
9 2 m 1
 9 4 l 1
 9 6 l 1
 9 8 l 1
 7 8 l 1
 7 6 l 1
 5 6 l 1
 5 8 l 1
 7 8 l 1
 7 10 l 1
 7 12 l 1
 5 12 l 1
 3 12 l 1
 3 14 l 1
 5 14 l 1
 7 14 l 1
 9 14 l 1
 9 12 l 1
 11 12 l 1
 11 10 l 1
 11 8 l 1
 11 6 l 1
 11 4 l 1
 11 2 l 1
 9 2 l 1
EndSplineSet
Validated: 5
EndChar

StartChar: Ugrave
Encoding: 217 217 152
Width: 13
GlyphClass: 2
Flags: W
LayerCount: 2
Fore
SplineSet
5 16 m 1
 5 18 l 1
 7 18 l 1
 7 16 l 1
 5 16 l 1
7 2 m 1
 9 2 l 1
 9 0 l 1
 7 0 l 1
 5 0 l 1
 3 0 l 1
 3 2 l 1
 5 2 l 1
 7 2 l 1
9 2 m 1
 9 4 l 1
 9 6 l 1
 9 8 l 1
 9 10 l 1
 9 12 l 1
 9 14 l 1
 11 14 l 1
 11 12 l 1
 11 10 l 1
 11 8 l 1
 11 6 l 1
 11 4 l 1
 11 2 l 1
 9 2 l 1
3 2 m 1
 1 2 l 1
 1 4 l 1
 1 6 l 1
 1 8 l 1
 1 10 l 1
 1 12 l 1
 1 14 l 1
 3 14 l 1
 3 12 l 1
 3 10 l 1
 3 8 l 1
 3 6 l 1
 3 4 l 1
 3 2 l 1
5 18 m 1
 3 18 l 1
 3 20 l 1
 5 20 l 1
 5 18 l 1
EndSplineSet
Validated: 5
EndChar

StartChar: Uacute
Encoding: 218 218 153
Width: 13
GlyphClass: 2
Flags: W
LayerCount: 2
Fore
SplineSet
5 16 m 1
 5 18 l 1
 7 18 l 1
 7 16 l 1
 5 16 l 1
7 2 m 1
 9 2 l 1
 9 0 l 1
 7 0 l 1
 5 0 l 1
 3 0 l 1
 3 2 l 1
 5 2 l 1
 7 2 l 1
9 2 m 1
 9 4 l 1
 9 6 l 1
 9 8 l 1
 9 10 l 1
 9 12 l 1
 9 14 l 1
 11 14 l 1
 11 12 l 1
 11 10 l 1
 11 8 l 1
 11 6 l 1
 11 4 l 1
 11 2 l 1
 9 2 l 1
3 2 m 1
 1 2 l 1
 1 4 l 1
 1 6 l 1
 1 8 l 1
 1 10 l 1
 1 12 l 1
 1 14 l 1
 3 14 l 1
 3 12 l 1
 3 10 l 1
 3 8 l 1
 3 6 l 1
 3 4 l 1
 3 2 l 1
7 18 m 1
 7 20 l 1
 9 20 l 1
 9 18 l 1
 7 18 l 1
EndSplineSet
Validated: 5
EndChar

StartChar: Ucircumflex
Encoding: 219 219 154
Width: 13
GlyphClass: 2
Flags: W
LayerCount: 2
Fore
SplineSet
7 16 m 1
 7 18 l 1
 9 18 l 1
 9 16 l 1
 7 16 l 1
3 16 m 1
 3 18 l 1
 5 18 l 1
 5 16 l 1
 3 16 l 1
7 2 m 1
 9 2 l 1
 9 0 l 1
 7 0 l 1
 5 0 l 1
 3 0 l 1
 3 2 l 1
 5 2 l 1
 7 2 l 1
9 2 m 1
 9 4 l 1
 9 6 l 1
 9 8 l 1
 9 10 l 1
 9 12 l 1
 9 14 l 1
 11 14 l 1
 11 12 l 1
 11 10 l 1
 11 8 l 1
 11 6 l 1
 11 4 l 1
 11 2 l 1
 9 2 l 1
3 2 m 1
 1 2 l 1
 1 4 l 1
 1 6 l 1
 1 8 l 1
 1 10 l 1
 1 12 l 1
 1 14 l 1
 3 14 l 1
 3 12 l 1
 3 10 l 1
 3 8 l 1
 3 6 l 1
 3 4 l 1
 3 2 l 1
7 18 m 1
 5 18 l 1
 5 20 l 1
 7 20 l 1
 7 18 l 1
EndSplineSet
Validated: 5
EndChar

StartChar: Udieresis
Encoding: 220 220 155
Width: 13
GlyphClass: 2
Flags: W
LayerCount: 2
Fore
SplineSet
7 16 m 1
 7 18 l 1
 9 18 l 1
 9 16 l 1
 7 16 l 1
3 16 m 1
 3 18 l 1
 5 18 l 1
 5 16 l 1
 3 16 l 1
7 2 m 1
 9 2 l 1
 9 0 l 1
 7 0 l 1
 5 0 l 1
 3 0 l 1
 3 2 l 1
 5 2 l 1
 7 2 l 1
9 2 m 1
 9 4 l 1
 9 6 l 1
 9 8 l 1
 9 10 l 1
 9 12 l 1
 9 14 l 1
 11 14 l 1
 11 12 l 1
 11 10 l 1
 11 8 l 1
 11 6 l 1
 11 4 l 1
 11 2 l 1
 9 2 l 1
3 2 m 1
 1 2 l 1
 1 4 l 1
 1 6 l 1
 1 8 l 1
 1 10 l 1
 1 12 l 1
 1 14 l 1
 3 14 l 1
 3 12 l 1
 3 10 l 1
 3 8 l 1
 3 6 l 1
 3 4 l 1
 3 2 l 1
EndSplineSet
Validated: 5
EndChar

StartChar: Yacute
Encoding: 221 221 156
Width: 13
GlyphClass: 2
Flags: W
LayerCount: 2
Fore
SplineSet
5 0 m 1
 5 2 l 1
 5 4 l 1
 5 6 l 1
 5 8 l 1
 5 10 l 1
 7 10 l 1
 7 8 l 1
 7 6 l 1
 7 4 l 1
 7 2 l 1
 7 0 l 1
 5 0 l 1
5 16 m 1
 5 18 l 1
 7 18 l 1
 7 16 l 1
 5 16 l 1
7 10 m 1
 7 12 l 1
 9 12 l 1
 9 10 l 1
 7 10 l 1
5 10 m 1
 3 10 l 1
 3 12 l 1
 5 12 l 1
 5 10 l 1
9 12 m 1
 9 14 l 1
 11 14 l 1
 11 12 l 1
 9 12 l 1
3 12 m 1
 1 12 l 1
 1 14 l 1
 3 14 l 1
 3 12 l 1
7 18 m 1
 7 20 l 1
 9 20 l 1
 9 18 l 1
 7 18 l 1
EndSplineSet
Validated: 5
EndChar

StartChar: Thorn
Encoding: 222 222 157
Width: 13
GlyphClass: 2
Flags: W
LayerCount: 2
Fore
SplineSet
1 0 m 1
 1 2 l 1
 1 4 l 1
 1 6 l 1
 1 8 l 1
 1 10 l 1
 1 12 l 1
 1 14 l 1
 3 14 l 1
 3 12 l 1
 3 10 l 1
 5 10 l 1
 7 10 l 1
 9 10 l 1
 9 8 l 1
 11 8 l 1
 11 6 l 1
 9 6 l 1
 9 8 l 1
 7 8 l 1
 5 8 l 1
 3 8 l 1
 3 6 l 1
 5 6 l 1
 7 6 l 1
 9 6 l 1
 9 4 l 1
 7 4 l 1
 5 4 l 1
 3 4 l 1
 3 2 l 1
 3 0 l 1
 1 0 l 1
EndSplineSet
Validated: 5
EndChar

StartChar: germandbls
Encoding: 223 223 158
Width: 13
GlyphClass: 2
Flags: W
LayerCount: 2
Fore
SplineSet
1 -2 m 1
 1 0 l 1
 1 2 l 1
 1 4 l 1
 1 6 l 1
 1 8 l 1
 1 10 l 1
 1 12 l 1
 3 12 l 1
 3 10 l 1
 3 8 l 1
 3 6 l 1
 3 4 l 1
 3 2 l 1
 3 0 l 1
 3 -2 l 1
 1 -2 l 1
7 2 m 1
 9 2 l 1
 9 0 l 1
 7 0 l 1
 5 0 l 1
 5 2 l 1
 7 2 l 1
9 2 m 1
 9 4 l 1
 9 6 l 1
 9 8 l 1
 11 8 l 1
 11 6 l 1
 11 4 l 1
 11 2 l 1
 9 2 l 1
9 8 m 1
 7 8 l 1
 5 8 l 1
 5 10 l 1
 7 10 l 1
 9 10 l 1
 9 8 l 1
9 10 m 1
 9 12 l 1
 11 12 l 1
 11 10 l 1
 9 10 l 1
9 12 m 1
 7 12 l 1
 5 12 l 1
 3 12 l 1
 3 14 l 1
 5 14 l 1
 7 14 l 1
 9 14 l 1
 9 12 l 1
EndSplineSet
Validated: 5
EndChar

StartChar: agrave
Encoding: 224 224 159
Width: 13
GlyphClass: 2
Flags: W
LayerCount: 2
Fore
SplineSet
5 12 m 1
 5 14 l 1
 7 14 l 1
 7 12 l 1
 5 12 l 1
9 0 m 1
 7 0 l 1
 5 0 l 1
 3 0 l 1
 3 2 l 1
 1 2 l 1
 1 4 l 1
 3 4 l 1
 3 6 l 1
 5 6 l 1
 7 6 l 1
 9 6 l 1
 9 8 l 1
 11 8 l 1
 11 6 l 1
 11 4 l 1
 11 2 l 1
 11 0 l 1
 9 0 l 1
7 2 m 1
 9 2 l 1
 9 4 l 1
 7 4 l 1
 5 4 l 1
 3 4 l 1
 3 2 l 1
 5 2 l 1
 7 2 l 1
9 8 m 1
 7 8 l 1
 5 8 l 1
 3 8 l 1
 3 10 l 1
 5 10 l 1
 7 10 l 1
 9 10 l 1
 9 8 l 1
5 14 m 1
 3 14 l 1
 3 16 l 1
 5 16 l 1
 5 14 l 1
EndSplineSet
Validated: 5
EndChar

StartChar: aacute
Encoding: 225 225 160
Width: 13
GlyphClass: 2
Flags: W
LayerCount: 2
Fore
SplineSet
5 12 m 1
 5 14 l 1
 7 14 l 1
 7 12 l 1
 5 12 l 1
9 0 m 1
 7 0 l 1
 5 0 l 1
 3 0 l 1
 3 2 l 1
 1 2 l 1
 1 4 l 1
 3 4 l 1
 3 6 l 1
 5 6 l 1
 7 6 l 1
 9 6 l 1
 9 8 l 1
 11 8 l 1
 11 6 l 1
 11 4 l 1
 11 2 l 1
 11 0 l 1
 9 0 l 1
7 2 m 1
 9 2 l 1
 9 4 l 1
 7 4 l 1
 5 4 l 1
 3 4 l 1
 3 2 l 1
 5 2 l 1
 7 2 l 1
9 8 m 1
 7 8 l 1
 5 8 l 1
 3 8 l 1
 3 10 l 1
 5 10 l 1
 7 10 l 1
 9 10 l 1
 9 8 l 1
7 14 m 1
 7 16 l 1
 9 16 l 1
 9 14 l 1
 7 14 l 1
EndSplineSet
Validated: 5
EndChar

StartChar: acircumflex
Encoding: 226 226 161
Width: 13
GlyphClass: 2
Flags: W
LayerCount: 2
Fore
SplineSet
7 12 m 5
 7 14 l 5
 9 14 l 5
 9 12 l 5
 7 12 l 5
3 12 m 5
 3 14 l 5
 5 14 l 5
 5 12 l 5
 3 12 l 5
9 0 m 5
 7 0 l 5
 5 0 l 5
 3 0 l 5
 3 2 l 5
 1 2 l 5
 1 4 l 5
 3 4 l 5
 3 6 l 5
 5 6 l 5
 7 6 l 5
 9 6 l 5
 9 8 l 5
 11 8 l 5
 11 6 l 5
 11 4 l 5
 11 2 l 5
 11 0 l 5
 9 0 l 5
7 2 m 5
 9 2 l 5
 9 4 l 5
 7 4 l 5
 5 4 l 5
 3 4 l 5
 3 2 l 5
 5 2 l 5
 7 2 l 5
9 8 m 5
 7 8 l 5
 5 8 l 5
 3 8 l 5
 3 10 l 5
 5 10 l 5
 7 10 l 5
 9 10 l 5
 9 8 l 5
7 14 m 5
 5 14 l 5
 5 16 l 5
 7 16 l 5
 7 14 l 5
EndSplineSet
Validated: 5
EndChar

StartChar: atilde
Encoding: 227 227 162
Width: 13
GlyphClass: 2
Flags: W
LayerCount: 2
Fore
SplineSet
7 12 m 1
 7 14 l 1
 9 14 l 1
 9 12 l 1
 7 12 l 1
3 12 m 1
 3 14 l 1
 5 14 l 1
 5 12 l 1
 3 12 l 1
9 0 m 1
 7 0 l 1
 5 0 l 1
 3 0 l 1
 3 2 l 1
 1 2 l 1
 1 4 l 1
 3 4 l 1
 3 6 l 1
 5 6 l 1
 7 6 l 1
 9 6 l 1
 9 8 l 1
 11 8 l 1
 11 6 l 1
 11 4 l 1
 11 2 l 1
 11 0 l 1
 9 0 l 1
7 2 m 1
 9 2 l 1
 9 4 l 1
 7 4 l 1
 5 4 l 1
 3 4 l 1
 3 2 l 1
 5 2 l 1
 7 2 l 1
9 8 m 1
 7 8 l 1
 5 8 l 1
 3 8 l 1
 3 10 l 1
 5 10 l 1
 7 10 l 1
 9 10 l 1
 9 8 l 1
9 14 m 1
 9 16 l 1
 11 16 l 1
 11 14 l 1
 9 14 l 1
7 14 m 1
 5 14 l 1
 5 16 l 1
 7 16 l 1
 7 14 l 1
EndSplineSet
Validated: 5
EndChar

StartChar: adieresis
Encoding: 228 228 163
Width: 13
GlyphClass: 2
Flags: W
LayerCount: 2
Fore
SplineSet
7 12 m 1
 7 14 l 1
 9 14 l 1
 9 12 l 1
 7 12 l 1
3 12 m 1
 3 14 l 1
 5 14 l 1
 5 12 l 1
 3 12 l 1
9 0 m 1
 7 0 l 1
 5 0 l 1
 3 0 l 1
 3 2 l 1
 1 2 l 1
 1 4 l 1
 3 4 l 1
 3 6 l 1
 5 6 l 1
 7 6 l 1
 9 6 l 1
 9 8 l 1
 11 8 l 1
 11 6 l 1
 11 4 l 1
 11 2 l 1
 11 0 l 1
 9 0 l 1
7 2 m 1
 9 2 l 1
 9 4 l 1
 7 4 l 1
 5 4 l 1
 3 4 l 1
 3 2 l 1
 5 2 l 1
 7 2 l 1
9 8 m 1
 7 8 l 1
 5 8 l 1
 3 8 l 1
 3 10 l 1
 5 10 l 1
 7 10 l 1
 9 10 l 1
 9 8 l 1
EndSplineSet
Validated: 5
EndChar

StartChar: aring
Encoding: 229 229 164
Width: 13
GlyphClass: 2
Flags: W
LayerCount: 2
Fore
SplineSet
5 12 m 1
 5 14 l 1
 7 14 l 1
 7 12 l 1
 5 12 l 1
9 0 m 1
 7 0 l 1
 5 0 l 1
 3 0 l 1
 3 2 l 1
 1 2 l 1
 1 4 l 1
 3 4 l 1
 3 6 l 1
 5 6 l 1
 7 6 l 1
 9 6 l 1
 9 8 l 1
 11 8 l 1
 11 6 l 1
 11 4 l 1
 11 2 l 1
 11 0 l 1
 9 0 l 1
7 2 m 1
 9 2 l 1
 9 4 l 1
 7 4 l 1
 5 4 l 1
 3 4 l 1
 3 2 l 1
 5 2 l 1
 7 2 l 1
9 8 m 1
 7 8 l 1
 5 8 l 1
 3 8 l 1
 3 10 l 1
 5 10 l 1
 7 10 l 1
 9 10 l 1
 9 8 l 1
7 14 m 1
 7 16 l 1
 9 16 l 1
 9 14 l 1
 7 14 l 1
5 14 m 1
 3 14 l 1
 3 16 l 1
 5 16 l 1
 5 14 l 1
7 16 m 1
 5 16 l 1
 5 18 l 1
 7 18 l 1
 7 16 l 1
EndSplineSet
Validated: 5
EndChar

StartChar: ae
Encoding: 230 230 165
Width: 21
GlyphClass: 2
Flags: W
LayerCount: 2
Fore
SplineSet
17 2 m 1
 19 2 l 1
 19 0 l 1
 17 0 l 1
 15 0 l 1
 13 0 l 1
 11 0 l 1
 9 0 l 1
 7 0 l 1
 5 0 l 1
 3 0 l 1
 3 2 l 1
 1 2 l 1
 1 4 l 1
 3 4 l 1
 3 6 l 1
 5 6 l 1
 7 6 l 1
 9 6 l 1
 9 8 l 1
 11 8 l 1
 11 6 l 1
 13 6 l 1
 15 6 l 1
 17 6 l 1
 17 8 l 1
 19 8 l 1
 19 6 l 1
 19 4 l 1
 17 4 l 1
 15 4 l 1
 13 4 l 1
 11 4 l 1
 11 2 l 1
 13 2 l 1
 15 2 l 1
 17 2 l 1
7 2 m 1
 9 2 l 1
 9 4 l 1
 7 4 l 1
 5 4 l 1
 3 4 l 1
 3 2 l 1
 5 2 l 1
 7 2 l 1
17 8 m 1
 15 8 l 1
 13 8 l 1
 11 8 l 1
 11 10 l 1
 13 10 l 1
 15 10 l 1
 17 10 l 1
 17 8 l 1
9 8 m 1
 7 8 l 1
 5 8 l 1
 3 8 l 1
 3 10 l 1
 5 10 l 1
 7 10 l 1
 9 10 l 1
 9 8 l 1
EndSplineSet
Validated: 5
EndChar

StartChar: ccedilla
Encoding: 231 231 166
Width: 13
GlyphClass: 2
Flags: W
LayerCount: 2
Fore
SplineSet
5 -4 m 1
 5 -2 l 1
 7 -2 l 1
 7 -4 l 1
 5 -4 l 1
9 6 m 1
 9 8 l 1
 11 8 l 1
 11 6 l 1
 9 6 l 1
7 -2 m 1
 7 0 l 1
 5 0 l 1
 3 0 l 1
 3 2 l 1
 5 2 l 1
 7 2 l 1
 9 2 l 1
 9 0 l 1
 9 -2 l 1
 7 -2 l 1
9 2 m 1
 9 4 l 1
 11 4 l 1
 11 2 l 1
 9 2 l 1
3 2 m 1
 1 2 l 1
 1 4 l 1
 1 6 l 1
 1 8 l 1
 3 8 l 1
 3 6 l 1
 3 4 l 1
 3 2 l 1
9 8 m 1
 7 8 l 1
 5 8 l 1
 3 8 l 1
 3 10 l 1
 5 10 l 1
 7 10 l 1
 9 10 l 1
 9 8 l 1
EndSplineSet
Validated: 5
EndChar

StartChar: egrave
Encoding: 232 232 167
Width: 13
GlyphClass: 2
Flags: W
LayerCount: 2
Fore
SplineSet
5 12 m 1
 5 14 l 1
 7 14 l 1
 7 12 l 1
 5 12 l 1
9 2 m 1
 11 2 l 1
 11 0 l 1
 9 0 l 1
 7 0 l 1
 5 0 l 1
 3 0 l 1
 3 2 l 1
 5 2 l 1
 7 2 l 1
 9 2 l 1
3 2 m 1
 1 2 l 1
 1 4 l 1
 1 6 l 1
 1 8 l 1
 3 8 l 1
 3 6 l 1
 5 6 l 1
 7 6 l 1
 9 6 l 1
 9 8 l 1
 11 8 l 1
 11 6 l 1
 11 4 l 1
 9 4 l 1
 7 4 l 1
 5 4 l 1
 3 4 l 1
 3 2 l 1
9 8 m 1
 7 8 l 1
 5 8 l 1
 3 8 l 1
 3 10 l 1
 5 10 l 1
 7 10 l 1
 9 10 l 1
 9 8 l 1
5 14 m 1
 3 14 l 1
 3 16 l 1
 5 16 l 1
 5 14 l 1
EndSplineSet
Validated: 5
EndChar

StartChar: eacute
Encoding: 233 233 168
Width: 13
GlyphClass: 2
Flags: W
LayerCount: 2
Fore
SplineSet
5 12 m 1
 5 14 l 1
 7 14 l 1
 7 12 l 1
 5 12 l 1
9 2 m 1
 11 2 l 1
 11 0 l 1
 9 0 l 1
 7 0 l 1
 5 0 l 1
 3 0 l 1
 3 2 l 1
 5 2 l 1
 7 2 l 1
 9 2 l 1
3 2 m 1
 1 2 l 1
 1 4 l 1
 1 6 l 1
 1 8 l 1
 3 8 l 1
 3 6 l 1
 5 6 l 1
 7 6 l 1
 9 6 l 1
 9 8 l 1
 11 8 l 1
 11 6 l 1
 11 4 l 1
 9 4 l 1
 7 4 l 1
 5 4 l 1
 3 4 l 1
 3 2 l 1
9 8 m 1
 7 8 l 1
 5 8 l 1
 3 8 l 1
 3 10 l 1
 5 10 l 1
 7 10 l 1
 9 10 l 1
 9 8 l 1
7 14 m 1
 7 16 l 1
 9 16 l 1
 9 14 l 1
 7 14 l 1
EndSplineSet
Validated: 5
EndChar

StartChar: ecircumflex
Encoding: 234 234 169
Width: 13
GlyphClass: 2
Flags: W
HStem: 0 2<3 11> 4 2<3 9> 8 2<3 9> 12 2<3 5 7 9>
VStem: 1 2<2 4 6 8> 5 2<14 16> 7 2<12 14> 9 2<6 8>
LayerCount: 2
Fore
SplineSet
7 12 m 5xfa
 7 14 l 5xfc
 9 14 l 5
 9 12 l 5
 7 12 l 5xfa
3 12 m 5
 3 14 l 5
 5 14 l 5
 5 12 l 5
 3 12 l 5
9 2 m 5xf9
 11 2 l 5
 11 0 l 5
 9 0 l 5xf9
 7 0 l 5xfa
 5 0 l 5
 3 0 l 5
 3 2 l 5
 5 2 l 5xfc
 7 2 l 5xfa
 9 2 l 5xf9
3 2 m 5
 1 2 l 5
 1 4 l 5
 1 6 l 5
 1 8 l 5
 3 8 l 5
 3 6 l 5
 5 6 l 5xfc
 7 6 l 5xfa
 9 6 l 5
 9 8 l 5
 11 8 l 5
 11 6 l 5
 11 4 l 5
 9 4 l 5xf9
 7 4 l 5xfa
 5 4 l 5xfc
 3 4 l 5
 3 2 l 5
9 8 m 5xf9
 7 8 l 5xfa
 5 8 l 5
 3 8 l 5
 3 10 l 5
 5 10 l 5xfc
 7 10 l 5xfa
 9 10 l 5
 9 8 l 5xf9
7 14 m 5xfc
 5 14 l 5
 5 16 l 5
 7 16 l 5
 7 14 l 5xfc
EndSplineSet
Validated: 5
EndChar

StartChar: edieresis
Encoding: 235 235 170
Width: 13
GlyphClass: 2
Flags: W
LayerCount: 2
Fore
SplineSet
7 12 m 1
 7 14 l 1
 9 14 l 1
 9 12 l 1
 7 12 l 1
3 12 m 1
 3 14 l 1
 5 14 l 1
 5 12 l 1
 3 12 l 1
9 2 m 1
 11 2 l 1
 11 0 l 1
 9 0 l 1
 7 0 l 1
 5 0 l 1
 3 0 l 1
 3 2 l 1
 5 2 l 1
 7 2 l 1
 9 2 l 1
3 2 m 1
 1 2 l 1
 1 4 l 1
 1 6 l 1
 1 8 l 1
 3 8 l 1
 3 6 l 1
 5 6 l 1
 7 6 l 1
 9 6 l 1
 9 8 l 1
 11 8 l 1
 11 6 l 1
 11 4 l 1
 9 4 l 1
 7 4 l 1
 5 4 l 1
 3 4 l 1
 3 2 l 1
9 8 m 1
 7 8 l 1
 5 8 l 1
 3 8 l 1
 3 10 l 1
 5 10 l 1
 7 10 l 1
 9 10 l 1
 9 8 l 1
EndSplineSet
Validated: 5
EndChar

StartChar: igrave
Encoding: 236 236 171
Width: 7
GlyphClass: 2
Flags: W
LayerCount: 2
Fore
SplineSet
3 0 m 1
 3 2 l 1
 3 4 l 1
 3 6 l 1
 3 8 l 1
 3 10 l 1
 5 10 l 1
 5 8 l 1
 5 6 l 1
 5 4 l 1
 5 2 l 1
 5 0 l 1
 3 0 l 1
3 12 m 1
 3 14 l 1
 5 14 l 1
 5 12 l 1
 3 12 l 1
3 14 m 1
 1 14 l 1
 1 16 l 1
 3 16 l 1
 3 14 l 1
EndSplineSet
Validated: 5
EndChar

StartChar: iacute
Encoding: 237 237 172
Width: 7
GlyphClass: 2
Flags: W
LayerCount: 2
Fore
SplineSet
1 0 m 1
 1 2 l 1
 1 4 l 1
 1 6 l 1
 1 8 l 1
 1 10 l 1
 3 10 l 1
 3 8 l 1
 3 6 l 1
 3 4 l 1
 3 2 l 1
 3 0 l 1
 1 0 l 1
1 12 m 1
 1 14 l 1
 3 14 l 1
 3 12 l 1
 1 12 l 1
3 14 m 1
 3 16 l 1
 5 16 l 1
 5 14 l 1
 3 14 l 1
EndSplineSet
Validated: 5
EndChar

StartChar: icircumflex
Encoding: 238 238 173
Width: 9
GlyphClass: 2
Flags: W
LayerCount: 2
Fore
SplineSet
3 0 m 1
 3 2 l 1
 3 4 l 1
 3 6 l 1
 3 8 l 1
 3 10 l 1
 5 10 l 1
 5 8 l 1
 5 6 l 1
 5 4 l 1
 5 2 l 1
 5 0 l 1
 3 0 l 1
5 12 m 1
 5 14 l 1
 7 14 l 1
 7 12 l 1
 5 12 l 1
1 12 m 1
 1 14 l 1
 3 14 l 1
 3 12 l 1
 1 12 l 1
5 14 m 1
 3 14 l 1
 3 16 l 1
 5 16 l 1
 5 14 l 1
EndSplineSet
Validated: 5
EndChar

StartChar: idieresis
Encoding: 239 239 174
Width: 9
GlyphClass: 2
Flags: W
LayerCount: 2
Fore
SplineSet
3 0 m 1
 3 2 l 1
 3 4 l 1
 3 6 l 1
 3 8 l 1
 3 10 l 1
 5 10 l 1
 5 8 l 1
 5 6 l 1
 5 4 l 1
 5 2 l 1
 5 0 l 1
 3 0 l 1
5 12 m 1
 5 14 l 1
 7 14 l 1
 7 12 l 1
 5 12 l 1
1 12 m 1
 1 14 l 1
 3 14 l 1
 3 12 l 1
 1 12 l 1
EndSplineSet
Validated: 1
EndChar

StartChar: eth
Encoding: 240 240 175
Width: 13
GlyphClass: 2
Flags: W
LayerCount: 2
Fore
SplineSet
5 8 m 1
 5 10 l 1
 7 10 l 1
 7 8 l 1
 5 8 l 1
7 2 m 1
 9 2 l 1
 9 0 l 1
 7 0 l 1
 5 0 l 1
 3 0 l 1
 3 2 l 1
 5 2 l 1
 7 2 l 1
9 2 m 1
 9 4 l 1
 7 4 l 1
 5 4 l 1
 3 4 l 1
 3 2 l 1
 1 2 l 1
 1 4 l 1
 3 4 l 1
 3 6 l 1
 5 6 l 1
 7 6 l 1
 9 6 l 1
 9 8 l 1
 9 10 l 1
 11 10 l 1
 11 8 l 1
 11 6 l 1
 11 4 l 1
 11 2 l 1
 9 2 l 1
9 10 m 1
 7 10 l 1
 7 12 l 1
 9 12 l 1
 9 10 l 1
9 12 m 1
 9 14 l 1
 11 14 l 1
 11 12 l 1
 9 12 l 1
7 12 m 1
 5 12 l 1
 3 12 l 1
 3 14 l 1
 5 14 l 1
 7 14 l 1
 7 12 l 1
EndSplineSet
Validated: 5
EndChar

StartChar: ntilde
Encoding: 241 241 176
Width: 13
GlyphClass: 2
Flags: W
LayerCount: 2
Fore
SplineSet
9 0 m 1
 9 2 l 1
 9 4 l 1
 9 6 l 1
 9 8 l 1
 11 8 l 1
 11 6 l 1
 11 4 l 1
 11 2 l 1
 11 0 l 1
 9 0 l 1
1 0 m 1
 1 2 l 1
 1 4 l 1
 1 6 l 1
 1 8 l 1
 1 10 l 1
 3 10 l 1
 5 10 l 1
 7 10 l 1
 9 10 l 1
 9 8 l 1
 7 8 l 1
 5 8 l 1
 3 8 l 1
 3 6 l 1
 3 4 l 1
 3 2 l 1
 3 0 l 1
 1 0 l 1
7 12 m 1
 7 14 l 1
 9 14 l 1
 9 12 l 1
 7 12 l 1
3 12 m 1
 3 14 l 1
 5 14 l 1
 5 12 l 1
 3 12 l 1
9 14 m 1
 9 16 l 1
 11 16 l 1
 11 14 l 1
 9 14 l 1
7 14 m 1
 5 14 l 1
 5 16 l 1
 7 16 l 1
 7 14 l 1
EndSplineSet
Validated: 5
EndChar

StartChar: ograve
Encoding: 242 242 177
Width: 13
GlyphClass: 2
Flags: W
LayerCount: 2
Fore
SplineSet
5 12 m 1
 5 14 l 1
 7 14 l 1
 7 12 l 1
 5 12 l 1
7 2 m 1
 9 2 l 1
 9 0 l 1
 7 0 l 1
 5 0 l 1
 3 0 l 1
 3 2 l 1
 5 2 l 1
 7 2 l 1
9 2 m 1
 9 4 l 1
 9 6 l 1
 9 8 l 1
 11 8 l 1
 11 6 l 1
 11 4 l 1
 11 2 l 1
 9 2 l 1
3 2 m 1
 1 2 l 1
 1 4 l 1
 1 6 l 1
 1 8 l 1
 3 8 l 1
 3 6 l 1
 3 4 l 1
 3 2 l 1
9 8 m 1
 7 8 l 1
 5 8 l 1
 3 8 l 1
 3 10 l 1
 5 10 l 1
 7 10 l 1
 9 10 l 1
 9 8 l 1
5 14 m 1
 3 14 l 1
 3 16 l 1
 5 16 l 1
 5 14 l 1
EndSplineSet
Validated: 5
EndChar

StartChar: oacute
Encoding: 243 243 178
Width: 13
GlyphClass: 2
Flags: W
LayerCount: 2
Fore
SplineSet
5 12 m 5
 5 14 l 5
 7 14 l 5
 7 12 l 5
 5 12 l 5
7 2 m 1
 9 2 l 1
 9 0 l 1
 7 0 l 1
 5 0 l 1
 3 0 l 1
 3 2 l 1
 5 2 l 1
 7 2 l 1
9 2 m 1
 9 4 l 1
 9 6 l 1
 9 8 l 1
 11 8 l 1
 11 6 l 1
 11 4 l 1
 11 2 l 1
 9 2 l 1
3 2 m 1
 1 2 l 1
 1 4 l 1
 1 6 l 1
 1 8 l 1
 3 8 l 1
 3 6 l 1
 3 4 l 1
 3 2 l 1
9 8 m 1
 7 8 l 1
 5 8 l 1
 3 8 l 1
 3 10 l 1
 5 10 l 1
 7 10 l 1
 9 10 l 1
 9 8 l 1
7 14 m 5
 7 16 l 5
 9 16 l 5
 9 14 l 5
 7 14 l 5
EndSplineSet
Validated: 5
EndChar

StartChar: ocircumflex
Encoding: 244 244 179
Width: 13
GlyphClass: 2
Flags: W
LayerCount: 2
Fore
SplineSet
7 12 m 5
 7 14 l 5
 9 14 l 5
 9 12 l 5
 7 12 l 5
3 12 m 5
 3 14 l 5
 5 14 l 5
 5 12 l 5
 3 12 l 5
7 2 m 5
 9 2 l 5
 9 0 l 5
 7 0 l 5
 5 0 l 5
 3 0 l 5
 3 2 l 5
 5 2 l 5
 7 2 l 5
9 2 m 5
 9 4 l 5
 9 6 l 5
 9 8 l 5
 11 8 l 5
 11 6 l 5
 11 4 l 5
 11 2 l 5
 9 2 l 5
3 2 m 5
 1 2 l 5
 1 4 l 5
 1 6 l 5
 1 8 l 5
 3 8 l 5
 3 6 l 5
 3 4 l 5
 3 2 l 5
9 8 m 5
 7 8 l 5
 5 8 l 5
 3 8 l 5
 3 10 l 5
 5 10 l 5
 7 10 l 5
 9 10 l 5
 9 8 l 5
7 14 m 5
 5 14 l 5
 5 16 l 5
 7 16 l 5
 7 14 l 5
EndSplineSet
Validated: 5
EndChar

StartChar: otilde
Encoding: 245 245 180
Width: 13
GlyphClass: 2
Flags: W
LayerCount: 2
Fore
SplineSet
7 12 m 1
 7 14 l 1
 9 14 l 1
 9 12 l 1
 7 12 l 1
3 12 m 1
 3 14 l 1
 5 14 l 1
 5 12 l 1
 3 12 l 1
7 2 m 1
 9 2 l 1
 9 0 l 1
 7 0 l 1
 5 0 l 1
 3 0 l 1
 3 2 l 1
 5 2 l 1
 7 2 l 1
9 2 m 1
 9 4 l 1
 9 6 l 1
 9 8 l 1
 11 8 l 1
 11 6 l 1
 11 4 l 1
 11 2 l 1
 9 2 l 1
3 2 m 1
 1 2 l 1
 1 4 l 1
 1 6 l 1
 1 8 l 1
 3 8 l 1
 3 6 l 1
 3 4 l 1
 3 2 l 1
9 8 m 1
 7 8 l 1
 5 8 l 1
 3 8 l 1
 3 10 l 1
 5 10 l 1
 7 10 l 1
 9 10 l 1
 9 8 l 1
9 14 m 1
 9 16 l 1
 11 16 l 1
 11 14 l 1
 9 14 l 1
7 14 m 1
 5 14 l 1
 5 16 l 1
 7 16 l 1
 7 14 l 1
EndSplineSet
Validated: 5
EndChar

StartChar: odieresis
Encoding: 246 246 181
Width: 13
GlyphClass: 2
Flags: W
LayerCount: 2
Fore
SplineSet
7 12 m 1
 7 14 l 1
 9 14 l 1
 9 12 l 1
 7 12 l 1
3 12 m 1
 3 14 l 1
 5 14 l 1
 5 12 l 1
 3 12 l 1
7 2 m 1
 9 2 l 1
 9 0 l 1
 7 0 l 1
 5 0 l 1
 3 0 l 1
 3 2 l 1
 5 2 l 1
 7 2 l 1
9 2 m 1
 9 4 l 1
 9 6 l 1
 9 8 l 1
 11 8 l 1
 11 6 l 1
 11 4 l 1
 11 2 l 1
 9 2 l 1
3 2 m 1
 1 2 l 1
 1 4 l 1
 1 6 l 1
 1 8 l 1
 3 8 l 1
 3 6 l 1
 3 4 l 1
 3 2 l 1
9 8 m 1
 7 8 l 1
 5 8 l 1
 3 8 l 1
 3 10 l 1
 5 10 l 1
 7 10 l 1
 9 10 l 1
 9 8 l 1
EndSplineSet
Validated: 5
EndChar

StartChar: divide
Encoding: 247 247 182
Width: 13
GlyphClass: 2
Flags: W
LayerCount: 2
Fore
SplineSet
5 2 m 1
 5 4 l 1
 7 4 l 1
 7 2 l 1
 5 2 l 1
5 10 m 1
 5 12 l 1
 7 12 l 1
 7 10 l 1
 5 10 l 1
9 8 m 1
 11 8 l 1
 11 6 l 1
 9 6 l 1
 7 6 l 1
 5 6 l 1
 3 6 l 1
 1 6 l 1
 1 8 l 1
 3 8 l 1
 5 8 l 1
 7 8 l 1
 9 8 l 1
EndSplineSet
Validated: 1
EndChar

StartChar: oslash
Encoding: 248 248 183
Width: 13
GlyphClass: 2
Flags: W
LayerCount: 2
Fore
SplineSet
7 2 m 1
 9 2 l 1
 9 0 l 1
 7 0 l 1
 5 0 l 1
 3 0 l 1
 3 2 l 1
 1 2 l 1
 1 4 l 1
 1 6 l 1
 1 8 l 1
 3 8 l 1
 3 6 l 1
 3 4 l 1
 5 4 l 1
 5 2 l 1
 7 2 l 1
9 2 m 1
 9 4 l 1
 9 6 l 1
 7 6 l 1
 7 4 l 1
 5 4 l 1
 5 6 l 1
 7 6 l 1
 7 8 l 1
 5 8 l 1
 3 8 l 1
 3 10 l 1
 5 10 l 1
 7 10 l 1
 9 10 l 1
 9 8 l 1
 11 8 l 1
 11 6 l 1
 11 4 l 1
 11 2 l 1
 9 2 l 1
EndSplineSet
Validated: 5
EndChar

StartChar: ugrave
Encoding: 249 249 184
Width: 13
GlyphClass: 2
Flags: W
LayerCount: 2
Fore
SplineSet
5 12 m 1
 5 14 l 1
 7 14 l 1
 7 12 l 1
 5 12 l 1
9 0 m 1
 7 0 l 1
 5 0 l 1
 3 0 l 1
 3 2 l 1
 5 2 l 1
 7 2 l 1
 9 2 l 1
 9 4 l 1
 9 6 l 1
 9 8 l 1
 9 10 l 1
 11 10 l 1
 11 8 l 1
 11 6 l 1
 11 4 l 1
 11 2 l 1
 11 0 l 1
 9 0 l 1
3 2 m 1
 1 2 l 1
 1 4 l 1
 1 6 l 1
 1 8 l 1
 1 10 l 1
 3 10 l 1
 3 8 l 1
 3 6 l 1
 3 4 l 1
 3 2 l 1
5 14 m 1
 3 14 l 1
 3 16 l 1
 5 16 l 1
 5 14 l 1
EndSplineSet
Validated: 5
EndChar

StartChar: uacute
Encoding: 250 250 185
Width: 13
GlyphClass: 2
Flags: W
LayerCount: 2
Fore
SplineSet
5 12 m 1
 5 14 l 1
 7 14 l 1
 7 12 l 1
 5 12 l 1
9 0 m 1
 7 0 l 1
 5 0 l 1
 3 0 l 1
 3 2 l 1
 5 2 l 1
 7 2 l 1
 9 2 l 1
 9 4 l 1
 9 6 l 1
 9 8 l 1
 9 10 l 1
 11 10 l 1
 11 8 l 1
 11 6 l 1
 11 4 l 1
 11 2 l 1
 11 0 l 1
 9 0 l 1
3 2 m 1
 1 2 l 1
 1 4 l 1
 1 6 l 1
 1 8 l 1
 1 10 l 1
 3 10 l 1
 3 8 l 1
 3 6 l 1
 3 4 l 1
 3 2 l 1
7 14 m 1
 7 16 l 1
 9 16 l 1
 9 14 l 1
 7 14 l 1
EndSplineSet
Validated: 5
EndChar

StartChar: ucircumflex
Encoding: 251 251 186
Width: 13
GlyphClass: 2
Flags: W
LayerCount: 2
Fore
SplineSet
7 12 m 1
 7 14 l 1
 9 14 l 1
 9 12 l 1
 7 12 l 1
3 12 m 1
 3 14 l 1
 5 14 l 1
 5 12 l 1
 3 12 l 1
9 0 m 1
 7 0 l 1
 5 0 l 1
 3 0 l 1
 3 2 l 1
 5 2 l 1
 7 2 l 1
 9 2 l 1
 9 4 l 1
 9 6 l 1
 9 8 l 1
 9 10 l 1
 11 10 l 1
 11 8 l 1
 11 6 l 1
 11 4 l 1
 11 2 l 1
 11 0 l 1
 9 0 l 1
3 2 m 1
 1 2 l 1
 1 4 l 1
 1 6 l 1
 1 8 l 1
 1 10 l 1
 3 10 l 1
 3 8 l 1
 3 6 l 1
 3 4 l 1
 3 2 l 1
7 14 m 1
 5 14 l 1
 5 16 l 1
 7 16 l 1
 7 14 l 1
EndSplineSet
Validated: 5
EndChar

StartChar: udieresis
Encoding: 252 252 187
Width: 13
GlyphClass: 2
Flags: W
LayerCount: 2
Fore
SplineSet
7 12 m 1
 7 14 l 1
 9 14 l 1
 9 12 l 1
 7 12 l 1
3 12 m 1
 3 14 l 1
 5 14 l 1
 5 12 l 1
 3 12 l 1
9 0 m 1
 7 0 l 1
 5 0 l 1
 3 0 l 1
 3 2 l 1
 5 2 l 1
 7 2 l 1
 9 2 l 1
 9 4 l 1
 9 6 l 1
 9 8 l 1
 9 10 l 1
 11 10 l 1
 11 8 l 1
 11 6 l 1
 11 4 l 1
 11 2 l 1
 11 0 l 1
 9 0 l 1
3 2 m 1
 1 2 l 1
 1 4 l 1
 1 6 l 1
 1 8 l 1
 1 10 l 1
 3 10 l 1
 3 8 l 1
 3 6 l 1
 3 4 l 1
 3 2 l 1
EndSplineSet
Validated: 5
EndChar

StartChar: yacute
Encoding: 253 253 188
Width: 13
GlyphClass: 2
Flags: W
LayerCount: 2
Fore
SplineSet
5 12 m 1
 5 14 l 1
 7 14 l 1
 7 12 l 1
 5 12 l 1
7 0 m 1
 9 0 l 1
 9 -2 l 1
 7 -2 l 1
 5 -2 l 1
 3 -2 l 1
 1 -2 l 1
 1 0 l 1
 3 0 l 1
 5 0 l 1
 7 0 l 1
9 0 m 1
 9 2 l 1
 7 2 l 1
 5 2 l 1
 3 2 l 1
 3 4 l 1
 5 4 l 1
 7 4 l 1
 9 4 l 1
 9 6 l 1
 9 8 l 1
 9 10 l 1
 11 10 l 1
 11 8 l 1
 11 6 l 1
 11 4 l 1
 11 2 l 1
 11 0 l 1
 9 0 l 1
3 4 m 1
 1 4 l 1
 1 6 l 1
 1 8 l 1
 1 10 l 1
 3 10 l 1
 3 8 l 1
 3 6 l 1
 3 4 l 1
7 14 m 1
 7 16 l 1
 9 16 l 1
 9 14 l 1
 7 14 l 1
EndSplineSet
Validated: 5
EndChar

StartChar: Euro
Encoding: 8364 8364 189
Width: 15
GlyphClass: 2
Flags: W
LayerCount: 2
Fore
SplineSet
11 10 m 1
 11 12 l 1
 13 12 l 1
 13 10 l 1
 11 10 l 1
9 2 m 1
 11 2 l 1
 11 0 l 1
 9 0 l 1
 7 0 l 1
 5 0 l 1
 5 2 l 1
 7 2 l 1
 9 2 l 1
11 2 m 1
 11 4 l 1
 13 4 l 1
 13 2 l 1
 11 2 l 1
5 2 m 1
 3 2 l 1
 3 4 l 1
 1 4 l 1
 1 6 l 1
 3 6 l 1
 3 8 l 1
 1 8 l 1
 1 10 l 1
 3 10 l 1
 3 12 l 1
 5 12 l 1
 5 10 l 1
 7 10 l 1
 9 10 l 1
 9 8 l 1
 7 8 l 1
 5 8 l 1
 5 6 l 1
 7 6 l 1
 9 6 l 1
 9 4 l 1
 7 4 l 1
 5 4 l 1
 5 2 l 1
11 12 m 1
 9 12 l 1
 7 12 l 1
 5 12 l 1
 5 14 l 1
 7 14 l 1
 9 14 l 1
 11 14 l 1
 11 12 l 1
EndSplineSet
Validated: 5
EndChar

StartChar: smileface
Encoding: 9786 9786 190
Width: 13
GlyphClass: 2
Flags: W
LayerCount: 2
Fore
SplineSet
7 8 m 1
 7 10 l 1
 7 12 l 1
 9 12 l 1
 9 10 l 1
 9 8 l 1
 7 8 l 1
3 8 m 1
 3 10 l 1
 3 12 l 1
 5 12 l 1
 5 10 l 1
 5 8 l 1
 3 8 l 1
7 4 m 1
 9 4 l 1
 9 2 l 1
 7 2 l 1
 5 2 l 1
 3 2 l 1
 3 4 l 1
 5 4 l 1
 7 4 l 1
9 4 m 1
 9 6 l 1
 11 6 l 1
 11 4 l 1
 9 4 l 1
3 4 m 1
 1 4 l 1
 1 6 l 1
 3 6 l 1
 3 4 l 1
EndSplineSet
Validated: 5
EndChar

StartChar: invsmileface
Encoding: 9787 9787 191
Width: 17
GlyphClass: 2
Flags: W
LayerCount: 2
Fore
SplineSet
11 0 m 1
 9 0 l 1
 7 0 l 1
 5 0 l 1
 3 0 l 1
 3 2 l 1
 1 2 l 1
 1 4 l 1
 1 6 l 1
 1 8 l 1
 1 10 l 1
 1 12 l 1
 3 12 l 1
 3 14 l 1
 5 14 l 1
 7 14 l 1
 9 14 l 1
 11 14 l 1
 13 14 l 1
 13 12 l 1
 15 12 l 1
 15 10 l 1
 15 8 l 1
 15 6 l 1
 15 4 l 1
 15 2 l 1
 13 2 l 1
 13 0 l 1
 11 0 l 1
9 2 m 1
 11 2 l 1
 11 4 l 1
 9 4 l 1
 7 4 l 1
 5 4 l 1
 5 6 l 1
 3 6 l 1
 3 4 l 1
 5 4 l 1
 5 2 l 1
 7 2 l 1
 9 2 l 1
13 4 m 1
 13 6 l 1
 11 6 l 1
 11 4 l 1
 13 4 l 1
11 8 m 1
 11 10 l 1
 11 12 l 1
 9 12 l 1
 9 10 l 1
 9 8 l 1
 11 8 l 1
7 8 m 1
 7 10 l 1
 7 12 l 1
 5 12 l 1
 5 10 l 1
 5 8 l 1
 7 8 l 1
EndSplineSet
Validated: 5
EndChar

StartChar: heart
Encoding: 9829 9829 192
Width: 13
GlyphClass: 2
Flags: W
LayerCount: 2
Fore
SplineSet
5 0 m 1
 5 2 l 1
 3 2 l 1
 3 4 l 1
 1 4 l 1
 1 6 l 1
 1 8 l 1
 1 10 l 1
 3 10 l 1
 3 12 l 1
 5 12 l 1
 5 10 l 1
 7 10 l 1
 7 12 l 1
 9 12 l 1
 9 10 l 1
 11 10 l 1
 11 8 l 1
 11 6 l 1
 11 4 l 1
 9 4 l 1
 9 2 l 1
 7 2 l 1
 7 0 l 1
 5 0 l 1
EndSplineSet
Validated: 1
EndChar

StartChar: uni1EF1
Encoding: 7921 7921 194
Width: 15
Flags: W
HStem: -10 20G<1 3 9 11> 0 2<3 9> 12 2<9 11>
VStem: 1 2<2 10> 9 2<2 10 12 14>
LayerCount: 2
Fore
SplineSet
5 -2 m 25x38
 5 -4 l 25
 7 -4 l 25
 7 -2 l 25
 5 -2 l 25x38
11 12 m 13
 9 12 l 1
 9 14 l 1
 11 14 l 1
 11 12 l 13
11 12 m 25
 11 10 l 1
 13 10 l 17xb8
 13 12 l 1025
11 10 m 1025
9 0 m 1x78
 7 0 l 1
 5 0 l 1
 3 0 l 1
 3 2 l 1
 5 2 l 1
 7 2 l 1
 9 2 l 1x78
 9 4 l 1
 9 6 l 1
 9 8 l 1
 9 10 l 1
 11 10 l 1xb8
 11 8 l 1
 11 6 l 1
 11 4 l 1
 11 2 l 1
 11 0 l 1
 9 0 l 1x78
3 2 m 1
 1 2 l 1x78
 1 4 l 1
 1 6 l 1
 1 8 l 1
 1 10 l 1
 3 10 l 1xb8
 3 8 l 1
 3 6 l 1
 3 4 l 1
 3 2 l 1
EndSplineSet
Validated: 11
EndChar

StartChar: uhorn
Encoding: 432 432 195
Width: 15
Flags: W
HStem: -10 20G<1 3 9 11> 0 2<3 9> 12 2<9 11>
VStem: 1 2<2 10> 9 2<2 10 12 14>
LayerCount: 2
Fore
SplineSet
11 12 m 13x38
 9 12 l 5
 9 14 l 5
 11 14 l 5
 11 12 l 13x38
11 12 m 29
 11 10 l 5
 13 10 l 21xb8
 13 12 l 1029
11 10 m 1029
9 0 m 5x78
 7 0 l 5
 5 0 l 5
 3 0 l 5
 3 2 l 5
 5 2 l 5
 7 2 l 5
 9 2 l 5x78
 9 4 l 5
 9 6 l 5
 9 8 l 5
 9 10 l 5
 11 10 l 5xb8
 11 8 l 5
 11 6 l 5
 11 4 l 5
 11 2 l 5
 11 0 l 5
 9 0 l 5x78
3 2 m 5
 1 2 l 5x78
 1 4 l 5
 1 6 l 5
 1 8 l 5
 1 10 l 5
 3 10 l 5xb8
 3 8 l 5
 3 6 l 5
 3 4 l 5
 3 2 l 5
EndSplineSet
Validated: 3
EndChar

StartChar: uni1EF0
Encoding: 7920 7920 196
Width: 15
Flags: W
HStem: -6 20G<1 3 9 11> 0 2<3 9>
VStem: 1 2<2 14> 9 2<2 14>
LayerCount: 2
Fore
SplineSet
5 -2 m 29x30
 5 -4 l 25
 7 -4 l 25
 7 -2 l 25
 5 -2 l 29x30
13 14 m 25xb0
 13 18 l 25
 9 18 l 25
 9 16 l 25
 11 16 l 25
 11 14 l 25
 13 14 l 25xb0
7 2 m 1x70
 9 2 l 1
 9 0 l 1
 7 0 l 1
 5 0 l 1
 3 0 l 1
 3 2 l 1
 5 2 l 1
 7 2 l 1x70
9 2 m 1
 9 4 l 1
 9 6 l 1
 9 8 l 1
 9 10 l 1
 9 12 l 1
 9 14 l 1
 11 14 l 1xb0
 11 12 l 1
 11 10 l 1
 11 8 l 1
 11 6 l 1
 11 4 l 1
 11 2 l 1
 9 2 l 1
3 2 m 1x70
 1 2 l 1x70
 1 4 l 1
 1 6 l 1
 1 8 l 1
 1 10 l 1
 1 12 l 1
 1 14 l 1
 3 14 l 1xb0
 3 12 l 1
 3 10 l 1
 3 8 l 1
 3 6 l 1
 3 4 l 1
 3 2 l 1x70
EndSplineSet
Validated: 5
EndChar

StartChar: Uhorn
Encoding: 431 431 197
Width: 15
Flags: W
HStem: -6 20G<1 3 9 11> 0 2<3 9>
VStem: 1 2<2 14> 9 2<2 14>
LayerCount: 2
Fore
SplineSet
13 14 m 29xb0
 13 18 l 29
 9 18 l 29
 9 16 l 29
 11 16 l 29
 11 14 l 29
 13 14 l 29xb0
7 2 m 5x70
 9 2 l 5
 9 0 l 5
 7 0 l 5
 5 0 l 5
 3 0 l 5
 3 2 l 5
 5 2 l 5
 7 2 l 5x70
9 2 m 5
 9 4 l 5
 9 6 l 5
 9 8 l 5
 9 10 l 5
 9 12 l 5
 9 14 l 5
 11 14 l 5xb0
 11 12 l 5
 11 10 l 5
 11 8 l 5
 11 6 l 5
 11 4 l 5
 11 2 l 5
 9 2 l 5
3 2 m 5x70
 1 2 l 5x70
 1 4 l 5
 1 6 l 5
 1 8 l 5
 1 10 l 5
 1 12 l 5
 1 14 l 5
 3 14 l 5xb0
 3 12 l 5
 3 10 l 5
 3 8 l 5
 3 6 l 5
 3 4 l 5
 3 2 l 5x70
EndSplineSet
Validated: 5
EndChar

StartChar: ohorn
Encoding: 417 417 198
Width: 13
Flags: W
HStem: 0 2<3 9> 2 6<1 3 9 11> 12 2<7 9>
VStem: 1 2<2 8> 3 6<0 2 8 10> 9 2<2 8>
LayerCount: 2
Fore
SplineSet
9 12 m 9x24
 7 12 l 1
 7 14 l 1
 9 14 l 1
 9 12 l 9x24
9 12 m 25x24
 9 10 l 25x28
 11 10 l 17
 11 12 l 1025
7 2 m 1xb0
 9 2 l 1
 9 0 l 1
 7 0 l 1
 5 0 l 1
 3 0 l 1xa8
 3 2 l 1
 5 2 l 1
 7 2 l 1xb0
9 2 m 1
 9 4 l 1
 9 6 l 1xa4
 9 8 l 1x68
 11 8 l 1
 11 6 l 1
 11 4 l 1
 11 2 l 1x64
 9 2 l 1
3 2 m 1xb0
 1 2 l 1
 1 4 l 1
 1 6 l 1
 1 8 l 1
 3 8 l 1x70
 3 6 l 1
 3 4 l 1
 3 2 l 1xb0
9 8 m 1x68
 7 8 l 1
 5 8 l 1
 3 8 l 1x70
 3 10 l 1
 5 10 l 1
 7 10 l 1
 9 10 l 1
 9 8 l 1x68
EndSplineSet
Validated: 3
EndChar

StartChar: Ohorn
Encoding: 416 416 199
Width: 13
Flags: W
HStem: 0 2<3 9> 12 2<3 9>
VStem: 1 2<2 12> 3 6<0 2 12 14>
LayerCount: 2
Fore
SplineSet
11 14 m 29xd0
 11 18 l 25
 7 18 l 25
 7 16 l 25
 9 16 l 25
 9 14 l 25
 11 14 l 29xd0
7 2 m 1
 9 2 l 1
 9 0 l 1
 7 0 l 1
 5 0 l 1
 3 0 l 1xd0
 3 2 l 1xe0
 5 2 l 1
 7 2 l 1
9 2 m 1
 9 4 l 1
 9 6 l 1
 9 8 l 1
 9 10 l 1
 9 12 l 1
 11 12 l 1
 11 10 l 1
 11 8 l 1
 11 6 l 1
 11 4 l 1
 11 2 l 1
 9 2 l 1
3 2 m 1xe0
 1 2 l 1
 1 4 l 1
 1 6 l 1
 1 8 l 1
 1 10 l 1
 1 12 l 1
 3 12 l 1
 3 10 l 1
 3 8 l 1
 3 6 l 1
 3 4 l 1
 3 2 l 1xe0
9 12 m 1xd0
 7 12 l 1
 5 12 l 1
 3 12 l 1xe0
 3 14 l 1
 5 14 l 1
 7 14 l 1
 9 14 l 1
 9 12 l 1xd0
EndSplineSet
Validated: 5
EndChar

StartChar: uni1EDB
Encoding: 7899 7899 200
Width: 13
Flags: W
HStem: 0 2<3 9> 2 6<1 3 9 11> 12 2<7 9> 16 2<6 8>
VStem: 1 2<2 8> 3 6<0 2 8 10> 7 2<12 14> 9 2<2 8>
LayerCount: 2
Fore
SplineSet
6 14 m 25
 4 14 l 1
 4 16 l 1
 6 16 l 1
 6 14 l 1025x30
6 16 m 1
 6 18 l 1
 8 18 l 1
 8 16 l 1
 6 16 l 1
9 12 m 13x32
 7 12 l 1
 7 14 l 1
 9 14 l 1
 9 12 l 13x32
9 12 m 25x32
 9 10 l 25x34
 11 10 l 17
 11 12 l 1025x31
7 2 m 1xba
 9 2 l 1
 9 0 l 1xb4
 7 0 l 1xb2
 5 0 l 1
 3 0 l 1xb4
 3 2 l 1
 5 2 l 1
 7 2 l 1xba
9 2 m 1
 9 4 l 1
 9 6 l 1xb1
 9 8 l 1x74
 11 8 l 1
 11 6 l 1
 11 4 l 1
 11 2 l 1x71
 9 2 l 1
3 2 m 1xb8
 1 2 l 1
 1 4 l 1
 1 6 l 1
 1 8 l 1
 3 8 l 1x78
 3 6 l 1
 3 4 l 1
 3 2 l 1xb8
9 8 m 1x74
 7 8 l 1
 5 8 l 1
 3 8 l 1x7a
 3 10 l 1x74
 5 10 l 1
 7 10 l 1x72
 9 10 l 1
 9 8 l 1x74
EndSplineSet
Validated: 3
EndChar

StartChar: uni1EBB
Encoding: 7867 7867 201
Width: 13
Flags: W
HStem: 0 2<3 11> 4 2<3 9> 8 2<3 9>
VStem: 1 2<2 4 6 8> 9 2<6 8>
CounterMasks: 1 e0
LayerCount: 2
Fore
SplineSet
5 11 m 29
 7 11 l 29
 7 13 l 29
 9 13 l 29
 9 17 l 29
 5 17 l 29
 5 15 l 29
 7 15 l 29
 7 13 l 29
 5 13 l 29
 5 11 l 29
9 2 m 1
 11 2 l 1
 11 0 l 1
 9 0 l 1
 7 0 l 1
 5 0 l 1
 3 0 l 1
 3 2 l 1
 5 2 l 1
 7 2 l 1
 9 2 l 1
3 2 m 1
 1 2 l 1
 1 4 l 1
 1 6 l 1
 1 8 l 1
 3 8 l 1
 3 6 l 1
 5 6 l 1
 7 6 l 1
 9 6 l 1
 9 8 l 1
 11 8 l 1
 11 6 l 1
 11 4 l 1
 9 4 l 1
 7 4 l 1
 5 4 l 1
 3 4 l 1
 3 2 l 1
9 8 m 1
 7 8 l 1
 5 8 l 1
 3 8 l 1
 3 10 l 1
 5 10 l 1
 7 10 l 1
 9 10 l 1
 9 8 l 1
EndSplineSet
Validated: 5
EndChar

StartChar: uni1EDD
Encoding: 7901 7901 202
Width: 13
Flags: W
HStem: 0 2<3 9> 2 6<1 3 9 11> 15 2<5 7> 17 2<3 5>
VStem: 1 2<2 8> 3 2<17 19> 5 2<15 17> 9 2<2 8>
LayerCount: 2
Fore
SplineSet
7 15 m 29x23
 5 15 l 25x23
 5 17 l 25x25
 3 17 l 25
 3 19 l 25
 5 19 l 25x15
 5 17 l 25x25
 7 17 l 25
 7 15 l 29x23
9 10 m 25
 11 10 l 25
 11 14 l 25
 7 14 l 25
 7 12 l 25
 9 12 l 25
 9 10 l 25
7 2 m 1x8b
 9 2 l 1
 9 0 l 1
 7 0 l 1
 5 0 l 1x8b
 3 0 l 1x85
 3 2 l 1
 5 2 l 1
 7 2 l 1x8b
9 2 m 1
 9 4 l 1
 9 6 l 1
 9 8 l 1
 11 8 l 1
 11 6 l 1
 11 4 l 1
 11 2 l 1x41
 9 2 l 1
3 2 m 1x89
 1 2 l 1
 1 4 l 1
 1 6 l 1
 1 8 l 1
 3 8 l 1x49
 3 6 l 1
 3 4 l 1
 3 2 l 1x89
9 8 m 1
 7 8 l 1
 5 8 l 1
 3 8 l 1x4b
 3 10 l 1x45
 5 10 l 1
 7 10 l 1x43
 9 10 l 1
 9 8 l 1
EndSplineSet
Validated: 5
EndChar

StartChar: dcroat
Encoding: 273 273 203
Width: 13
Flags: W
HStem: -6 20G<9 11> 0 2<3 9> 6 2<7 9> 8 2<3 7>
VStem: 1 2<2 8> 9 2<2 6 8 12 13 14>
LayerCount: 2
Fore
SplineSet
7 13 m 29x0c
 7 12 l 25
 9 12 l 25
 9 13 l 25
 7 13 l 29x0c
13 13 m 25
 11 13 l 25
 11 12 l 25
 13 12 l 25
 13 13 l 25
9 0 m 1x6c
 7 0 l 1
 5 0 l 1
 3 0 l 1
 3 2 l 1
 5 2 l 1
 7 2 l 1
 9 2 l 1
 9 4 l 1
 9 6 l 1
 7 6 l 1
 7 8 l 1
 9 8 l 1x6c
 9 10 l 1x1c
 9 12 l 1
 9 13 l 0
 9 14 l 1
 11 14 l 1x8c
 11 12 l 1
 11 10 l 1
 11 8 l 1x1c
 11 6 l 1
 11 4 l 1
 11 2 l 1
 11 0 l 1
 9 0 l 1x6c
3 2 m 1
 1 2 l 1
 1 4 l 1
 1 6 l 1x6c
 1 8 l 1
 3 8 l 1x1c
 3 6 l 1
 3 4 l 1
 3 2 l 1
7 8 m 1
 5 8 l 1
 3 8 l 1
 3 10 l 1
 5 10 l 1
 7 10 l 1x1c
 7 8 l 1
EndSplineSet
Validated: 5
EndChar

StartChar: uni1EC1
Encoding: 7873 7873 204
Width: 13
Flags: W
HStem: 0 2<3 11> 4 2<3 9> 8 2<3 9> 12 2<3 5 7 9> 17 2<6 8> 19 2<4 6>
VStem: 1 2<2 4 6 8> 4 2<19 21> 5 2<14 16> 6 2<17 19> 7 2<12 14> 9 2<6 8>
LayerCount: 2
Fore
SplineSet
8 17 m 29xfa40
 6 17 l 25xfa40
 6 19 l 25xfb
 4 19 l 25
 4 21 l 25
 6 21 l 25xf7
 6 19 l 25xfb
 8 19 l 25
 8 17 l 29xfa40
7 12 m 1xf220
 7 14 l 1xf280
 9 14 l 1
 9 12 l 1
 7 12 l 1xf220
3 12 m 1
 3 14 l 1
 5 14 l 1
 5 12 l 1
 3 12 l 1
9 2 m 1xf210
 11 2 l 1
 11 0 l 1
 9 0 l 1xf210
 7 0 l 1xf220
 5 0 l 1
 3 0 l 1
 3 2 l 1
 5 2 l 1xf280
 7 2 l 1xf220
 9 2 l 1xf210
3 2 m 1
 1 2 l 1
 1 4 l 1
 1 6 l 1
 1 8 l 1
 3 8 l 1
 3 6 l 1
 5 6 l 1xf280
 7 6 l 1xf220
 9 6 l 1
 9 8 l 1
 11 8 l 1
 11 6 l 1
 11 4 l 1
 9 4 l 1xf210
 7 4 l 1xf220
 5 4 l 1xf280
 3 4 l 1
 3 2 l 1
9 8 m 1xf210
 7 8 l 1xf220
 5 8 l 1
 3 8 l 1
 3 10 l 1
 5 10 l 1xf280
 7 10 l 1xf220
 9 10 l 1
 9 8 l 1xf210
7 14 m 1xf280
 5 14 l 1
 5 16 l 1
 7 16 l 1
 7 14 l 1xf280
EndSplineSet
Validated: 5
EndChar

StartChar: uni1EDF
Encoding: 7903 7903 205
Width: 13
Flags: W
HStem: 0 2<3 9> 2 6<1 3 9 11> 12 2<7 9> 19 2<6 8>
VStem: 1 2<2 8> 3 6<0 2 8 10> 7 2<12 14> 9 2<2 8>
LayerCount: 2
Fore
SplineSet
8 19 m 9x30
 6 19 l 1
 6 21 l 1
 8 21 l 1
 8 19 l 9x30
10 19 m 1
 10 17 l 9
 8 17 l 25
 8 15 l 25
 6 15 l 25
 6 17 l 25
 8 17 l 25
 8 19 l 1049
9 12 m 13x32
 7 12 l 1
 7 14 l 1
 9 14 l 1
 9 12 l 13x32
9 12 m 25x32
 9 10 l 25x34
 11 10 l 17
 11 12 l 1025x31
7 2 m 1xba
 9 2 l 1
 9 0 l 1xb4
 7 0 l 1xb2
 5 0 l 1
 3 0 l 1xb4
 3 2 l 1
 5 2 l 1
 7 2 l 1xba
9 2 m 1
 9 4 l 1
 9 6 l 1xb1
 9 8 l 1x74
 11 8 l 1
 11 6 l 1
 11 4 l 1
 11 2 l 1x71
 9 2 l 1
3 2 m 1xb8
 1 2 l 1
 1 4 l 1
 1 6 l 1
 1 8 l 1
 3 8 l 1x78
 3 6 l 1
 3 4 l 1
 3 2 l 1xb8
9 8 m 1x74
 7 8 l 1
 5 8 l 1
 3 8 l 1x7a
 3 10 l 1x74
 5 10 l 1
 7 10 l 1x72
 9 10 l 1
 9 8 l 1x74
EndSplineSet
Validated: 3
EndChar

StartChar: uni1EC7
Encoding: 7879 7879 206
Width: 13
Flags: W
HStem: -3 2<6 8> 0 2<3 11> 4 2<3 9> 8 2<3 9> 12 2<3 5 7 9>
VStem: 1 2<2 4 6 8> 5 2<14 16> 6 2<-3 -1> 7 2<12 14> 9 2<6 8>
LayerCount: 2
Fore
SplineSet
6 -1 m 29xfd
 8 -1 l 25
 8 -3 l 25
 6 -3 l 25
 6 -1 l 29xfd
7 12 m 1xfc80
 7 14 l 1xfe
 9 14 l 1
 9 12 l 1
 7 12 l 1xfc80
3 12 m 1
 3 14 l 1
 5 14 l 1
 5 12 l 1
 3 12 l 1
9 2 m 1xfc40
 11 2 l 1
 11 0 l 1
 9 0 l 1xfc40
 7 0 l 1xfc80
 5 0 l 1
 3 0 l 1
 3 2 l 1
 5 2 l 1xfe
 7 2 l 1xfc80
 9 2 l 1xfc40
3 2 m 1
 1 2 l 1
 1 4 l 1
 1 6 l 1
 1 8 l 1
 3 8 l 1
 3 6 l 1
 5 6 l 1xfe
 7 6 l 1xfc80
 9 6 l 1
 9 8 l 1
 11 8 l 1
 11 6 l 1
 11 4 l 1
 9 4 l 1xfc40
 7 4 l 1xfc80
 5 4 l 1xfe
 3 4 l 1
 3 2 l 1
9 8 m 1xfc40
 7 8 l 1xfc80
 5 8 l 1
 3 8 l 1
 3 10 l 1
 5 10 l 1xfe
 7 10 l 1xfc80
 9 10 l 1
 9 8 l 1xfc40
7 14 m 1xfe
 5 14 l 1
 5 16 l 1
 7 16 l 1
 7 14 l 1xfe
EndSplineSet
Validated: 5
EndChar

StartChar: uni1ED9
Encoding: 7897 7897 207
Width: 13
Flags: W
HStem: -3 2<5 7> 0 2<3 9> 2 6<1 3 9 11> 12 2<3 5 7 9>
VStem: 1 2<2 8> 3 2<12 14> 5 2<-3 -1 14 16> 9 2<2 8>
LayerCount: 2
Fore
SplineSet
5 -1 m 29x93
 7 -1 l 25
 7 -3 l 25
 5 -3 l 25
 5 -1 l 29x93
7 12 m 1
 7 14 l 1
 9 14 l 1
 9 12 l 1
 7 12 l 1
3 12 m 1x95
 3 14 l 1
 5 14 l 1
 5 12 l 1
 3 12 l 1x95
7 2 m 1xdb
 9 2 l 1
 9 0 l 1
 7 0 l 1
 5 0 l 1xdb
 3 0 l 1xd5
 3 2 l 1
 5 2 l 1
 7 2 l 1xdb
9 2 m 1
 9 4 l 1
 9 6 l 1
 9 8 l 1
 11 8 l 1
 11 6 l 1
 11 4 l 1
 11 2 l 1xb1
 9 2 l 1
3 2 m 1xd9
 1 2 l 1
 1 4 l 1
 1 6 l 1
 1 8 l 1
 3 8 l 1xb9
 3 6 l 1
 3 4 l 1
 3 2 l 1xd9
9 8 m 1
 7 8 l 1
 5 8 l 1
 3 8 l 1xbb
 3 10 l 1xb5
 5 10 l 1
 7 10 l 1xb3
 9 10 l 1
 9 8 l 1
7 14 m 1
 5 14 l 1x95
 5 16 l 1
 7 16 l 1
 7 14 l 1
EndSplineSet
Validated: 5
EndChar

StartChar: uni1EA1
Encoding: 7841 7841 208
Width: 13
Flags: W
HStem: -3 2<6 8> 0 2<3 9> 4 2<3 9> 8 2<3 9>
VStem: 1 2<2 4> 6 2<-3 -1> 9 2<2 4 6 8>
LayerCount: 2
Fore
SplineSet
6 -1 m 29
 8 -1 l 25
 8 -3 l 25
 6 -3 l 25
 6 -1 l 29
9 0 m 1
 7 0 l 1
 5 0 l 1
 3 0 l 1
 3 2 l 1
 1 2 l 1
 1 4 l 1
 3 4 l 1
 3 6 l 1
 5 6 l 1
 7 6 l 1
 9 6 l 1
 9 8 l 1
 11 8 l 1
 11 6 l 1
 11 4 l 1
 11 2 l 1
 11 0 l 1
 9 0 l 1
7 2 m 1
 9 2 l 1
 9 4 l 1
 7 4 l 1
 5 4 l 1
 3 4 l 1
 3 2 l 1
 5 2 l 1
 7 2 l 1
9 8 m 1
 7 8 l 1
 5 8 l 1
 3 8 l 1
 3 10 l 1
 5 10 l 1
 7 10 l 1
 9 10 l 1
 9 8 l 1
EndSplineSet
Validated: 5
EndChar

StartChar: uni1EE3
Encoding: 7907 7907 209
Width: 13
Flags: W
HStem: -3 2<5 7> 0 2<3 9> 2 6<1 3 9 11> 12 2<7 9>
VStem: 1 2<2 8> 3 6<0 2 8 10> 7 2<12 14> 9 2<2 8>
LayerCount: 2
Fore
SplineSet
9 12 m 29x92
 7 12 l 25
 7 14 l 25
 9 14 l 25
 9 12 l 29x92
9 10 m 25x94
 11 10 l 25
 11 12 l 25x91
 9 12 l 25x92
 9 10 l 25x94
9 10 m 1025x94
5 -1 m 25
 7 -1 l 25
 7 -3 l 25x92
 5 -3 l 25
 5 -1 l 25
7 2 m 1xda
 9 2 l 1
 9 0 l 1xd4
 7 0 l 1xd2
 5 0 l 1
 3 0 l 1xd4
 3 2 l 1
 5 2 l 1
 7 2 l 1xda
9 2 m 1
 9 4 l 1
 9 6 l 1xd1
 9 8 l 1xb4
 11 8 l 1
 11 6 l 1
 11 4 l 1
 11 2 l 1xb1
 9 2 l 1
3 2 m 1xd8
 1 2 l 1
 1 4 l 1
 1 6 l 1
 1 8 l 1
 3 8 l 1xb8
 3 6 l 1
 3 4 l 1
 3 2 l 1xd8
9 8 m 1xb4
 7 8 l 1
 5 8 l 1
 3 8 l 1xba
 3 10 l 1xb4
 5 10 l 1
 7 10 l 1xb2
 9 10 l 1
 9 8 l 1xb4
EndSplineSet
Validated: 5
EndChar

StartChar: uni1EC3
Encoding: 7875 7875 210
Width: 13
Flags: W
HStem: 0 2<3 11> 4 2<3 9> 8 2<3 9> 11 2<3 5 7 9> 15 2<8 10> 19 2<8 10>
VStem: 1 2<2 4 6 8> 5 2<13 15> 7 2<11 13> 8 2<15 17 19 21>
LayerCount: 2
Fore
SplineSet
12 19 m 29xfe40
 10 19 l 25
 10 17 l 25
 12 17 l 25
 12 19 l 29xfe40
10 15 m 1
 8 15 l 1
 8 17 l 1
 10 17 l 25
 10 19 l 1
 8 19 l 25
 8 21 l 1
 10 21 l 1
 10 19 l 1
 10 17 l 1
 10 15 l 1
7 11 m 1xfe80
 7 13 l 1xff
 9 13 l 1
 9 11 l 1
 7 11 l 1xfe80
3 11 m 1
 3 13 l 1
 5 13 l 1
 5 11 l 1
 3 11 l 1
9 2 m 1xfe80
 11 2 l 1
 11 0 l 1
 9 0 l 1
 7 0 l 1xfe80
 5 0 l 1
 3 0 l 1
 3 2 l 1
 5 2 l 1xff
 7 2 l 1
 9 2 l 1xfe80
3 2 m 1
 1 2 l 1
 1 4 l 1
 1 6 l 1
 1 8 l 1
 3 8 l 1
 3 6 l 1
 5 6 l 1xff
 7 6 l 1
 9 6 l 1
 9 8 l 1
 11 8 l 1
 11 6 l 1
 11 4 l 1
 9 4 l 1
 7 4 l 1xfe80
 5 4 l 1xff
 3 4 l 1
 3 2 l 1
9 8 m 1xfe80
 7 8 l 1xfe80
 5 8 l 1
 3 8 l 1
 3 10 l 1
 5 10 l 1xff
 7 10 l 1
 9 10 l 1
 9 8 l 1xfe80
7 13 m 1xff
 5 13 l 1
 5 15 l 1
 7 15 l 1
 7 13 l 1xff
EndSplineSet
Validated: 5
EndChar

StartChar: uni1ECD
Encoding: 7885 7885 211
Width: 13
Flags: W
HStem: -3 2<5 7> 0 2<3 9> 2 6<1 3 9 11>
VStem: 1 2<2 8> 3 6<0 2 8 10> 9 2<2 8>
LayerCount: 2
Fore
SplineSet
5 -1 m 29x80
 7 -1 l 25
 7 -3 l 25
 5 -3 l 25
 5 -1 l 29x80
7 2 m 1xd0
 9 2 l 1
 9 0 l 1
 7 0 l 1
 5 0 l 1
 3 0 l 1xc8
 3 2 l 1
 5 2 l 1
 7 2 l 1xd0
9 2 m 1
 9 4 l 1
 9 6 l 1xc4
 9 8 l 1xa8
 11 8 l 1
 11 6 l 1
 11 4 l 1
 11 2 l 1xa4
 9 2 l 1
3 2 m 1xd0
 1 2 l 1
 1 4 l 1
 1 6 l 1
 1 8 l 1
 3 8 l 1xb0
 3 6 l 1
 3 4 l 1
 3 2 l 1xd0
9 8 m 1xa8
 7 8 l 1
 5 8 l 1
 3 8 l 1xb0
 3 10 l 1
 5 10 l 1
 7 10 l 1
 9 10 l 1
 9 8 l 1xa8
EndSplineSet
Validated: 5
EndChar

StartChar: uni1EA5
Encoding: 7845 7845 212
Width: 14
Flags: W
HStem: 0 2<3 9> 4 2<3 9> 8 2<3 9> 11 2<3 5 7 9>
VStem: 1 2<2 4> 3 2<11 13> 5 2<13 15> 7 2<11 13> 9 2<2 4 6 8>
LayerCount: 2
Fore
SplineSet
8 16 m 25xf0
 8 14 l 25
 10 14 l 25
 10 16 l 25
 12 16 l 25
 12 18 l 25
 10 18 l 25
 10 16 l 25
 8 16 l 25xf0
7 11 m 1xf1
 7 13 l 1xf2
 9 13 l 1
 9 11 l 1
 7 11 l 1xf1
3 11 m 1xf4
 3 13 l 1
 5 13 l 1
 5 11 l 1
 3 11 l 1xf4
9 0 m 1xf080
 7 0 l 1xf1
 5 0 l 1xf2
 3 0 l 1xf4
 3 2 l 1
 1 2 l 1
 1 4 l 1
 3 4 l 1xf8
 3 6 l 1xf4
 5 6 l 1xf2
 7 6 l 1xf1
 9 6 l 1
 9 8 l 1
 11 8 l 1
 11 6 l 1
 11 4 l 1
 11 2 l 1
 11 0 l 1
 9 0 l 1xf080
7 2 m 1
 9 2 l 1
 9 4 l 1xf080
 7 4 l 1xf1
 5 4 l 1
 3 4 l 1
 3 2 l 1
 5 2 l 1xfa
 7 2 l 1
9 8 m 1
 7 8 l 1xf1
 5 8 l 1xf2
 3 8 l 1
 3 10 l 1xf4
 5 10 l 1xf2
 7 10 l 1xf1
 9 10 l 1
 9 8 l 1
7 13 m 1xf2
 5 13 l 1xf4
 5 15 l 1
 7 15 l 1
 7 13 l 1xf2
EndSplineSet
Validated: 5
EndChar

StartChar: ygrave
Encoding: 7923 7923 213
Width: 13
Flags: W
HStem: -10 20G<1 3 9 11> -2 2<1 9> 0 21G<9 11> 2 2<3 9>
VStem: 1 2<4 10> 9 2<0 2 4 10>
LayerCount: 2
Fore
SplineSet
6 11 m 29x0c
 8 11 l 25
 8 13 l 25
 6 13 l 25
 6 15 l 25
 4 15 l 25
 4 13 l 25
 6 13 l 25
 6 11 l 29x0c
7 0 m 1x4c
 9 0 l 1
 9 -2 l 1
 7 -2 l 1
 5 -2 l 1
 3 -2 l 1
 1 -2 l 1
 1 0 l 1
 3 0 l 1
 5 0 l 1
 7 0 l 1x4c
9 0 m 1
 9 2 l 1
 7 2 l 1
 5 2 l 1
 3 2 l 1
 3 4 l 1
 5 4 l 1
 7 4 l 1
 9 4 l 1x5c
 9 6 l 1
 9 8 l 1
 9 10 l 1
 11 10 l 1x8c
 11 8 l 1
 11 6 l 1
 11 4 l 1
 11 2 l 1x1c
 11 0 l 1x2c
 9 0 l 1
3 4 m 1
 1 4 l 1x1c
 1 6 l 1
 1 8 l 1
 1 10 l 1
 3 10 l 1x8c
 3 8 l 1
 3 6 l 1
 3 4 l 1
EndSplineSet
Validated: 5
EndChar

StartChar: uni1ED1
Encoding: 7889 7889 214
Width: 13
Flags: W
HStem: 0 2<3 9> 2 6<1 3 9 11> 11 2<3 5 7 9>
VStem: 1 2<2 8> 3 2<11 13> 5 2<13 15> 7 2<11 13> 9 2<2 8>
LayerCount: 2
Fore
SplineSet
8 16 m 25x20
 8 14 l 25
 10 14 l 25
 10 16 l 25
 12 16 l 25
 12 18 l 25
 10 18 l 25
 10 16 l 25
 8 16 l 25x20
7 11 m 1x22
 7 13 l 1x24
 9 13 l 1
 9 11 l 1
 7 11 l 1x22
3 11 m 1x28
 3 13 l 1
 5 13 l 1
 5 11 l 1
 3 11 l 1x28
7 2 m 1xa2
 9 2 l 1
 9 0 l 1xa1
 7 0 l 1xa2
 5 0 l 1xa4
 3 0 l 1xa8
 3 2 l 1
 5 2 l 1xb4
 7 2 l 1xa2
9 2 m 1
 9 4 l 1
 9 6 l 1
 9 8 l 1
 11 8 l 1
 11 6 l 1
 11 4 l 1
 11 2 l 1x61
 9 2 l 1
3 2 m 1xb0
 1 2 l 1
 1 4 l 1
 1 6 l 1
 1 8 l 1
 3 8 l 1x70
 3 6 l 1
 3 4 l 1
 3 2 l 1xb0
9 8 m 1x61
 7 8 l 1x62
 5 8 l 1
 3 8 l 1x74
 3 10 l 1x68
 5 10 l 1x64
 7 10 l 1x62
 9 10 l 1
 9 8 l 1x61
7 13 m 1x24
 5 13 l 1x28
 5 15 l 1
 7 15 l 1
 7 13 l 1x24
EndSplineSet
Validated: 5
EndChar

StartChar: uni1EA3
Encoding: 7843 7843 215
Width: 13
Flags: W
HStem: 0 2<3 9> 4 2<3 9> 8 2<3 9> 15 2<5 7>
VStem: 1 2<2 4> 5 2<15 17> 9 2<2 4 6 8>
CounterMasks: 1 0e
LayerCount: 2
Fore
SplineSet
7 15 m 25
 9 15 l 1
 9 13 l 9
 7 13 l 25
 7 11 l 25
 5 11 l 25
 5 13 l 25
 7 13 l 25
 7 15 l 1049
7 17 m 1024
7 15 m 1
 5 15 l 1
 5 17 l 1
 7 17 l 1
 7 15 l 1
9 0 m 1
 7 0 l 1
 5 0 l 1
 3 0 l 1
 3 2 l 1
 1 2 l 1
 1 4 l 1
 3 4 l 1
 3 6 l 1
 5 6 l 1
 7 6 l 1
 9 6 l 1
 9 8 l 1
 11 8 l 1
 11 6 l 1
 11 4 l 1
 11 2 l 1
 11 0 l 1
 9 0 l 1
7 2 m 1
 9 2 l 1
 9 4 l 1
 7 4 l 1
 5 4 l 1
 3 4 l 1
 3 2 l 1
 5 2 l 1
 7 2 l 1
9 8 m 1
 7 8 l 1
 5 8 l 1
 3 8 l 1
 3 10 l 1
 5 10 l 1
 7 10 l 1
 9 10 l 1
 9 8 l 1
EndSplineSet
Validated: 3
EndChar

StartChar: uni1ECF
Encoding: 7887 7887 216
Width: 13
Flags: W
HStem: 0 2<3 9> 2 6<1 3 9 11> 15 2<5 7>
VStem: 1 2<2 8> 3 6<0 2 8 10> 9 2<2 8>
LayerCount: 2
Fore
SplineSet
7 15 m 1053x20
7 15 m 0
 9 15 9 15 9 15 c 1
 9 13 l 9x24
 7 13 l 25
 7 11 l 25
 5 11 l 25
 5 13 l 25
 7 13 l 25
 7 15 l 1049
7 15 m 9
 5 15 l 1
 5 17 l 1
 7 17 l 1
 7 15 l 9
7 2 m 1xb0
 9 2 l 1
 9 0 l 1
 7 0 l 1
 5 0 l 1
 3 0 l 1xa8
 3 2 l 1
 5 2 l 1
 7 2 l 1xb0
9 2 m 1
 9 4 l 1
 9 6 l 1xa4
 9 8 l 1x68
 11 8 l 1
 11 6 l 1
 11 4 l 1
 11 2 l 1x64
 9 2 l 1
3 2 m 1xb0
 1 2 l 1
 1 4 l 1
 1 6 l 1
 1 8 l 1
 3 8 l 1x70
 3 6 l 1
 3 4 l 1
 3 2 l 1xb0
9 8 m 1x68
 7 8 l 1
 5 8 l 1
 3 8 l 1x70
 3 10 l 1
 5 10 l 1
 7 10 l 1
 9 10 l 1
 9 8 l 1x68
EndSplineSet
Validated: 3
EndChar

StartChar: abreve
Encoding: 259 259 217
Width: 13
Flags: W
HStem: 0 2<3 9> 4 2<3 9> 8 2<3 9>
VStem: 1 2<2 4> 9 2<2 4 6 8>
CounterMasks: 1 e0
LayerCount: 2
Fore
SplineSet
4 11 m 5
 8 11 l 5
 8 13 l 5
 10 13 l 29
 10 15 l 29
 8 15 l 29
 8 13 l 5
 4 13 l 5
 4 15 l 29
 2 15 l 29
 2 13 l 29
 4 13 l 1053
9 0 m 5
 7 0 l 5
 5 0 l 5
 3 0 l 5
 3 2 l 5
 1 2 l 5
 1 4 l 5
 3 4 l 5
 3 6 l 5
 5 6 l 5
 7 6 l 5
 9 6 l 5
 9 8 l 5
 11 8 l 5
 11 6 l 5
 11 4 l 5
 11 2 l 5
 11 0 l 5
 9 0 l 5
7 2 m 5
 9 2 l 5
 9 4 l 5
 7 4 l 5
 5 4 l 5
 3 4 l 5
 3 2 l 5
 5 2 l 5
 7 2 l 5
9 8 m 5
 7 8 l 5
 5 8 l 5
 3 8 l 5
 3 10 l 5
 5 10 l 5
 7 10 l 5
 9 10 l 5
 9 8 l 5
EndSplineSet
Validated: 3
EndChar

StartChar: uni1EB1
Encoding: 7857 7857 218
Width: 13
Flags: W
HStem: 0 2<3 9> 4 2<3 9> 8 2<3 9>
VStem: 1 2<2 4> 9 2<2 4 6 8>
CounterMasks: 1 e0
LayerCount: 2
Fore
SplineSet
5 15 m 25
 7 15 l 25
 7 17 l 25
 5 17 l 25
 5 19 l 25
 3 19 l 25
 3 17 l 25
 5 17 l 25
 5 15 l 25
4 11 m 1
 8 11 l 5
 8 13 l 1
 10 13 l 25
 10 15 l 25
 8 15 l 25
 8 13 l 1
 4 13 l 1
 4 15 l 25
 2 15 l 25
 2 13 l 25
 4 13 l 1049
9 0 m 1
 7 0 l 1
 5 0 l 1
 3 0 l 1
 3 2 l 1
 1 2 l 1
 1 4 l 1
 3 4 l 1
 3 6 l 1
 5 6 l 1
 7 6 l 1
 9 6 l 1
 9 8 l 1
 11 8 l 1
 11 6 l 1
 11 4 l 1
 11 2 l 1
 11 0 l 1
 9 0 l 1
7 2 m 1
 9 2 l 1
 9 4 l 1
 7 4 l 1
 5 4 l 1
 3 4 l 1
 3 2 l 1
 5 2 l 1
 7 2 l 1
9 8 m 1
 7 8 l 1
 5 8 l 1
 3 8 l 1
 3 10 l 1
 5 10 l 1
 7 10 l 1
 9 10 l 1
 9 8 l 1
EndSplineSet
Validated: 11
EndChar

StartChar: uni1EBF
Encoding: 7871 7871 219
Width: 13
Flags: W
HStem: 0 2<3 11> 4 2<3 9> 8 2<3 9> 11 2<3 5 7 9>
VStem: 1 2<2 4 6 8> 5 2<13 15> 7 2<11 13> 9 2<6 8>
LayerCount: 2
Fore
SplineSet
8 16 m 29xf8
 8 14 l 25
 10 14 l 25
 10 16 l 25
 12 16 l 25
 12 18 l 25
 10 18 l 25
 10 16 l 25
 8 16 l 29xf8
7 11 m 1xfa
 7 13 l 1xfc
 9 13 l 1
 9 11 l 1
 7 11 l 1xfa
3 11 m 1
 3 13 l 1
 5 13 l 1
 5 11 l 1
 3 11 l 1
9 2 m 1xf9
 11 2 l 1
 11 0 l 1
 9 0 l 1xf9
 7 0 l 1xfa
 5 0 l 1
 3 0 l 1
 3 2 l 1
 5 2 l 1xfc
 7 2 l 1xfa
 9 2 l 1xf9
3 2 m 1
 1 2 l 1
 1 4 l 1
 1 6 l 1
 1 8 l 1
 3 8 l 1
 3 6 l 1
 5 6 l 1xfc
 7 6 l 1xfa
 9 6 l 1
 9 8 l 1
 11 8 l 1
 11 6 l 1
 11 4 l 1
 9 4 l 1xf9
 7 4 l 1xfa
 5 4 l 1xfc
 3 4 l 1
 3 2 l 1
9 8 m 1xf9
 7 8 l 1xfa
 5 8 l 1
 3 8 l 1
 3 10 l 1
 5 10 l 1xfc
 7 10 l 1xfa
 9 10 l 1
 9 8 l 1xf9
7 13 m 1xfc
 5 13 l 1
 5 15 l 1
 7 15 l 1
 7 13 l 1xfc
EndSplineSet
Validated: 5
EndChar

StartChar: uni1EA7
Encoding: 7847 7847 220
Width: 13
Flags: W
HStem: 0 2<3 9> 4 2<3 9> 8 2<3 9> 11 2<3 5 7 9>
VStem: 1 2<2 4> 3 2<11 13> 5 2<13 15> 7 2<11 13> 9 2<2 4 6 8>
LayerCount: 2
Fore
SplineSet
6 19 m 29xf0
 6 17 l 25
 8 17 l 25
 8 15 l 25
 10 15 l 25
 10 17 l 25
 8 17 l 25
 8 19 l 25
 6 19 l 29xf0
7 11 m 1xf1
 7 13 l 1xf2
 9 13 l 1
 9 11 l 1
 7 11 l 1xf1
3 11 m 1xf4
 3 13 l 1
 5 13 l 1
 5 11 l 1
 3 11 l 1xf4
9 0 m 1xf080
 7 0 l 1xf1
 5 0 l 1xf2
 3 0 l 1xf4
 3 2 l 1
 1 2 l 1
 1 4 l 1
 3 4 l 1xf8
 3 6 l 1xf4
 5 6 l 1xf2
 7 6 l 1xf1
 9 6 l 1
 9 8 l 1
 11 8 l 1
 11 6 l 1
 11 4 l 1
 11 2 l 1
 11 0 l 1
 9 0 l 1xf080
7 2 m 1
 9 2 l 1
 9 4 l 1xf080
 7 4 l 1xf1
 5 4 l 1
 3 4 l 1
 3 2 l 1
 5 2 l 1xfa
 7 2 l 1
9 8 m 1
 7 8 l 1xf1
 5 8 l 1xf2
 3 8 l 1
 3 10 l 1xf4
 5 10 l 1xf2
 7 10 l 1xf1
 9 10 l 1
 9 8 l 1
7 13 m 1xf2
 5 13 l 1xf4
 5 15 l 1
 7 15 l 1
 7 13 l 1xf2
EndSplineSet
Validated: 5
EndChar

StartChar: uni1EC9
Encoding: 7881 7881 221
Width: 5
Flags: W
HStem: -10 20G<1 3> 0 21G<1 3> 12 2<1 3> 19 2<1 3>
VStem: 1 2<0 10 12 14 19 21>
LayerCount: 2
Fore
SplineSet
5 19 m 29x18
 3 19 l 25
 3 17 l 25
 5 17 l 25
 5 19 l 29x18
1 19 m 25
 1 21 l 25
 3 21 l 25x48
 3 19 l 25
 1 19 l 25
1 17 m 25
 1 15 l 25
 3 15 l 25
 3 17 l 25
 1 17 l 25
1 12 m 1x28
 1 14 l 1
 3 14 l 1
 3 12 l 1
 1 12 l 1x28
1 0 m 1x48
 1 2 l 1
 1 4 l 1
 1 6 l 1
 1 8 l 1
 1 10 l 1
 3 10 l 1x88
 3 8 l 1
 3 6 l 1
 3 4 l 1
 3 2 l 1
 3 0 l 1
 1 0 l 1x48
EndSplineSet
Validated: 5
EndChar

StartChar: uni1EAF
Encoding: 7855 7855 222
Width: 13
Flags: W
HStem: 0 2<3 9> 4 2<3 9> 8 2<3 9>
VStem: 1 2<2 4> 9 2<2 4 6 8>
CounterMasks: 1 e0
LayerCount: 2
Fore
SplineSet
5 15 m 29
 7 15 l 25
 7 17 l 25
 9 17 l 25
 9 19 l 25
 7 19 l 25
 7 17 l 25
 5 17 l 25
 5 15 l 29
4 11 m 1
 8 11 l 1
 8 13 l 1
 10 13 l 25
 10 15 l 25
 8 15 l 25
 8 13 l 1
 4 13 l 1
 4 15 l 25
 2 15 l 25
 2 13 l 25
 4 13 l 1049
9 0 m 1
 7 0 l 1
 5 0 l 1
 3 0 l 1
 3 2 l 1
 1 2 l 1
 1 4 l 1
 3 4 l 1
 3 6 l 1
 5 6 l 1
 7 6 l 1
 9 6 l 1
 9 8 l 1
 11 8 l 1
 11 6 l 1
 11 4 l 1
 11 2 l 1
 11 0 l 1
 9 0 l 1
7 2 m 1
 9 2 l 1
 9 4 l 1
 7 4 l 1
 5 4 l 1
 3 4 l 1
 3 2 l 1
 5 2 l 1
 7 2 l 1
9 8 m 1
 7 8 l 1
 5 8 l 1
 3 8 l 1
 3 10 l 1
 5 10 l 1
 7 10 l 1
 9 10 l 1
 9 8 l 1
EndSplineSet
Validated: 11
EndChar

StartChar: uni1ED3
Encoding: 7891 7891 223
Width: 13
Flags: W
HStem: 0 2<3 9> 2 6<1 3 9 11> 12 2<3 5 7 9>
VStem: 1 2<2 8> 3 2<12 14> 5 2<14 16> 7 2<12 14> 9 2<2 8>
LayerCount: 2
Fore
SplineSet
6 17 m 29x20
 8 17 l 25
 8 19 l 25
 6 19 l 25
 6 21 l 25
 4 21 l 25
 4 19 l 25
 6 19 l 25
 6 17 l 29x20
7 12 m 1x22
 7 14 l 1x24
 9 14 l 1
 9 12 l 1
 7 12 l 1x22
3 12 m 1x28
 3 14 l 1
 5 14 l 1
 5 12 l 1
 3 12 l 1x28
7 2 m 1xa2
 9 2 l 1
 9 0 l 1xa1
 7 0 l 1xa2
 5 0 l 1xa4
 3 0 l 1xa8
 3 2 l 1
 5 2 l 1xb4
 7 2 l 1xa2
9 2 m 1
 9 4 l 1
 9 6 l 1
 9 8 l 1
 11 8 l 1
 11 6 l 1
 11 4 l 1
 11 2 l 1x61
 9 2 l 1
3 2 m 1xb0
 1 2 l 1
 1 4 l 1
 1 6 l 1
 1 8 l 1
 3 8 l 1x70
 3 6 l 1
 3 4 l 1
 3 2 l 1xb0
9 8 m 1x61
 7 8 l 1x62
 5 8 l 1
 3 8 l 1x74
 3 10 l 1x68
 5 10 l 1x64
 7 10 l 1x62
 9 10 l 1
 9 8 l 1x61
7 14 m 1x24
 5 14 l 1x28
 5 16 l 1
 7 16 l 1
 7 14 l 1x24
EndSplineSet
Validated: 5
EndChar

StartChar: uni1EE5
Encoding: 7909 7909 224
Width: 13
Flags: W
HStem: -10 20G<1 3 9 11> -3 2<5 7> 0 2<3 9>
VStem: 1 2<2 10> 5 2<-3 -1> 9 2<2 10>
CounterMasks: 1 1c
LayerCount: 2
Fore
SplineSet
5 -1 m 29x5c
 7 -1 l 25
 7 -3 l 25
 5 -3 l 25
 5 -1 l 29x5c
9 0 m 1x3c
 7 0 l 1
 5 0 l 1
 3 0 l 1
 3 2 l 1
 5 2 l 1
 7 2 l 1
 9 2 l 1x3c
 9 4 l 1
 9 6 l 1
 9 8 l 1
 9 10 l 1
 11 10 l 1x9c
 11 8 l 1
 11 6 l 1
 11 4 l 1
 11 2 l 1
 11 0 l 1
 9 0 l 1x3c
3 2 m 1
 1 2 l 1x3c
 1 4 l 1
 1 6 l 1
 1 8 l 1
 1 10 l 1
 3 10 l 1x9c
 3 8 l 1
 3 6 l 1
 3 4 l 1
 3 2 l 1
EndSplineSet
Validated: 5
EndChar

StartChar: Dcroat
Encoding: 272 272 225
Width: 13
Flags: W
HStem: 0 2<3 9> 6 2<3 5> 12 2<3 9>
VStem: 1 2<2 6 8 12> 9 2<2 12>
CounterMasks: 1 e0
LayerCount: 2
Fore
SplineSet
3 8 m 29
 5 8 l 25
 5 6 l 25
 3 6 l 25
 3 8 l 29
1 8 m 25
 -1 8 l 25
 -1 6 l 25
 1 6 l 25
 1 8 l 25
7 2 m 1
 9 2 l 1
 9 4 l 1
 9 6 l 1
 9 8 l 1
 9 10 l 1
 9 12 l 1
 7 12 l 1
 5 12 l 1
 3 12 l 1
 3 10 l 1
 3 8 l 1
 3 6 l 1
 3 4 l 1
 3 2 l 1
 5 2 l 1
 7 2 l 1
7 0 m 1
 5 0 l 1
 3 0 l 1
 1 0 l 1
 1 2 l 1
 1 4 l 1
 1 6 l 1
 1 8 l 1
 1 10 l 1
 1 12 l 1
 1 14 l 1
 3 14 l 1
 5 14 l 1
 7 14 l 1
 9 14 l 1
 9 12 l 1
 11 12 l 1
 11 10 l 1
 11 8 l 1
 11 6 l 1
 11 4 l 1
 11 2 l 1
 9 2 l 1
 9 0 l 1
 7 0 l 1
EndSplineSet
Validated: 5
EndChar

StartChar: uni1EAD
Encoding: 7853 7853 226
Width: 13
Flags: W
HStem: -3 2<5 7> 0 2<3 9> 4 2<3 9> 8 2<3 9> 12 2<3 5 7 9>
VStem: 1 2<2 4> 3 2<12 14> 5 2<-3 -1 14 16> 9 2<2 4 6 8>
LayerCount: 2
Fore
SplineSet
5 -1 m 29xf980
 7 -1 l 25
 7 -3 l 25
 5 -3 l 25
 5 -1 l 29xf980
7 12 m 1
 7 14 l 1
 9 14 l 1
 9 12 l 1
 7 12 l 1
3 12 m 1xfa80
 3 14 l 1
 5 14 l 1
 5 12 l 1
 3 12 l 1xfa80
9 0 m 1
 7 0 l 1
 5 0 l 1xf980
 3 0 l 1xfa80
 3 2 l 1
 1 2 l 1
 1 4 l 1
 3 4 l 1xfc80
 3 6 l 1xfa80
 5 6 l 1
 7 6 l 1xf980
 9 6 l 1
 9 8 l 1
 11 8 l 1
 11 6 l 1
 11 4 l 1
 11 2 l 1
 11 0 l 1
 9 0 l 1
7 2 m 1
 9 2 l 1
 9 4 l 1
 7 4 l 1
 5 4 l 1
 3 4 l 1
 3 2 l 1xfd80
 5 2 l 1
 7 2 l 1
9 8 m 1
 7 8 l 1
 5 8 l 1xf980
 3 8 l 1
 3 10 l 1xfa80
 5 10 l 1
 7 10 l 1
 9 10 l 1
 9 8 l 1
7 14 m 1
 5 14 l 1xfa80
 5 16 l 1
 7 16 l 1
 7 14 l 1
EndSplineSet
Validated: 5
EndChar

StartChar: uni1EEF
Encoding: 7919 7919 227
Width: 15
Flags: W
HStem: -10 20G<1 3 9 11> 0 2<3 9>
VStem: 1 2<2 10> 9 2<2 10>
LayerCount: 2
Fore
SplineSet
2 16 m 29x30
 2 14 l 25
 4 14 l 25
 4 16 l 25
 6 16 l 25
 6 14 l 25
 8 14 l 25
 8 16 l 25
 10 16 l 25
 10 18 l 25
 8 18 l 25
 8 16 l 25
 6 16 l 25
 6 18 l 25
 4 18 l 25
 4 16 l 25
 2 16 l 29x30
13 10 m 25xb0
 13 14 l 25
 9 14 l 25
 9 12 l 25
 11 12 l 25
 11 10 l 1
 13 10 l 25xb0
11 10 m 1025
9 0 m 1x70
 7 0 l 1
 5 0 l 1
 3 0 l 1
 3 2 l 1
 5 2 l 1
 7 2 l 1
 9 2 l 1x70
 9 4 l 1
 9 6 l 1
 9 8 l 1
 9 10 l 1
 11 10 l 1xb0
 11 8 l 1
 11 6 l 1
 11 4 l 1
 11 2 l 1
 11 0 l 1
 9 0 l 1x70
3 2 m 1
 1 2 l 1x70
 1 4 l 1
 1 6 l 1
 1 8 l 1
 1 10 l 1
 3 10 l 1xb0
 3 8 l 1
 3 6 l 1
 3 4 l 1
 3 2 l 1
EndSplineSet
Validated: 5
EndChar

StartChar: uni1EBD
Encoding: 7869 7869 228
Width: 13
Flags: W
HStem: 0 2<3 11> 4 2<3 9> 8 2<3 9> 14 2<5 7 9 11>
VStem: 1 2<2 4 6 8> 9 2<6 8 14 16>
LayerCount: 2
Fore
SplineSet
9 14 m 29
 9 16 l 25
 11 16 l 25
 11 14 l 25
 9 14 l 29
7 14 m 25
 7 12 l 25
 9 12 l 25
 9 14 l 25
 7 14 l 25
5 14 m 25
 5 16 l 25
 7 16 l 25
 7 14 l 25
 5 14 l 25
3 12 m 25
 5 12 l 25
 5 14 l 25
 3 14 l 25
 3 12 l 25
9 2 m 1
 11 2 l 1
 11 0 l 1
 9 0 l 1
 7 0 l 1
 5 0 l 1
 3 0 l 1
 3 2 l 1
 5 2 l 1
 7 2 l 1
 9 2 l 1
3 2 m 1
 1 2 l 1
 1 4 l 1
 1 6 l 1
 1 8 l 1
 3 8 l 1
 3 6 l 1
 5 6 l 1
 7 6 l 1
 9 6 l 1
 9 8 l 1
 11 8 l 1
 11 6 l 1
 11 4 l 1
 9 4 l 1
 7 4 l 1
 5 4 l 1
 3 4 l 1
 3 2 l 1
9 8 m 1
 7 8 l 1
 5 8 l 1
 3 8 l 1
 3 10 l 1
 5 10 l 1
 7 10 l 1
 9 10 l 1
 9 8 l 1
EndSplineSet
Validated: 5
EndChar

StartChar: uni1ED5
Encoding: 7893 7893 229
Width: 13
Flags: W
HStem: 0 2<3 9> 2 6<1 3 9 11> 11 2<3 5 7 9>
VStem: 1 2<2 8> 3 2<11 13> 5 2<13 15> 7 2<11 13> 9 2<2 8>
LayerCount: 2
Fore
SplineSet
8 15 m 29x20
 10 15 l 25
 10 17 l 25
 12 17 l 25
 12 19 l 25
 10 19 l 25
 10 21 l 25
 8 21 l 25
 8 19 l 25
 10 19 l 25
 10 17 l 25
 8 17 l 25
 8 15 l 29x20
7 11 m 1x22
 7 13 l 1x24
 9 13 l 1
 9 11 l 1
 7 11 l 1x22
3 11 m 1x28
 3 13 l 1
 5 13 l 1
 5 11 l 1
 3 11 l 1x28
7 2 m 1xa2
 9 2 l 1
 9 0 l 1xa1
 7 0 l 1xa2
 5 0 l 1xa4
 3 0 l 1xa8
 3 2 l 1
 5 2 l 1xb4
 7 2 l 1xa2
9 2 m 1
 9 4 l 1
 9 6 l 1
 9 8 l 1
 11 8 l 1
 11 6 l 1
 11 4 l 1
 11 2 l 1x61
 9 2 l 1
3 2 m 1xb0
 1 2 l 1
 1 4 l 1
 1 6 l 1
 1 8 l 1
 3 8 l 1x70
 3 6 l 1
 3 4 l 1
 3 2 l 1xb0
9 8 m 1x61
 7 8 l 1x62
 5 8 l 1
 3 8 l 1x74
 3 10 l 1x68
 5 10 l 1x64
 7 10 l 1x62
 9 10 l 1
 9 8 l 1x61
7 13 m 1x24
 5 13 l 1x28
 5 15 l 1
 7 15 l 1
 7 13 l 1x24
EndSplineSet
Validated: 5
EndChar

StartChar: uni1EE9
Encoding: 7913 7913 230
Width: 15
Flags: W
HStem: -10 20G<1 3 9 11> 0 2<3 9> 12 2<9 11>
VStem: 1 2<2 10> 9 2<2 10 12 14>
LayerCount: 2
Fore
SplineSet
4 15 m 1x38
 4 13 l 1
 6 13 l 25
 6 15 l 1
 8 15 l 1
 8 17 l 1
 6 17 l 1
 6 15 l 1
 4 15 l 1x38
11 12 m 13
 9 12 l 1
 9 14 l 1
 11 14 l 1
 11 12 l 13
11 12 m 25
 11 10 l 1
 13 10 l 17xb8
 13 12 l 1025
11 10 m 1025
9 0 m 1x78
 7 0 l 1
 5 0 l 1
 3 0 l 1
 3 2 l 1
 5 2 l 1
 7 2 l 1
 9 2 l 1x78
 9 4 l 1
 9 6 l 1
 9 8 l 1
 9 10 l 1
 11 10 l 1xb8
 11 8 l 1
 11 6 l 1
 11 4 l 1
 11 2 l 1
 11 0 l 1
 9 0 l 1x78
3 2 m 1
 1 2 l 1x78
 1 4 l 1
 1 6 l 1
 1 8 l 1
 1 10 l 1
 3 10 l 1xb8
 3 8 l 1
 3 6 l 1
 3 4 l 1
 3 2 l 1
EndSplineSet
Validated: 11
EndChar

StartChar: utilde
Encoding: 361 361 231
Width: 13
Flags: W
HStem: -10 20G<1 3 9 11> 0 2<3 9> 13 2<5 7 9 11>
VStem: 1 2<2 10> 5 2<13 15> 9 2<2 10 13 15>
CounterMasks: 1 1c
LayerCount: 2
Fore
SplineSet
9 13 m 1x3c
 9 15 l 1
 11 15 l 1
 11 13 l 5
 9 13 l 1x3c
7 13 m 1
 7 11 l 1
 9 11 l 1
 9 13 l 1
 7 13 l 1
5 13 m 1
 5 15 l 1
 7 15 l 1
 7 13 l 1
 5 13 l 1
3 11 m 1
 5 11 l 1
 5 13 l 1
 3 13 l 1
 3 11 l 1
9 0 m 1x7c
 7 0 l 1
 5 0 l 1
 3 0 l 1
 3 2 l 1
 5 2 l 1
 7 2 l 1
 9 2 l 1x7c
 9 4 l 1
 9 6 l 1
 9 8 l 1
 9 10 l 1
 11 10 l 1xbc
 11 8 l 1
 11 6 l 1
 11 4 l 1
 11 2 l 1
 11 0 l 1
 9 0 l 1x7c
3 2 m 1
 1 2 l 1x7c
 1 4 l 1
 1 6 l 1
 1 8 l 1
 1 10 l 1
 3 10 l 1xbc
 3 8 l 1
 3 6 l 1
 3 4 l 1
 3 2 l 1
EndSplineSet
Validated: 5
EndChar

StartChar: uni1EE7
Encoding: 7911 7911 232
Width: 13
Flags: W
HStem: -10 20G<1 3 9 11> 0 2<3 9> 11 2<5 7> 13 2<7 9> 15 2<5 7>
VStem: 1 2<2 10> 5 2<11 13 15 17> 9 2<2 10>
CounterMasks: 1 07
LayerCount: 2
Fore
SplineSet
7 13 m 29x27
 7 15 l 25x17
 5 15 l 25
 5 17 l 25
 7 17 l 25x0f
 7 15 l 25
 9 15 l 25
 9 13 l 25x17
 7 13 l 29x27
5 11 m 25x27
 5 13 l 25
 7 13 l 25
 7 11 l 25
 5 11 l 25x27
9 0 m 1x47
 7 0 l 1
 5 0 l 1
 3 0 l 1
 3 2 l 1
 5 2 l 1
 7 2 l 1
 9 2 l 1x47
 9 4 l 1
 9 6 l 1
 9 8 l 1
 9 10 l 1
 11 10 l 1x87
 11 8 l 1
 11 6 l 1
 11 4 l 1
 11 2 l 1
 11 0 l 1
 9 0 l 1x47
3 2 m 1
 1 2 l 1x47
 1 4 l 1
 1 6 l 1
 1 8 l 1
 1 10 l 1
 3 10 l 1x87
 3 8 l 1
 3 6 l 1
 3 4 l 1
 3 2 l 1
EndSplineSet
Validated: 5
EndChar

StartChar: uni1EB7
Encoding: 7863 7863 233
Width: 13
Flags: W
HStem: -3 2<5 7> 0 2<3 9> 4 2<3 9> 8 2<3 9>
VStem: 1 2<2 4> 5 2<-3 -1> 9 2<2 4 6 8>
CounterMasks: 1 0e
LayerCount: 2
Fore
SplineSet
5 -1 m 29
 7 -1 l 25
 7 -3 l 25
 5 -3 l 25
 5 -1 l 29
4 11 m 1
 8 11 l 1
 8 13 l 1
 10 13 l 25
 10 15 l 25
 8 15 l 25
 8 13 l 1
 4 13 l 1
 4 15 l 25
 2 15 l 25
 2 13 l 25
 4 13 l 1049
9 0 m 1
 7 0 l 1
 5 0 l 1
 3 0 l 1
 3 2 l 1
 1 2 l 1
 1 4 l 1
 3 4 l 1
 3 6 l 1
 5 6 l 1
 7 6 l 1
 9 6 l 1
 9 8 l 1
 11 8 l 1
 11 6 l 1
 11 4 l 1
 11 2 l 1
 11 0 l 1
 9 0 l 1
7 2 m 1
 9 2 l 1
 9 4 l 1
 7 4 l 1
 5 4 l 1
 3 4 l 1
 3 2 l 1
 5 2 l 1
 7 2 l 1
9 8 m 1
 7 8 l 1
 5 8 l 1
 3 8 l 1
 3 10 l 1
 5 10 l 1
 7 10 l 1
 9 10 l 1
 9 8 l 1
EndSplineSet
Validated: 3
EndChar

StartChar: uni1ED7
Encoding: 7895 7895 234
Width: 13
Flags: W
HStem: 0 2<3 9> 2 6<1 3 9 11> 11 2<3 5 7 9> 18 2<8 10 12 14>
VStem: 1 2<2 8> 3 2<11 13> 5 2<13 15> 7 2<11 13> 8 2<18 20> 9 2<2 8> 12 2<18 20>
LayerCount: 2
Fore
SplineSet
12 18 m 29x3020
 12 20 l 25
 14 20 l 25
 14 18 l 25
 12 18 l 29x3020
10 18 m 25x30a0
 10 16 l 25
 12 16 l 25
 12 18 l 25
 10 18 l 25x30a0
8 18 m 25
 8 20 l 25
 10 20 l 25
 10 18 l 25
 8 18 l 25
6 16 m 25
 8 16 l 25
 8 18 l 25
 6 18 l 25
 6 16 l 25
7 11 m 1x3120
 7 13 l 1x3220
 9 13 l 1
 9 11 l 1
 7 11 l 1x3120
3 11 m 1x3420
 3 13 l 1
 5 13 l 1
 5 11 l 1
 3 11 l 1x3420
7 2 m 1xb120
 9 2 l 1
 9 0 l 1xb060
 7 0 l 1xb120
 5 0 l 1xb220
 3 0 l 1xb420
 3 2 l 1
 5 2 l 1xba20
 7 2 l 1xb120
9 2 m 1
 9 4 l 1
 9 6 l 1
 9 8 l 1
 11 8 l 1
 11 6 l 1
 11 4 l 1
 11 2 l 1x7060
 9 2 l 1
3 2 m 1xb820
 1 2 l 1
 1 4 l 1
 1 6 l 1
 1 8 l 1
 3 8 l 1x7820
 3 6 l 1
 3 4 l 1
 3 2 l 1xb820
9 8 m 1x7060
 7 8 l 1x7120
 5 8 l 1
 3 8 l 1x7a20
 3 10 l 1x7420
 5 10 l 1x7220
 7 10 l 1x7120
 9 10 l 1
 9 8 l 1x7060
7 13 m 1x3220
 5 13 l 1x3420
 5 15 l 1
 7 15 l 1
 7 13 l 1x3220
EndSplineSet
Validated: 5
EndChar

StartChar: uni1EEB
Encoding: 7915 7915 235
Width: 15
Flags: W
HStem: -10 20G<1 3 9 11> 0 2<3 9> 12 2<9 11>
VStem: 1 2<2 10> 9 2<2 10 12 14>
LayerCount: 2
Fore
SplineSet
6 13 m 29x38
 8 13 l 25
 8 15 l 25
 6 15 l 25
 6 17 l 25
 4 17 l 25
 4 15 l 25
 6 15 l 25
 6 13 l 29x38
11 12 m 9
 9 12 l 1
 9 14 l 1
 11 14 l 1
 11 12 l 9
11 12 m 25
 11 10 l 1
 13 10 l 17xb8
 13 12 l 1025
11 10 m 1025
9 0 m 1x78
 7 0 l 1
 5 0 l 1
 3 0 l 1
 3 2 l 1
 5 2 l 1
 7 2 l 1
 9 2 l 1x78
 9 4 l 1
 9 6 l 1
 9 8 l 1
 9 10 l 1
 11 10 l 1xb8
 11 8 l 1
 11 6 l 1
 11 4 l 1
 11 2 l 1
 11 0 l 1
 9 0 l 1x78
3 2 m 1
 1 2 l 1x78
 1 4 l 1
 1 6 l 1
 1 8 l 1
 1 10 l 1
 3 10 l 1xb8
 3 8 l 1
 3 6 l 1
 3 4 l 1
 3 2 l 1
EndSplineSet
Validated: 11
EndChar

StartChar: uni1ECB
Encoding: 7883 7883 236
Width: 5
Flags: W
HStem: -10 20G<1 3> -3 2<1 3> 0 21G<1 3> 12 2<1 3>
VStem: 1 2<-3 -1 0 10 12 14>
LayerCount: 2
Fore
SplineSet
1 -1 m 29x48
 3 -1 l 25
 3 -3 l 25
 1 -3 l 25
 1 -1 l 29x48
1 0 m 1x28
 1 2 l 1
 1 4 l 1
 1 6 l 1
 1 8 l 1
 1 10 l 1
 3 10 l 1x88
 3 8 l 1
 3 6 l 1
 3 4 l 1
 3 2 l 1
 3 0 l 1
 1 0 l 1x28
1 12 m 1x18
 1 14 l 1
 3 14 l 1
 3 12 l 1
 1 12 l 1x18
EndSplineSet
Validated: 1
EndChar

StartChar: uni1EED
Encoding: 7917 7917 237
Width: 15
Flags: W
HStem: -10 20G<1 3 9 11> 0 2<3 9> 12 2<9 11>
VStem: 1 2<2 10> 9 2<2 10 12 14>
LayerCount: 2
Fore
SplineSet
7 15 m 25
 5 15 l 25
 5 13 l 25
 7 13 l 1049x38
7 17 m 25
 7 15 l 25
 9 15 l 25
 9 17 l 25
 7 17 l 25
5 19 m 25
 5 17 l 25
 7 17 l 25
 7 19 l 25
 5 19 l 25
11 12 m 9
 9 12 l 1
 9 14 l 1
 11 14 l 1
 11 12 l 9
11 12 m 25
 11 10 l 1
 13 10 l 17xb8
 13 12 l 1025
11 10 m 1025
9 0 m 1x78
 7 0 l 1
 5 0 l 1
 3 0 l 1
 3 2 l 1
 5 2 l 1
 7 2 l 1
 9 2 l 1x78
 9 4 l 1
 9 6 l 1
 9 8 l 1
 9 10 l 1
 11 10 l 1xb8
 11 8 l 1
 11 6 l 1
 11 4 l 1
 11 2 l 1
 11 0 l 1
 9 0 l 1x78
3 2 m 1
 1 2 l 1x78
 1 4 l 1
 1 6 l 1
 1 8 l 1
 1 10 l 1
 3 10 l 1xb8
 3 8 l 1
 3 6 l 1
 3 4 l 1
 3 2 l 1
EndSplineSet
Validated: 11
EndChar
